<svg xmlns="http://www.w3.org/2000/svg" xmlns:xlink="http://www.w3.org/1999/xlink" width="224.88" viewBox="0 0 224.88 112.5" height="112.5" version="1.0"><defs><g id="a"><path d="M 10.203125 0 L 1.828125 0 L 1.828125 -14.53125 L 10.203125 -14.53125 L 10.203125 -12.015625 L 4.90625 -12.015625 L 4.90625 -8.8125 L 9.828125 -8.8125 L 9.828125 -6.296875 L 4.90625 -6.296875 L 4.90625 -2.546875 L 10.203125 -2.546875 Z M 10.203125 0"/></g><g id="b"><path d="M 10.71875 0 L 9.671875 -3.453125 L 4.375 -3.453125 L 3.328125 0 L 0 0 L 5.125 -14.59375 L 8.890625 -14.59375 L 14.046875 0 Z M 8.9375 -6.046875 C 7.957031 -9.179688 7.40625 -10.953125 7.28125 -11.359375 C 7.164062 -11.773438 7.082031 -12.101562 7.03125 -12.34375 C 6.8125 -11.488281 6.1875 -9.390625 5.15625 -6.046875 Z M 8.9375 -6.046875"/></g><g id="c"><path d="M 10.40625 -4.03125 C 10.40625 -2.71875 9.929688 -1.679688 8.984375 -0.921875 C 8.046875 -0.171875 6.734375 0.203125 5.046875 0.203125 C 3.492188 0.203125 2.125 -0.0859375 0.9375 -0.671875 L 0.9375 -3.53125 C 1.914062 -3.101562 2.742188 -2.796875 3.421875 -2.609375 C 4.097656 -2.429688 4.71875 -2.34375 5.28125 -2.34375 C 5.957031 -2.34375 6.476562 -2.472656 6.84375 -2.734375 C 7.207031 -2.992188 7.390625 -3.378906 7.390625 -3.890625 C 7.390625 -4.171875 7.304688 -4.421875 7.140625 -4.640625 C 6.984375 -4.867188 6.75 -5.082031 6.4375 -5.28125 C 6.132812 -5.488281 5.507812 -5.816406 4.5625 -6.265625 C 3.675781 -6.691406 3.007812 -7.09375 2.5625 -7.46875 C 2.125 -7.851562 1.769531 -8.300781 1.5 -8.8125 C 1.238281 -9.320312 1.109375 -9.921875 1.109375 -10.609375 C 1.109375 -11.890625 1.539062 -12.898438 2.40625 -13.640625 C 3.28125 -14.378906 4.488281 -14.75 6.03125 -14.75 C 6.78125 -14.75 7.5 -14.65625 8.1875 -14.46875 C 8.875 -14.289062 9.59375 -14.039062 10.34375 -13.71875 L 9.34375 -11.328125 C 8.570312 -11.640625 7.929688 -11.859375 7.421875 -11.984375 C 6.910156 -12.109375 6.410156 -12.171875 5.921875 -12.171875 C 5.335938 -12.171875 4.890625 -12.035156 4.578125 -11.765625 C 4.265625 -11.492188 4.109375 -11.140625 4.109375 -10.703125 C 4.109375 -10.429688 4.171875 -10.191406 4.296875 -9.984375 C 4.429688 -9.785156 4.632812 -9.59375 4.90625 -9.40625 C 5.175781 -9.21875 5.828125 -8.878906 6.859375 -8.390625 C 8.210938 -7.742188 9.140625 -7.09375 9.640625 -6.4375 C 10.148438 -5.78125 10.40625 -4.976562 10.40625 -4.03125 Z M 10.40625 -4.03125"/></g><g id="d"><path d="M 7.4375 0 L 4.359375 0 L 4.359375 -11.96875 L 0.40625 -11.96875 L 0.40625 -14.53125 L 11.375 -14.53125 L 11.375 -11.96875 L 7.4375 -11.96875 Z M 7.4375 0"/></g><g id="f"><path d="M 4.859375 0 L 1.828125 0 L 1.828125 -14.53125 L 10.15625 -14.53125 L 10.15625 -12.015625 L 4.859375 -12.015625 L 4.859375 -8.265625 L 9.796875 -8.265625 L 9.796875 -5.75 L 4.859375 -5.75 Z M 4.859375 0"/></g><g id="g"><path d="M 4.90625 -8.078125 L 5.90625 -8.078125 C 6.875 -8.078125 7.59375 -8.238281 8.0625 -8.5625 C 8.53125 -8.894531 8.765625 -9.40625 8.765625 -10.09375 C 8.765625 -10.789062 8.523438 -11.285156 8.046875 -11.578125 C 7.578125 -11.867188 6.84375 -12.015625 5.84375 -12.015625 L 4.90625 -12.015625 Z M 4.90625 -5.578125 L 4.90625 0 L 1.828125 0 L 1.828125 -14.53125 L 6.0625 -14.53125 C 8.039062 -14.53125 9.503906 -14.171875 10.453125 -13.453125 C 11.398438 -12.734375 11.875 -11.644531 11.875 -10.1875 C 11.875 -9.320312 11.632812 -8.554688 11.15625 -7.890625 C 10.6875 -7.234375 10.023438 -6.710938 9.171875 -6.328125 C 11.359375 -3.066406 12.78125 -0.957031 13.4375 0 L 10.015625 0 L 6.546875 -5.578125 Z M 4.90625 -5.578125"/></g><g id="h"><path d="M 1.828125 0 L 1.828125 -14.53125 L 4.90625 -14.53125 L 4.90625 0 Z M 1.828125 0"/></g><g id="i"><path d="M 8 -12.171875 C 6.84375 -12.171875 5.945312 -11.734375 5.3125 -10.859375 C 4.675781 -9.992188 4.359375 -8.785156 4.359375 -7.234375 C 4.359375 -3.984375 5.570312 -2.359375 8 -2.359375 C 9.019531 -2.359375 10.253906 -2.613281 11.703125 -3.125 L 11.703125 -0.546875 C 10.515625 -0.046875 9.1875 0.203125 7.71875 0.203125 C 5.601562 0.203125 3.984375 -0.4375 2.859375 -1.71875 C 1.742188 -3 1.1875 -4.84375 1.1875 -7.25 C 1.1875 -8.757812 1.457031 -10.082031 2 -11.21875 C 2.550781 -12.351562 3.34375 -13.222656 4.375 -13.828125 C 5.40625 -14.441406 6.613281 -14.75 8 -14.75 C 9.414062 -14.75 10.832031 -14.40625 12.25 -13.71875 L 11.265625 -11.21875 C 10.722656 -11.46875 10.175781 -11.6875 9.625 -11.875 C 9.070312 -12.070312 8.53125 -12.171875 8 -12.171875 Z M 8 -12.171875"/></g><g id="j"><path d="M 16.03125 -8.546875 C 16.03125 -5.785156 15.242188 -3.671875 13.671875 -2.203125 C 12.097656 -0.734375 9.828125 0 6.859375 0 L 2.109375 0 L 2.109375 -16.78125 L 7.375 -16.78125 C 10.113281 -16.78125 12.238281 -16.054688 13.75 -14.609375 C 15.269531 -13.160156 16.03125 -11.140625 16.03125 -8.546875 Z M 12.328125 -8.453125 C 12.328125 -12.054688 10.738281 -13.859375 7.5625 -13.859375 L 5.671875 -13.859375 L 5.671875 -2.9375 L 7.1875 -2.9375 C 10.613281 -2.9375 12.328125 -4.773438 12.328125 -8.453125 Z M 12.328125 -8.453125"/></g><g id="k"><path d="M 5.671875 -9.328125 L 6.8125 -9.328125 C 7.9375 -9.328125 8.765625 -9.515625 9.296875 -9.890625 C 9.835938 -10.265625 10.109375 -10.851562 10.109375 -11.65625 C 10.109375 -12.457031 9.832031 -13.023438 9.28125 -13.359375 C 8.738281 -13.691406 7.894531 -13.859375 6.75 -13.859375 L 5.671875 -13.859375 Z M 5.671875 -6.4375 L 5.671875 0 L 2.109375 0 L 2.109375 -16.78125 L 7 -16.78125 C 9.28125 -16.78125 10.96875 -16.363281 12.0625 -15.53125 C 13.15625 -14.695312 13.703125 -13.4375 13.703125 -11.75 C 13.703125 -10.757812 13.429688 -9.878906 12.890625 -9.109375 C 12.347656 -8.347656 11.578125 -7.75 10.578125 -7.3125 C 13.097656 -3.539062 14.742188 -1.101562 15.515625 0 L 11.5625 0 L 7.5625 -6.4375 Z M 5.671875 -6.4375"/></g><g id="l"><path d="M 17.34375 -8.40625 C 17.34375 -5.632812 16.648438 -3.5 15.265625 -2 C 13.890625 -0.507812 11.921875 0.234375 9.359375 0.234375 C 6.785156 0.234375 4.804688 -0.507812 3.421875 -2 C 2.046875 -3.5 1.359375 -5.644531 1.359375 -8.4375 C 1.359375 -11.226562 2.050781 -13.359375 3.4375 -14.828125 C 4.820312 -16.304688 6.800781 -17.046875 9.375 -17.046875 C 11.945312 -17.046875 13.914062 -16.300781 15.28125 -14.8125 C 16.65625 -13.332031 17.34375 -11.195312 17.34375 -8.40625 Z M 5.09375 -8.40625 C 5.09375 -6.53125 5.445312 -5.117188 6.15625 -4.171875 C 6.875 -3.222656 7.941406 -2.75 9.359375 -2.75 C 12.191406 -2.75 13.609375 -4.632812 13.609375 -8.40625 C 13.609375 -12.1875 12.195312 -14.078125 9.375 -14.078125 C 7.957031 -14.078125 6.890625 -13.597656 6.171875 -12.640625 C 5.453125 -11.691406 5.09375 -10.28125 5.09375 -8.40625 Z M 5.09375 -8.40625"/></g><g id="m"><path d="M 15.765625 -16.78125 L 15.765625 -5.921875 C 15.765625 -4.679688 15.488281 -3.59375 14.9375 -2.65625 C 14.382812 -1.726562 13.582031 -1.015625 12.53125 -0.515625 C 11.476562 -0.015625 10.238281 0.234375 8.8125 0.234375 C 6.65625 0.234375 4.976562 -0.316406 3.78125 -1.421875 C 2.59375 -2.535156 2 -4.050781 2 -5.96875 L 2 -16.78125 L 5.546875 -16.78125 L 5.546875 -6.5 C 5.546875 -5.207031 5.804688 -4.257812 6.328125 -3.65625 C 6.847656 -3.050781 7.707031 -2.75 8.90625 -2.75 C 10.070312 -2.75 10.914062 -3.050781 11.4375 -3.65625 C 11.957031 -4.269531 12.21875 -5.226562 12.21875 -6.53125 L 12.21875 -16.78125 Z M 15.765625 -16.78125"/></g><g id="n"><path d="M 8.484375 -9.421875 L 15.140625 -9.421875 L 15.140625 -0.71875 C 14.054688 -0.363281 13.035156 -0.117188 12.078125 0.015625 C 11.128906 0.160156 10.160156 0.234375 9.171875 0.234375 C 6.640625 0.234375 4.703125 -0.507812 3.359375 -2 C 2.023438 -3.488281 1.359375 -5.625 1.359375 -8.40625 C 1.359375 -11.113281 2.132812 -13.222656 3.6875 -14.734375 C 5.238281 -16.253906 7.382812 -17.015625 10.125 -17.015625 C 11.851562 -17.015625 13.515625 -16.671875 15.109375 -15.984375 L 13.9375 -13.140625 C 12.707031 -13.753906 11.429688 -14.0625 10.109375 -14.0625 C 8.566406 -14.0625 7.332031 -13.539062 6.40625 -12.5 C 5.488281 -11.46875 5.03125 -10.082031 5.03125 -8.34375 C 5.03125 -6.519531 5.398438 -5.128906 6.140625 -4.171875 C 6.890625 -3.210938 7.972656 -2.734375 9.390625 -2.734375 C 10.140625 -2.734375 10.894531 -2.804688 11.65625 -2.953125 L 11.65625 -6.453125 L 8.484375 -6.453125 Z M 8.484375 -9.421875"/></g><g id="o"><path d="M 15.859375 0 L 12.3125 0 L 12.3125 -7.234375 L 5.671875 -7.234375 L 5.671875 0 L 2.109375 0 L 2.109375 -16.78125 L 5.671875 -16.78125 L 5.671875 -10.203125 L 12.3125 -10.203125 L 12.3125 -16.78125 L 15.859375 -16.78125 Z M 15.859375 0"/></g><g id="p"><path d="M 8.578125 0 L 5.03125 0 L 5.03125 -13.8125 L 0.46875 -13.8125 L 0.46875 -16.78125 L 13.140625 -16.78125 L 13.140625 -13.8125 L 8.578125 -13.8125 Z M 8.578125 0"/></g><g id="q"><path d="M 18.453125 0 L 14.40625 0 L 12.125 -8.8125 C 12.039062 -9.125 11.894531 -9.769531 11.6875 -10.75 C 11.488281 -11.738281 11.375 -12.398438 11.34375 -12.734375 C 11.300781 -12.328125 11.1875 -11.664062 11 -10.75 C 10.820312 -9.832031 10.679688 -9.179688 10.578125 -8.796875 L 8.3125 0 L 4.28125 0 L 0 -16.78125 L 3.5 -16.78125 L 5.640625 -7.625 C 6.015625 -5.925781 6.285156 -4.457031 6.453125 -3.21875 C 6.503906 -3.65625 6.609375 -4.332031 6.765625 -5.25 C 6.929688 -6.164062 7.085938 -6.875 7.234375 -7.375 L 9.6875 -16.78125 L 13.046875 -16.78125 L 15.484375 -7.375 C 15.597656 -6.957031 15.734375 -6.316406 15.890625 -5.453125 C 16.054688 -4.585938 16.179688 -3.84375 16.265625 -3.21875 C 16.335938 -3.820312 16.457031 -4.566406 16.625 -5.453125 C 16.789062 -6.347656 16.941406 -7.070312 17.078125 -7.625 L 19.21875 -16.78125 L 22.71875 -16.78125 Z M 18.453125 0"/></g><g id="r"><path d="M 12.375 0 L 11.171875 -4 L 5.046875 -4 L 3.828125 0 L 0 0 L 5.921875 -16.84375 L 10.265625 -16.84375 L 16.21875 0 Z M 10.3125 -6.984375 C 9.1875 -10.597656 8.550781 -12.640625 8.40625 -13.109375 C 8.269531 -13.585938 8.171875 -13.960938 8.109375 -14.234375 C 7.859375 -13.253906 7.132812 -10.835938 5.9375 -6.984375 Z M 10.3125 -6.984375"/></g><g id="s"><path d="M 9.234375 -14.0625 C 7.898438 -14.0625 6.863281 -13.554688 6.125 -12.546875 C 5.394531 -11.535156 5.03125 -10.132812 5.03125 -8.34375 C 5.03125 -4.601562 6.429688 -2.734375 9.234375 -2.734375 C 10.410156 -2.734375 11.835938 -3.023438 13.515625 -3.609375 L 13.515625 -0.625 C 12.140625 -0.0507812 10.601562 0.234375 8.90625 0.234375 C 6.46875 0.234375 4.597656 -0.503906 3.296875 -1.984375 C 2.003906 -3.472656 1.359375 -5.597656 1.359375 -8.359375 C 1.359375 -10.109375 1.675781 -11.640625 2.3125 -12.953125 C 2.945312 -14.265625 3.859375 -15.269531 5.046875 -15.96875 C 6.242188 -16.664062 7.640625 -17.015625 9.234375 -17.015625 C 10.867188 -17.015625 12.503906 -16.617188 14.140625 -15.828125 L 13 -12.9375 C 12.375 -13.238281 11.742188 -13.5 11.109375 -13.71875 C 10.472656 -13.945312 9.847656 -14.0625 9.234375 -14.0625 Z M 9.234375 -14.0625"/></g><clipPath id="t"><path d="M 0.4375 0.0742188 L 17 0.0742188 L 17 17 L 0.4375 17 Z M 0.4375 0.0742188"/></clipPath><clipPath id="u"><path d="M 207.550781 95.113281 L 224.324219 95.113281 L 224.324219 111.992188 L 207.550781 111.992188 Z M 207.550781 95.113281"/></clipPath><clipPath id="v"><path d="M 207.550781 0 L 224.324219 0 L 224.324219 17 L 207.550781 17 Z M 207.550781 0"/></clipPath><clipPath id="w"><path d="M 0.4375 95.1875 L 17 95.1875 L 17 112 L 0.4375 112 Z M 0.4375 95.1875"/></clipPath></defs><g fill="#FFF"><use x="51.729" y="39.572" xmlns:xlink="http://www.w3.org/1999/xlink" xlink:href="#a" xlink:type="simple" xlink:actuate="onLoad" xlink:show="embed"/></g><g fill="#FFF"><use x="62.658" y="39.572" xmlns:xlink="http://www.w3.org/1999/xlink" xlink:href="#b" xlink:type="simple" xlink:actuate="onLoad" xlink:show="embed"/></g><g fill="#FFF"><use x="76.23" y="39.572" xmlns:xlink="http://www.w3.org/1999/xlink" xlink:href="#c" xlink:type="simple" xlink:actuate="onLoad" xlink:show="embed"/></g><g fill="#FFF"><use x="86.969" y="39.572" xmlns:xlink="http://www.w3.org/1999/xlink" xlink:href="#d" xlink:type="simple" xlink:actuate="onLoad" xlink:show="embed"/></g><g fill="#FFF"><use x="98.286" y="39.572" xmlns:xlink="http://www.w3.org/1999/xlink" xlink:href="#e" xlink:type="simple" xlink:actuate="onLoad" xlink:show="embed"/></g><g fill="#FFF"><use x="103.104" y="39.572" xmlns:xlink="http://www.w3.org/1999/xlink" xlink:href="#b" xlink:type="simple" xlink:actuate="onLoad" xlink:show="embed"/></g><g fill="#FFF"><use x="116.675" y="39.572" xmlns:xlink="http://www.w3.org/1999/xlink" xlink:href="#f" xlink:type="simple" xlink:actuate="onLoad" xlink:show="embed"/></g><g fill="#FFF"><use x="127.375" y="39.572" xmlns:xlink="http://www.w3.org/1999/xlink" xlink:href="#g" xlink:type="simple" xlink:actuate="onLoad" xlink:show="embed"/></g><g fill="#FFF"><use x="140.341" y="39.572" xmlns:xlink="http://www.w3.org/1999/xlink" xlink:href="#h" xlink:type="simple" xlink:actuate="onLoad" xlink:show="embed"/></g><g fill="#FFF"><use x="146.61" y="39.572" xmlns:xlink="http://www.w3.org/1999/xlink" xlink:href="#i" xlink:type="simple" xlink:actuate="onLoad" xlink:show="embed"/></g><g fill="#FFF"><use x="159.108" y="39.572" xmlns:xlink="http://www.w3.org/1999/xlink" xlink:href="#b" xlink:type="simple" xlink:actuate="onLoad" xlink:show="embed"/></g><g fill="#F5C10D"><use x="51.803" y="63.5" xmlns:xlink="http://www.w3.org/1999/xlink" xlink:href="#j" xlink:type="simple" xlink:actuate="onLoad" xlink:show="embed"/></g><g fill="#F5C10D"><use x="69.602" y="63.5" xmlns:xlink="http://www.w3.org/1999/xlink" xlink:href="#k" xlink:type="simple" xlink:actuate="onLoad" xlink:show="embed"/></g><g fill="#F5C10D"><use x="85.518" y="63.5" xmlns:xlink="http://www.w3.org/1999/xlink" xlink:href="#l" xlink:type="simple" xlink:actuate="onLoad" xlink:show="embed"/></g><g fill="#F5C10D"><use x="104.625" y="63.5" xmlns:xlink="http://www.w3.org/1999/xlink" xlink:href="#m" xlink:type="simple" xlink:actuate="onLoad" xlink:show="embed"/></g><g fill="#F5C10D"><use x="122.791" y="63.5" xmlns:xlink="http://www.w3.org/1999/xlink" xlink:href="#n" xlink:type="simple" xlink:actuate="onLoad" xlink:show="embed"/></g><g fill="#F5C10D"><use x="140.211" y="63.5" xmlns:xlink="http://www.w3.org/1999/xlink" xlink:href="#o" xlink:type="simple" xlink:actuate="onLoad" xlink:show="embed"/></g><g fill="#F5C10D"><use x="158.594" y="63.5" xmlns:xlink="http://www.w3.org/1999/xlink" xlink:href="#p" xlink:type="simple" xlink:actuate="onLoad" xlink:show="embed"/></g><g fill="#F5C10D"><use x="69.449" y="87.691" xmlns:xlink="http://www.w3.org/1999/xlink" xlink:href="#q" xlink:type="simple" xlink:actuate="onLoad" xlink:show="embed"/></g><g fill="#F5C10D"><use x="92.173" y="87.691" xmlns:xlink="http://www.w3.org/1999/xlink" xlink:href="#r" xlink:type="simple" xlink:actuate="onLoad" xlink:show="embed"/></g><g fill="#F5C10D"><use x="108.39" y="87.691" xmlns:xlink="http://www.w3.org/1999/xlink" xlink:href="#p" xlink:type="simple" xlink:actuate="onLoad" xlink:show="embed"/></g><g fill="#F5C10D"><use x="122.002" y="87.691" xmlns:xlink="http://www.w3.org/1999/xlink" xlink:href="#s" xlink:type="simple" xlink:actuate="onLoad" xlink:show="embed"/></g><g fill="#F5C10D"><use x="136.979" y="87.691" xmlns:xlink="http://www.w3.org/1999/xlink" xlink:href="#o" xlink:type="simple" xlink:actuate="onLoad" xlink:show="embed"/></g><g clip-path="url(#t)"><path fill="#FFF" d="M 1.238281 0.0625 C 0.679688 0.117188 0.203125 0.550781 0.125 1.101562 C 0.117188 1.171875 0.117188 1.191406 0.113281 1.261719 L 0.113281 15.722656 C 0.117188 15.792969 0.117188 15.808594 0.125 15.886719 C 0.234375 16.683594 1.289062 17.210938 2.011719 16.703125 C 2.28125 16.511719 2.46875 16.207031 2.515625 15.886719 C 2.523438 15.808594 2.519531 15.792969 2.523438 15.722656 L 2.523438 2.46875 L 15.855469 2.46875 C 15.925781 2.457031 15.945312 2.457031 16.019531 2.445312 C 16.6875 2.304688 17.140625 1.519531 16.90625 0.863281 C 16.761719 0.449219 16.371094 0.132812 15.9375 0.0703125 C 15.867188 0.0625 15.847656 0.0625 15.773438 0.0625 L 1.316406 0.0625 C 1.289062 0.0625 1.265625 0.0625 1.238281 0.0625"/></g><g clip-path="url(#u)"><path fill="#FFF" d="M 223.5625 112.007812 C 224.121094 111.953125 224.601562 111.519531 224.675781 110.964844 C 224.683594 110.894531 224.683594 110.878906 224.6875 110.808594 L 224.6875 96.347656 C 224.683594 96.277344 224.683594 96.257812 224.675781 96.183594 C 224.566406 95.386719 223.511719 94.855469 222.789062 95.367188 C 222.523438 95.554688 222.335938 95.859375 222.289062 96.183594 C 222.277344 96.257812 222.28125 96.277344 222.277344 96.347656 L 222.277344 109.601562 L 208.945312 109.601562 C 208.875 109.609375 208.855469 109.609375 208.78125 109.625 C 208.113281 109.765625 207.660156 110.550781 207.894531 111.207031 C 208.039062 111.617188 208.429688 111.9375 208.867188 112 C 208.9375 112.007812 208.953125 112.007812 209.03125 112.007812 L 223.484375 112.007812 C 223.511719 112.007812 223.535156 112.007812 223.5625 112.007812"/></g><g clip-path="url(#v)"><path fill="#FFF" d="M 223.5625 -0.015625 C 224.121094 0.0429688 224.601562 0.472656 224.675781 1.027344 C 224.683594 1.097656 224.683594 1.117188 224.6875 1.1875 L 224.6875 15.644531 C 224.683594 15.714844 224.683594 15.734375 224.675781 15.808594 C 224.566406 16.605469 223.511719 17.136719 222.789062 16.625 C 222.523438 16.4375 222.335938 16.132812 222.289062 15.808594 C 222.277344 15.734375 222.28125 15.714844 222.277344 15.644531 L 222.277344 2.390625 L 208.945312 2.390625 C 208.875 2.382812 208.855469 2.382812 208.78125 2.367188 C 208.113281 2.226562 207.660156 1.445312 207.894531 0.789062 C 208.039062 0.375 208.429688 0.0546875 208.867188 -0.00390625 C 208.9375 -0.015625 208.953125 -0.015625 209.03125 -0.015625 L 223.484375 -0.015625 C 223.511719 -0.015625 223.535156 -0.015625 223.5625 -0.015625"/></g><g clip-path="url(#w)"><path fill="#FFF" d="M 1.238281 112.011719 C 0.679688 111.957031 0.203125 111.527344 0.125 110.972656 C 0.117188 110.902344 0.117188 110.882812 0.113281 110.8125 L 0.113281 96.355469 C 0.117188 96.285156 0.117188 96.265625 0.125 96.191406 C 0.234375 95.390625 1.289062 94.863281 2.011719 95.375 C 2.28125 95.5625 2.46875 95.867188 2.515625 96.191406 C 2.523438 96.265625 2.519531 96.285156 2.523438 96.355469 L 2.523438 109.605469 L 15.855469 109.605469 C 15.925781 109.617188 15.945312 109.617188 16.019531 109.628906 C 16.6875 109.769531 17.140625 110.554688 16.90625 111.210938 C 16.761719 111.625 16.371094 111.941406 15.9375 112.003906 C 15.867188 112.011719 15.847656 112.011719 15.773438 112.011719 L 1.316406 112.011719 C 1.289062 112.011719 1.265625 112.011719 1.238281 112.011719"/></g></svg>