<svg xmlns="http://www.w3.org/2000/svg" xmlns:xlink="http://www.w3.org/1999/xlink" width="224.88" viewBox="0 0 224.88 112.5" height="112.5" version="1.0"><defs><g id="a"><path d="M 8.921875 0 L 1.59375 0 L 1.59375 -12.703125 L 8.921875 -12.703125 L 8.921875 -10.5 L 4.296875 -10.5 L 4.296875 -7.703125 L 8.59375 -7.703125 L 8.59375 -5.5 L 4.296875 -5.5 L 4.296875 -2.21875 L 8.921875 -2.21875 Z M 8.921875 0"/></g><g id="b"><path d="M 9.375 0 L 8.453125 -3.03125 L 3.828125 -3.03125 L 2.90625 0 L 0 0 L 4.484375 -12.75 L 7.78125 -12.75 L 12.28125 0 Z M 7.8125 -5.28125 C 6.957031 -8.019531 6.476562 -9.566406 6.375 -9.921875 C 6.269531 -10.285156 6.191406 -10.570312 6.140625 -10.78125 C 5.953125 -10.039062 5.40625 -8.207031 4.5 -5.28125 Z M 7.8125 -5.28125"/></g><g id="c"><path d="M 9.09375 -3.53125 C 9.09375 -2.382812 8.679688 -1.476562 7.859375 -0.8125 C 7.035156 -0.15625 5.890625 0.171875 4.421875 0.171875 C 3.054688 0.171875 1.851562 -0.0820312 0.8125 -0.59375 L 0.8125 -3.09375 C 1.675781 -2.707031 2.40625 -2.4375 3 -2.28125 C 3.59375 -2.125 4.132812 -2.046875 4.625 -2.046875 C 5.21875 -2.046875 5.671875 -2.160156 5.984375 -2.390625 C 6.296875 -2.617188 6.453125 -2.953125 6.453125 -3.390625 C 6.453125 -3.640625 6.382812 -3.863281 6.25 -4.0625 C 6.113281 -4.257812 5.910156 -4.445312 5.640625 -4.625 C 5.367188 -4.800781 4.816406 -5.085938 3.984375 -5.484375 C 3.210938 -5.847656 2.628906 -6.195312 2.234375 -6.53125 C 1.847656 -6.863281 1.539062 -7.253906 1.3125 -7.703125 C 1.082031 -8.148438 0.96875 -8.671875 0.96875 -9.265625 C 0.96875 -10.390625 1.347656 -11.273438 2.109375 -11.921875 C 2.867188 -12.566406 3.921875 -12.890625 5.265625 -12.890625 C 5.921875 -12.890625 6.550781 -12.8125 7.15625 -12.65625 C 7.757812 -12.5 8.382812 -12.273438 9.03125 -11.984375 L 8.171875 -9.890625 C 7.492188 -10.171875 6.929688 -10.363281 6.484375 -10.46875 C 6.046875 -10.582031 5.609375 -10.640625 5.171875 -10.640625 C 4.671875 -10.640625 4.28125 -10.519531 4 -10.28125 C 3.726562 -10.050781 3.59375 -9.742188 3.59375 -9.359375 C 3.59375 -9.117188 3.644531 -8.910156 3.75 -8.734375 C 3.863281 -8.554688 4.039062 -8.382812 4.28125 -8.21875 C 4.53125 -8.0625 5.101562 -7.765625 6 -7.328125 C 7.1875 -6.765625 8 -6.195312 8.4375 -5.625 C 8.875 -5.050781 9.09375 -4.351562 9.09375 -3.53125 Z M 9.09375 -3.53125"/></g><g id="d"><path d="M 6.5 0 L 3.8125 0 L 3.8125 -10.46875 L 0.359375 -10.46875 L 0.359375 -12.703125 L 9.953125 -12.703125 L 9.953125 -10.46875 L 6.5 -10.46875 Z M 6.5 0"/></g><g id="f"><path d="M 4.25 0 L 1.59375 0 L 1.59375 -12.703125 L 8.875 -12.703125 L 8.875 -10.5 L 4.25 -10.5 L 4.25 -7.21875 L 8.5625 -7.21875 L 8.5625 -5.015625 L 4.25 -5.015625 Z M 4.25 0"/></g><g id="g"><path d="M 4.296875 -7.0625 L 5.15625 -7.0625 C 6.007812 -7.0625 6.640625 -7.203125 7.046875 -7.484375 C 7.453125 -7.773438 7.65625 -8.222656 7.65625 -8.828125 C 7.65625 -9.429688 7.445312 -9.859375 7.03125 -10.109375 C 6.613281 -10.367188 5.972656 -10.5 5.109375 -10.5 L 4.296875 -10.5 Z M 4.296875 -4.875 L 4.296875 0 L 1.59375 0 L 1.59375 -12.703125 L 5.296875 -12.703125 C 7.023438 -12.703125 8.300781 -12.382812 9.125 -11.75 C 9.957031 -11.125 10.375 -10.175781 10.375 -8.90625 C 10.375 -8.15625 10.164062 -7.488281 9.75 -6.90625 C 9.34375 -6.320312 8.765625 -5.863281 8.015625 -5.53125 C 9.921875 -2.675781 11.164062 -0.832031 11.75 0 L 8.765625 0 L 5.734375 -4.875 Z M 4.296875 -4.875"/></g><g id="h"><path d="M 1.59375 0 L 1.59375 -12.703125 L 4.296875 -12.703125 L 4.296875 0 Z M 1.59375 0"/></g><g id="i"><path d="M 7 -10.640625 C 5.976562 -10.640625 5.191406 -10.257812 4.640625 -9.5 C 4.085938 -8.738281 3.8125 -7.675781 3.8125 -6.3125 C 3.8125 -3.476562 4.875 -2.0625 7 -2.0625 C 7.882812 -2.0625 8.960938 -2.285156 10.234375 -2.734375 L 10.234375 -0.484375 C 9.191406 -0.046875 8.03125 0.171875 6.75 0.171875 C 4.894531 0.171875 3.476562 -0.382812 2.5 -1.5 C 1.519531 -2.625 1.03125 -4.234375 1.03125 -6.328125 C 1.03125 -7.648438 1.269531 -8.804688 1.75 -9.796875 C 2.238281 -10.796875 2.929688 -11.5625 3.828125 -12.09375 C 4.722656 -12.625 5.78125 -12.890625 7 -12.890625 C 8.226562 -12.890625 9.46875 -12.585938 10.71875 -11.984375 L 9.84375 -9.796875 C 9.375 -10.023438 8.894531 -10.222656 8.40625 -10.390625 C 7.925781 -10.554688 7.457031 -10.640625 7 -10.640625 Z M 7 -10.640625"/></g><g id="j"><path d="M 14.015625 -7.46875 C 14.015625 -5.0625 13.328125 -3.210938 11.953125 -1.921875 C 10.578125 -0.640625 8.59375 0 6 0 L 1.84375 0 L 1.84375 -14.671875 L 6.453125 -14.671875 C 8.847656 -14.671875 10.707031 -14.035156 12.03125 -12.765625 C 13.351562 -11.503906 14.015625 -9.738281 14.015625 -7.46875 Z M 10.78125 -7.390625 C 10.78125 -10.546875 9.390625 -12.125 6.609375 -12.125 L 4.953125 -12.125 L 4.953125 -2.5625 L 6.296875 -2.5625 C 9.285156 -2.5625 10.78125 -4.171875 10.78125 -7.390625 Z M 10.78125 -7.390625"/></g><g id="k"><path d="M 4.953125 -8.15625 L 5.953125 -8.15625 C 6.941406 -8.15625 7.671875 -8.316406 8.140625 -8.640625 C 8.609375 -8.972656 8.84375 -9.488281 8.84375 -10.1875 C 8.84375 -10.882812 8.601562 -11.378906 8.125 -11.671875 C 7.644531 -11.972656 6.90625 -12.125 5.90625 -12.125 L 4.953125 -12.125 Z M 4.953125 -5.625 L 4.953125 0 L 1.84375 0 L 1.84375 -14.671875 L 6.125 -14.671875 C 8.113281 -14.671875 9.585938 -14.304688 10.546875 -13.578125 C 11.503906 -12.847656 11.984375 -11.75 11.984375 -10.28125 C 11.984375 -9.414062 11.742188 -8.644531 11.265625 -7.96875 C 10.785156 -7.300781 10.113281 -6.773438 9.25 -6.390625 C 11.457031 -3.085938 12.894531 -0.957031 13.5625 0 L 10.109375 0 L 6.609375 -5.625 Z M 4.953125 -5.625"/></g><g id="l"><path d="M 15.15625 -7.359375 C 15.15625 -4.929688 14.550781 -3.0625 13.34375 -1.75 C 12.144531 -0.445312 10.421875 0.203125 8.171875 0.203125 C 5.929688 0.203125 4.207031 -0.445312 3 -1.75 C 1.789062 -3.0625 1.1875 -4.9375 1.1875 -7.375 C 1.1875 -9.8125 1.789062 -11.675781 3 -12.96875 C 4.207031 -14.257812 5.941406 -14.90625 8.203125 -14.90625 C 10.453125 -14.90625 12.171875 -14.253906 13.359375 -12.953125 C 14.554688 -11.648438 15.15625 -9.785156 15.15625 -7.359375 Z M 4.453125 -7.359375 C 4.453125 -5.710938 4.765625 -4.472656 5.390625 -3.640625 C 6.015625 -2.816406 6.941406 -2.40625 8.171875 -2.40625 C 10.660156 -2.40625 11.90625 -4.054688 11.90625 -7.359375 C 11.90625 -10.660156 10.671875 -12.3125 8.203125 -12.3125 C 6.960938 -12.3125 6.023438 -11.894531 5.390625 -11.0625 C 4.765625 -10.226562 4.453125 -8.992188 4.453125 -7.359375 Z M 4.453125 -7.359375"/></g><g id="m"><path d="M 13.78125 -14.671875 L 13.78125 -5.171875 C 13.78125 -4.085938 13.535156 -3.140625 13.046875 -2.328125 C 12.566406 -1.515625 11.867188 -0.890625 10.953125 -0.453125 C 10.035156 -0.015625 8.953125 0.203125 7.703125 0.203125 C 5.816406 0.203125 4.351562 -0.28125 3.3125 -1.25 C 2.269531 -2.21875 1.75 -3.539062 1.75 -5.21875 L 1.75 -14.671875 L 4.84375 -14.671875 L 4.84375 -5.6875 C 4.84375 -4.5625 5.066406 -3.734375 5.515625 -3.203125 C 5.972656 -2.671875 6.726562 -2.40625 7.78125 -2.40625 C 8.800781 -2.40625 9.539062 -2.671875 10 -3.203125 C 10.457031 -3.734375 10.6875 -4.566406 10.6875 -5.703125 L 10.6875 -14.671875 Z M 13.78125 -14.671875"/></g><g id="n"><path d="M 7.421875 -8.234375 L 13.234375 -8.234375 L 13.234375 -0.625 C 12.285156 -0.320312 11.394531 -0.109375 10.5625 0.015625 C 9.738281 0.140625 8.890625 0.203125 8.015625 0.203125 C 5.796875 0.203125 4.101562 -0.445312 2.9375 -1.75 C 1.769531 -3.050781 1.1875 -4.921875 1.1875 -7.359375 C 1.1875 -9.722656 1.863281 -11.566406 3.21875 -12.890625 C 4.570312 -14.210938 6.453125 -14.875 8.859375 -14.875 C 10.359375 -14.875 11.8125 -14.570312 13.21875 -13.96875 L 12.171875 -11.484375 C 11.109375 -12.023438 10 -12.296875 8.84375 -12.296875 C 7.5 -12.296875 6.421875 -11.84375 5.609375 -10.9375 C 4.796875 -10.03125 4.390625 -8.816406 4.390625 -7.296875 C 4.390625 -5.703125 4.710938 -4.484375 5.359375 -3.640625 C 6.015625 -2.804688 6.96875 -2.390625 8.21875 -2.390625 C 8.863281 -2.390625 9.519531 -2.457031 10.1875 -2.59375 L 10.1875 -5.640625 L 7.421875 -5.640625 Z M 7.421875 -8.234375"/></g><g id="o"><path d="M 13.859375 0 L 10.765625 0 L 10.765625 -6.328125 L 4.953125 -6.328125 L 4.953125 0 L 1.84375 0 L 1.84375 -14.671875 L 4.953125 -14.671875 L 4.953125 -8.921875 L 10.765625 -8.921875 L 10.765625 -14.671875 L 13.859375 -14.671875 Z M 13.859375 0"/></g><g id="p"><path d="M 7.5 0 L 4.390625 0 L 4.390625 -12.078125 L 0.40625 -12.078125 L 0.40625 -14.671875 L 11.484375 -14.671875 L 11.484375 -12.078125 L 7.5 -12.078125 Z M 7.5 0"/></g><g id="q"><path d="M 16.125 0 L 12.59375 0 L 10.609375 -7.703125 C 10.535156 -7.972656 10.410156 -8.535156 10.234375 -9.390625 C 10.054688 -10.253906 9.953125 -10.835938 9.921875 -11.140625 C 9.878906 -10.773438 9.773438 -10.191406 9.609375 -9.390625 C 9.453125 -8.597656 9.332031 -8.03125 9.25 -7.6875 L 7.28125 0 L 3.734375 0 L 0 -14.671875 L 3.0625 -14.671875 L 4.9375 -6.65625 C 5.257812 -5.175781 5.492188 -3.894531 5.640625 -2.8125 C 5.679688 -3.195312 5.773438 -3.785156 5.921875 -4.578125 C 6.066406 -5.378906 6.203125 -6.003906 6.328125 -6.453125 L 8.46875 -14.671875 L 11.40625 -14.671875 L 13.546875 -6.453125 C 13.640625 -6.085938 13.753906 -5.523438 13.890625 -4.765625 C 14.035156 -4.003906 14.144531 -3.351562 14.21875 -2.8125 C 14.28125 -3.34375 14.382812 -3.992188 14.53125 -4.765625 C 14.6875 -5.546875 14.820312 -6.175781 14.9375 -6.65625 L 16.8125 -14.671875 L 19.859375 -14.671875 Z M 16.125 0"/></g><g id="r"><path d="M 10.828125 0 L 9.765625 -3.484375 L 4.421875 -3.484375 L 3.34375 0 L 0 0 L 5.171875 -14.734375 L 8.984375 -14.734375 L 14.171875 0 Z M 9.015625 -6.09375 C 8.035156 -9.257812 7.484375 -11.050781 7.359375 -11.46875 C 7.234375 -11.882812 7.144531 -12.210938 7.09375 -12.453125 C 6.875 -11.597656 6.242188 -9.476562 5.203125 -6.09375 Z M 9.015625 -6.09375"/></g><g id="s"><path d="M 8.078125 -12.296875 C 6.910156 -12.296875 6.003906 -11.851562 5.359375 -10.96875 C 4.710938 -10.09375 4.390625 -8.867188 4.390625 -7.296875 C 4.390625 -4.023438 5.617188 -2.390625 8.078125 -2.390625 C 9.109375 -2.390625 10.351562 -2.644531 11.8125 -3.15625 L 11.8125 -0.546875 C 10.613281 -0.046875 9.269531 0.203125 7.78125 0.203125 C 5.644531 0.203125 4.007812 -0.441406 2.875 -1.734375 C 1.75 -3.035156 1.1875 -4.894531 1.1875 -7.3125 C 1.1875 -8.832031 1.460938 -10.164062 2.015625 -11.3125 C 2.578125 -12.46875 3.378906 -13.347656 4.421875 -13.953125 C 5.460938 -14.566406 6.679688 -14.875 8.078125 -14.875 C 9.503906 -14.875 10.9375 -14.53125 12.375 -13.84375 L 11.359375 -11.3125 C 10.816406 -11.570312 10.265625 -11.800781 9.703125 -12 C 9.148438 -12.195312 8.609375 -12.296875 8.078125 -12.296875 Z M 8.078125 -12.296875"/></g><clipPath id="t"><path d="M 0.4375 0.0742188 L 17 0.0742188 L 17 17 L 0.4375 17 Z M 0.4375 0.0742188"/></clipPath><clipPath id="u"><path d="M 207.550781 95.113281 L 224.324219 95.113281 L 224.324219 111.992188 L 207.550781 111.992188 Z M 207.550781 95.113281"/></clipPath><clipPath id="v"><path d="M 207.550781 0 L 224.324219 0 L 224.324219 17 L 207.550781 17 Z M 207.550781 0"/></clipPath><clipPath id="w"><path d="M 0.4375 95.1875 L 17 95.1875 L 17 112 L 0.4375 112 Z M 0.4375 95.1875"/></clipPath></defs><g fill="#FFF"><use x="59.361" y="41.638" xmlns:xlink="http://www.w3.org/1999/xlink" xlink:href="#a" xlink:type="simple" xlink:actuate="onLoad" xlink:show="embed"/></g><g fill="#FFF"><use x="68.916" y="41.638" xmlns:xlink="http://www.w3.org/1999/xlink" xlink:href="#b" xlink:type="simple" xlink:actuate="onLoad" xlink:show="embed"/></g><g fill="#FFF"><use x="80.781" y="41.638" xmlns:xlink="http://www.w3.org/1999/xlink" xlink:href="#c" xlink:type="simple" xlink:actuate="onLoad" xlink:show="embed"/></g><g fill="#FFF"><use x="90.171" y="41.638" xmlns:xlink="http://www.w3.org/1999/xlink" xlink:href="#d" xlink:type="simple" xlink:actuate="onLoad" xlink:show="embed"/></g><g fill="#FFF"><use x="100.065" y="41.638" xmlns:xlink="http://www.w3.org/1999/xlink" xlink:href="#e" xlink:type="simple" xlink:actuate="onLoad" xlink:show="embed"/></g><g fill="#FFF"><use x="104.277" y="41.638" xmlns:xlink="http://www.w3.org/1999/xlink" xlink:href="#b" xlink:type="simple" xlink:actuate="onLoad" xlink:show="embed"/></g><g fill="#FFF"><use x="116.143" y="41.638" xmlns:xlink="http://www.w3.org/1999/xlink" xlink:href="#f" xlink:type="simple" xlink:actuate="onLoad" xlink:show="embed"/></g><g fill="#FFF"><use x="125.498" y="41.638" xmlns:xlink="http://www.w3.org/1999/xlink" xlink:href="#g" xlink:type="simple" xlink:actuate="onLoad" xlink:show="embed"/></g><g fill="#FFF"><use x="136.834" y="41.638" xmlns:xlink="http://www.w3.org/1999/xlink" xlink:href="#h" xlink:type="simple" xlink:actuate="onLoad" xlink:show="embed"/></g><g fill="#FFF"><use x="142.314" y="41.638" xmlns:xlink="http://www.w3.org/1999/xlink" xlink:href="#i" xlink:type="simple" xlink:actuate="onLoad" xlink:show="embed"/></g><g fill="#FFF"><use x="153.242" y="41.638" xmlns:xlink="http://www.w3.org/1999/xlink" xlink:href="#b" xlink:type="simple" xlink:actuate="onLoad" xlink:show="embed"/></g><g fill="#F5C10D"><use x="59.426" y="62.558" xmlns:xlink="http://www.w3.org/1999/xlink" xlink:href="#j" xlink:type="simple" xlink:actuate="onLoad" xlink:show="embed"/></g><g fill="#F5C10D"><use x="74.987" y="62.558" xmlns:xlink="http://www.w3.org/1999/xlink" xlink:href="#k" xlink:type="simple" xlink:actuate="onLoad" xlink:show="embed"/></g><g fill="#F5C10D"><use x="88.902" y="62.558" xmlns:xlink="http://www.w3.org/1999/xlink" xlink:href="#l" xlink:type="simple" xlink:actuate="onLoad" xlink:show="embed"/></g><g fill="#F5C10D"><use x="105.607" y="62.558" xmlns:xlink="http://www.w3.org/1999/xlink" xlink:href="#m" xlink:type="simple" xlink:actuate="onLoad" xlink:show="embed"/></g><g fill="#F5C10D"><use x="121.49" y="62.558" xmlns:xlink="http://www.w3.org/1999/xlink" xlink:href="#n" xlink:type="simple" xlink:actuate="onLoad" xlink:show="embed"/></g><g fill="#F5C10D"><use x="136.72" y="62.558" xmlns:xlink="http://www.w3.org/1999/xlink" xlink:href="#o" xlink:type="simple" xlink:actuate="onLoad" xlink:show="embed"/></g><g fill="#F5C10D"><use x="152.792" y="62.558" xmlns:xlink="http://www.w3.org/1999/xlink" xlink:href="#p" xlink:type="simple" xlink:actuate="onLoad" xlink:show="embed"/></g><g fill="#F5C10D"><use x="74.853" y="83.707" xmlns:xlink="http://www.w3.org/1999/xlink" xlink:href="#q" xlink:type="simple" xlink:actuate="onLoad" xlink:show="embed"/></g><g fill="#F5C10D"><use x="94.721" y="83.707" xmlns:xlink="http://www.w3.org/1999/xlink" xlink:href="#r" xlink:type="simple" xlink:actuate="onLoad" xlink:show="embed"/></g><g fill="#F5C10D"><use x="108.899" y="83.707" xmlns:xlink="http://www.w3.org/1999/xlink" xlink:href="#p" xlink:type="simple" xlink:actuate="onLoad" xlink:show="embed"/></g><g fill="#F5C10D"><use x="120.8" y="83.707" xmlns:xlink="http://www.w3.org/1999/xlink" xlink:href="#s" xlink:type="simple" xlink:actuate="onLoad" xlink:show="embed"/></g><g fill="#F5C10D"><use x="133.894" y="83.707" xmlns:xlink="http://www.w3.org/1999/xlink" xlink:href="#o" xlink:type="simple" xlink:actuate="onLoad" xlink:show="embed"/></g><g clip-path="url(#t)"><path fill="#FFF" d="M 1.238281 0.0625 C 0.679688 0.117188 0.203125 0.550781 0.125 1.101562 C 0.117188 1.171875 0.117188 1.191406 0.113281 1.261719 L 0.113281 15.722656 C 0.117188 15.792969 0.117188 15.808594 0.125 15.886719 C 0.234375 16.683594 1.289062 17.210938 2.011719 16.703125 C 2.28125 16.511719 2.46875 16.207031 2.515625 15.886719 C 2.523438 15.808594 2.519531 15.792969 2.523438 15.722656 L 2.523438 2.46875 L 15.855469 2.46875 C 15.925781 2.457031 15.945312 2.457031 16.019531 2.445312 C 16.6875 2.304688 17.140625 1.519531 16.90625 0.863281 C 16.761719 0.449219 16.371094 0.132812 15.9375 0.0703125 C 15.867188 0.0625 15.847656 0.0625 15.773438 0.0625 L 1.316406 0.0625 C 1.289062 0.0625 1.265625 0.0625 1.238281 0.0625"/></g><g clip-path="url(#u)"><path fill="#FFF" d="M 223.5625 112.007812 C 224.121094 111.953125 224.601562 111.519531 224.675781 110.964844 C 224.683594 110.894531 224.683594 110.878906 224.6875 110.808594 L 224.6875 96.347656 C 224.683594 96.277344 224.683594 96.257812 224.675781 96.183594 C 224.566406 95.386719 223.511719 94.855469 222.789062 95.367188 C 222.523438 95.554688 222.335938 95.859375 222.289062 96.183594 C 222.277344 96.257812 222.28125 96.277344 222.277344 96.347656 L 222.277344 109.601562 L 208.945312 109.601562 C 208.875 109.609375 208.855469 109.609375 208.78125 109.625 C 208.113281 109.765625 207.660156 110.550781 207.894531 111.207031 C 208.039062 111.617188 208.429688 111.9375 208.867188 112 C 208.9375 112.007812 208.953125 112.007812 209.03125 112.007812 L 223.484375 112.007812 C 223.511719 112.007812 223.535156 112.007812 223.5625 112.007812"/></g><g clip-path="url(#v)"><path fill="#FFF" d="M 223.5625 -0.015625 C 224.121094 0.0429688 224.601562 0.472656 224.675781 1.027344 C 224.683594 1.097656 224.683594 1.117188 224.6875 1.1875 L 224.6875 15.644531 C 224.683594 15.714844 224.683594 15.734375 224.675781 15.808594 C 224.566406 16.605469 223.511719 17.136719 222.789062 16.625 C 222.523438 16.4375 222.335938 16.132812 222.289062 15.808594 C 222.277344 15.734375 222.28125 15.714844 222.277344 15.644531 L 222.277344 2.390625 L 208.945312 2.390625 C 208.875 2.382812 208.855469 2.382812 208.78125 2.367188 C 208.113281 2.226562 207.660156 1.445312 207.894531 0.789062 C 208.039062 0.375 208.429688 0.0546875 208.867188 -0.00390625 C 208.9375 -0.015625 208.953125 -0.015625 209.03125 -0.015625 L 223.484375 -0.015625 C 223.511719 -0.015625 223.535156 -0.015625 223.5625 -0.015625"/></g><g clip-path="url(#w)"><path fill="#FFF" d="M 1.238281 112.011719 C 0.679688 111.957031 0.203125 111.527344 0.125 110.972656 C 0.117188 110.902344 0.117188 110.882812 0.113281 110.8125 L 0.113281 96.355469 C 0.117188 96.285156 0.117188 96.265625 0.125 96.191406 C 0.234375 95.390625 1.289062 94.863281 2.011719 95.375 C 2.28125 95.5625 2.46875 95.867188 2.515625 96.191406 C 2.523438 96.265625 2.519531 96.285156 2.523438 96.355469 L 2.523438 109.605469 L 15.855469 109.605469 C 15.925781 109.617188 15.945312 109.617188 16.019531 109.628906 C 16.6875 109.769531 17.140625 110.554688 16.90625 111.210938 C 16.761719 111.625 16.371094 111.941406 15.9375 112.003906 C 15.867188 112.011719 15.847656 112.011719 15.773438 112.011719 L 1.316406 112.011719 C 1.289062 112.011719 1.265625 112.011719 1.238281 112.011719"/></g></svg>