<svg xmlns="http://www.w3.org/2000/svg" xmlns:xlink="http://www.w3.org/1999/xlink" width="224.88" viewBox="0 0 224.88 112.5" height="112.5" version="1.0"><defs><g id="a"><path d="M 8.90625 0 L 1.59375 0 L 1.59375 -12.6875 L 8.90625 -12.6875 L 8.90625 -10.484375 L 4.28125 -10.484375 L 4.28125 -7.703125 L 8.59375 -7.703125 L 8.59375 -5.5 L 4.28125 -5.5 L 4.28125 -2.21875 L 8.90625 -2.21875 Z M 8.90625 0"/></g><g id="b"><path d="M 9.375 0 L 8.453125 -3.015625 L 3.8125 -3.015625 L 2.90625 0 L 0 0 L 4.484375 -12.75 L 7.765625 -12.75 L 12.265625 0 Z M 7.8125 -5.28125 C 6.957031 -8.019531 6.472656 -9.566406 6.359375 -9.921875 C 6.253906 -10.285156 6.179688 -10.570312 6.140625 -10.78125 C 5.953125 -10.03125 5.40625 -8.195312 4.5 -5.28125 Z M 7.8125 -5.28125"/></g><g id="c"><path d="M 9.09375 -3.53125 C 9.09375 -2.382812 8.675781 -1.476562 7.84375 -0.8125 C 7.019531 -0.15625 5.875 0.171875 4.40625 0.171875 C 3.050781 0.171875 1.851562 -0.0820312 0.8125 -0.59375 L 0.8125 -3.09375 C 1.664062 -2.707031 2.390625 -2.4375 2.984375 -2.28125 C 3.578125 -2.125 4.125 -2.046875 4.625 -2.046875 C 5.207031 -2.046875 5.65625 -2.15625 5.96875 -2.375 C 6.289062 -2.601562 6.453125 -2.941406 6.453125 -3.390625 C 6.453125 -3.640625 6.378906 -3.859375 6.234375 -4.046875 C 6.097656 -4.242188 5.894531 -4.429688 5.625 -4.609375 C 5.363281 -4.796875 4.816406 -5.085938 3.984375 -5.484375 C 3.210938 -5.847656 2.628906 -6.195312 2.234375 -6.53125 C 1.847656 -6.863281 1.539062 -7.253906 1.3125 -7.703125 C 1.082031 -8.148438 0.96875 -8.671875 0.96875 -9.265625 C 0.96875 -10.390625 1.347656 -11.269531 2.109375 -11.90625 C 2.867188 -12.550781 3.921875 -12.875 5.265625 -12.875 C 5.921875 -12.875 6.546875 -12.796875 7.140625 -12.640625 C 7.742188 -12.484375 8.375 -12.265625 9.03125 -11.984375 L 8.15625 -9.890625 C 7.476562 -10.171875 6.914062 -10.363281 6.46875 -10.46875 C 6.03125 -10.582031 5.597656 -10.640625 5.171875 -10.640625 C 4.660156 -10.640625 4.269531 -10.519531 4 -10.28125 C 3.726562 -10.039062 3.59375 -9.726562 3.59375 -9.34375 C 3.59375 -9.113281 3.644531 -8.910156 3.75 -8.734375 C 3.863281 -8.554688 4.039062 -8.382812 4.28125 -8.21875 C 4.519531 -8.050781 5.085938 -7.753906 5.984375 -7.328125 C 7.171875 -6.765625 7.984375 -6.195312 8.421875 -5.625 C 8.867188 -5.050781 9.09375 -4.351562 9.09375 -3.53125 Z M 9.09375 -3.53125"/></g><g id="d"><path d="M 6.5 0 L 3.796875 0 L 3.796875 -10.453125 L 0.359375 -10.453125 L 0.359375 -12.6875 L 9.9375 -12.6875 L 9.9375 -10.453125 L 6.5 -10.453125 Z M 6.5 0"/></g><g id="f"><path d="M 4.25 0 L 1.59375 0 L 1.59375 -12.6875 L 8.875 -12.6875 L 8.875 -10.484375 L 4.25 -10.484375 L 4.25 -7.21875 L 8.546875 -7.21875 L 8.546875 -5.015625 L 4.25 -5.015625 Z M 4.25 0"/></g><g id="g"><path d="M 4.28125 -7.0625 L 5.15625 -7.0625 C 6.007812 -7.0625 6.640625 -7.203125 7.046875 -7.484375 C 7.453125 -7.765625 7.65625 -8.210938 7.65625 -8.828125 C 7.65625 -9.421875 7.445312 -9.84375 7.03125 -10.09375 C 6.613281 -10.351562 5.972656 -10.484375 5.109375 -10.484375 L 4.28125 -10.484375 Z M 4.28125 -4.875 L 4.28125 0 L 1.59375 0 L 1.59375 -12.6875 L 5.296875 -12.6875 C 7.023438 -12.6875 8.300781 -12.375 9.125 -11.75 C 9.945312 -11.125 10.359375 -10.171875 10.359375 -8.890625 C 10.359375 -8.140625 10.15625 -7.472656 9.75 -6.890625 C 9.34375 -6.316406 8.757812 -5.863281 8 -5.53125 C 9.914062 -2.675781 11.160156 -0.832031 11.734375 0 L 8.75 0 L 5.71875 -4.875 Z M 4.28125 -4.875"/></g><g id="h"><path d="M 1.59375 0 L 1.59375 -12.6875 L 4.28125 -12.6875 L 4.28125 0 Z M 1.59375 0"/></g><g id="i"><path d="M 6.984375 -10.640625 C 5.972656 -10.640625 5.1875 -10.257812 4.625 -9.5 C 4.070312 -8.738281 3.796875 -7.675781 3.796875 -6.3125 C 3.796875 -3.476562 4.859375 -2.0625 6.984375 -2.0625 C 7.878906 -2.0625 8.960938 -2.285156 10.234375 -2.734375 L 10.234375 -0.484375 C 9.191406 -0.046875 8.023438 0.171875 6.734375 0.171875 C 4.890625 0.171875 3.476562 -0.382812 2.5 -1.5 C 1.519531 -2.625 1.03125 -4.234375 1.03125 -6.328125 C 1.03125 -7.648438 1.269531 -8.804688 1.75 -9.796875 C 2.226562 -10.785156 2.914062 -11.546875 3.8125 -12.078125 C 4.71875 -12.609375 5.773438 -12.875 6.984375 -12.875 C 8.222656 -12.875 9.460938 -12.578125 10.703125 -11.984375 L 9.84375 -9.796875 C 9.363281 -10.015625 8.882812 -10.207031 8.40625 -10.375 C 7.925781 -10.550781 7.453125 -10.640625 6.984375 -10.640625 Z M 6.984375 -10.640625"/></g><g id="j"><path d="M 14 -7.46875 C 14 -5.050781 13.3125 -3.203125 11.9375 -1.921875 C 10.570312 -0.640625 8.59375 0 6 0 L 1.84375 0 L 1.84375 -14.65625 L 6.453125 -14.65625 C 8.835938 -14.65625 10.691406 -14.019531 12.015625 -12.75 C 13.335938 -11.488281 14 -9.726562 14 -7.46875 Z M 10.78125 -7.390625 C 10.78125 -10.535156 9.390625 -12.109375 6.609375 -12.109375 L 4.953125 -12.109375 L 4.953125 -2.5625 L 6.28125 -2.5625 C 9.28125 -2.5625 10.78125 -4.171875 10.78125 -7.390625 Z M 10.78125 -7.390625"/></g><g id="k"><path d="M 4.953125 -8.15625 L 5.953125 -8.15625 C 6.929688 -8.15625 7.65625 -8.316406 8.125 -8.640625 C 8.59375 -8.960938 8.828125 -9.476562 8.828125 -10.1875 C 8.828125 -10.882812 8.585938 -11.378906 8.109375 -11.671875 C 7.640625 -11.960938 6.898438 -12.109375 5.890625 -12.109375 L 4.953125 -12.109375 Z M 4.953125 -5.625 L 4.953125 0 L 1.84375 0 L 1.84375 -14.65625 L 6.109375 -14.65625 C 8.109375 -14.65625 9.582031 -14.289062 10.53125 -13.5625 C 11.488281 -12.84375 11.96875 -11.742188 11.96875 -10.265625 C 11.96875 -9.398438 11.726562 -8.628906 11.25 -7.953125 C 10.78125 -7.285156 10.113281 -6.765625 9.25 -6.390625 C 11.445312 -3.085938 12.878906 -0.957031 13.546875 0 L 10.109375 0 L 6.609375 -5.625 Z M 4.953125 -5.625"/></g><g id="l"><path d="M 15.140625 -7.34375 C 15.140625 -4.914062 14.535156 -3.050781 13.328125 -1.75 C 12.128906 -0.445312 10.410156 0.203125 8.171875 0.203125 C 5.921875 0.203125 4.191406 -0.445312 2.984375 -1.75 C 1.785156 -3.050781 1.1875 -4.925781 1.1875 -7.375 C 1.1875 -9.8125 1.789062 -11.671875 3 -12.953125 C 4.207031 -14.242188 5.9375 -14.890625 8.1875 -14.890625 C 10.4375 -14.890625 12.15625 -14.238281 13.34375 -12.9375 C 14.539062 -11.644531 15.140625 -9.78125 15.140625 -7.34375 Z M 4.453125 -7.34375 C 4.453125 -5.707031 4.757812 -4.472656 5.375 -3.640625 C 6 -2.816406 6.929688 -2.40625 8.171875 -2.40625 C 10.648438 -2.40625 11.890625 -4.050781 11.890625 -7.34375 C 11.890625 -10.644531 10.65625 -12.296875 8.1875 -12.296875 C 6.945312 -12.296875 6.015625 -11.878906 5.390625 -11.046875 C 4.765625 -10.210938 4.453125 -8.976562 4.453125 -7.34375 Z M 4.453125 -7.34375"/></g><g id="m"><path d="M 13.78125 -14.65625 L 13.78125 -5.171875 C 13.78125 -4.085938 13.535156 -3.140625 13.046875 -2.328125 C 12.566406 -1.515625 11.867188 -0.890625 10.953125 -0.453125 C 10.035156 -0.015625 8.953125 0.203125 7.703125 0.203125 C 5.816406 0.203125 4.351562 -0.28125 3.3125 -1.25 C 2.269531 -2.21875 1.75 -3.539062 1.75 -5.21875 L 1.75 -14.65625 L 4.84375 -14.65625 L 4.84375 -5.6875 C 4.84375 -4.550781 5.066406 -3.71875 5.515625 -3.1875 C 5.972656 -2.664062 6.726562 -2.40625 7.78125 -2.40625 C 8.789062 -2.40625 9.523438 -2.671875 9.984375 -3.203125 C 10.441406 -3.734375 10.671875 -4.566406 10.671875 -5.703125 L 10.671875 -14.65625 Z M 13.78125 -14.65625"/></g><g id="n"><path d="M 7.40625 -8.234375 L 13.21875 -8.234375 L 13.21875 -0.625 C 12.28125 -0.320312 11.394531 -0.109375 10.5625 0.015625 C 9.726562 0.140625 8.878906 0.203125 8.015625 0.203125 C 5.796875 0.203125 4.101562 -0.445312 2.9375 -1.75 C 1.769531 -3.050781 1.1875 -4.914062 1.1875 -7.34375 C 1.1875 -9.707031 1.863281 -11.550781 3.21875 -12.875 C 4.570312 -14.195312 6.453125 -14.859375 8.859375 -14.859375 C 10.359375 -14.859375 11.804688 -14.5625 13.203125 -13.96875 L 12.171875 -11.484375 C 11.097656 -12.015625 9.984375 -12.28125 8.828125 -12.28125 C 7.484375 -12.28125 6.40625 -11.828125 5.59375 -10.921875 C 4.789062 -10.023438 4.390625 -8.8125 4.390625 -7.28125 C 4.390625 -5.695312 4.710938 -4.484375 5.359375 -3.640625 C 6.015625 -2.804688 6.960938 -2.390625 8.203125 -2.390625 C 8.859375 -2.390625 9.519531 -2.457031 10.1875 -2.59375 L 10.1875 -5.640625 L 7.40625 -5.640625 Z M 7.40625 -8.234375"/></g><g id="o"><path d="M 13.859375 0 L 10.75 0 L 10.75 -6.328125 L 4.953125 -6.328125 L 4.953125 0 L 1.84375 0 L 1.84375 -14.65625 L 4.953125 -14.65625 L 4.953125 -8.90625 L 10.75 -8.90625 L 10.75 -14.65625 L 13.859375 -14.65625 Z M 13.859375 0"/></g><g id="p"><path d="M 7.5 0 L 4.390625 0 L 4.390625 -12.0625 L 0.40625 -12.0625 L 0.40625 -14.65625 L 11.484375 -14.65625 L 11.484375 -12.0625 L 7.5 -12.0625 Z M 7.5 0"/></g><g id="q"><path d="M 16.125 0 L 12.578125 0 L 10.59375 -7.703125 C 10.519531 -7.972656 10.394531 -8.535156 10.21875 -9.390625 C 10.039062 -10.253906 9.941406 -10.832031 9.921875 -11.125 C 9.878906 -10.769531 9.773438 -10.191406 9.609375 -9.390625 C 9.453125 -8.585938 9.332031 -8.015625 9.25 -7.671875 L 7.265625 0 L 3.734375 0 L 0 -14.65625 L 3.0625 -14.65625 L 4.9375 -6.65625 C 5.257812 -5.175781 5.492188 -3.894531 5.640625 -2.8125 C 5.679688 -3.195312 5.773438 -3.785156 5.921875 -4.578125 C 6.066406 -5.378906 6.203125 -6.003906 6.328125 -6.453125 L 8.46875 -14.65625 L 11.40625 -14.65625 L 13.53125 -6.453125 C 13.625 -6.078125 13.738281 -5.507812 13.875 -4.75 C 14.019531 -4 14.128906 -3.351562 14.203125 -2.8125 C 14.273438 -3.332031 14.382812 -3.984375 14.53125 -4.765625 C 14.675781 -5.546875 14.804688 -6.175781 14.921875 -6.65625 L 16.796875 -14.65625 L 19.84375 -14.65625 Z M 16.125 0"/></g><g id="r"><path d="M 10.8125 0 L 9.75 -3.484375 L 4.40625 -3.484375 L 3.34375 0 L 0 0 L 5.171875 -14.71875 L 8.96875 -14.71875 L 14.171875 0 Z M 9.015625 -6.09375 C 8.023438 -9.257812 7.46875 -11.046875 7.34375 -11.453125 C 7.226562 -11.867188 7.144531 -12.195312 7.09375 -12.4375 C 6.863281 -11.582031 6.226562 -9.46875 5.1875 -6.09375 Z M 9.015625 -6.09375"/></g><g id="s"><path d="M 8.0625 -12.28125 C 6.894531 -12.28125 5.988281 -11.835938 5.34375 -10.953125 C 4.707031 -10.078125 4.390625 -8.851562 4.390625 -7.28125 C 4.390625 -4.019531 5.613281 -2.390625 8.0625 -2.390625 C 9.09375 -2.390625 10.34375 -2.644531 11.8125 -3.15625 L 11.8125 -0.546875 C 10.601562 -0.046875 9.257812 0.203125 7.78125 0.203125 C 5.644531 0.203125 4.007812 -0.441406 2.875 -1.734375 C 1.75 -3.023438 1.1875 -4.882812 1.1875 -7.3125 C 1.1875 -8.832031 1.460938 -10.164062 2.015625 -11.3125 C 2.578125 -12.457031 3.375 -13.332031 4.40625 -13.9375 C 5.445312 -14.550781 6.664062 -14.859375 8.0625 -14.859375 C 9.488281 -14.859375 10.921875 -14.515625 12.359375 -13.828125 L 11.359375 -11.3125 C 10.804688 -11.570312 10.253906 -11.796875 9.703125 -11.984375 C 9.148438 -12.179688 8.601562 -12.28125 8.0625 -12.28125 Z M 8.0625 -12.28125"/></g><clipPath id="t"><path d="M 0.4375 0.0742188 L 17 0.0742188 L 17 17 L 0.4375 17 Z M 0.4375 0.0742188"/></clipPath><clipPath id="u"><path d="M 207.550781 95.113281 L 224.324219 95.113281 L 224.324219 111.992188 L 207.550781 111.992188 Z M 207.550781 95.113281"/></clipPath><clipPath id="v"><path d="M 207.550781 0 L 224.324219 0 L 224.324219 17 L 207.550781 17 Z M 207.550781 0"/></clipPath><clipPath id="w"><path d="M 0.4375 95.1875 L 17 95.1875 L 17 112 L 0.4375 112 Z M 0.4375 95.1875"/></clipPath></defs><g fill="#FFF"><use x="59.411" y="41.651" xmlns:xlink="http://www.w3.org/1999/xlink" xlink:href="#a" xlink:type="simple" xlink:actuate="onLoad" xlink:show="embed"/></g><g fill="#FFF"><use x="68.957" y="41.651" xmlns:xlink="http://www.w3.org/1999/xlink" xlink:href="#b" xlink:type="simple" xlink:actuate="onLoad" xlink:show="embed"/></g><g fill="#FFF"><use x="80.811" y="41.651" xmlns:xlink="http://www.w3.org/1999/xlink" xlink:href="#c" xlink:type="simple" xlink:actuate="onLoad" xlink:show="embed"/></g><g fill="#FFF"><use x="90.192" y="41.651" xmlns:xlink="http://www.w3.org/1999/xlink" xlink:href="#d" xlink:type="simple" xlink:actuate="onLoad" xlink:show="embed"/></g><g fill="#FFF"><use x="100.077" y="41.651" xmlns:xlink="http://www.w3.org/1999/xlink" xlink:href="#e" xlink:type="simple" xlink:actuate="onLoad" xlink:show="embed"/></g><g fill="#FFF"><use x="104.285" y="41.651" xmlns:xlink="http://www.w3.org/1999/xlink" xlink:href="#b" xlink:type="simple" xlink:actuate="onLoad" xlink:show="embed"/></g><g fill="#FFF"><use x="116.139" y="41.651" xmlns:xlink="http://www.w3.org/1999/xlink" xlink:href="#f" xlink:type="simple" xlink:actuate="onLoad" xlink:show="embed"/></g><g fill="#FFF"><use x="125.486" y="41.651" xmlns:xlink="http://www.w3.org/1999/xlink" xlink:href="#g" xlink:type="simple" xlink:actuate="onLoad" xlink:show="embed"/></g><g fill="#FFF"><use x="136.811" y="41.651" xmlns:xlink="http://www.w3.org/1999/xlink" xlink:href="#h" xlink:type="simple" xlink:actuate="onLoad" xlink:show="embed"/></g><g fill="#FFF"><use x="142.286" y="41.651" xmlns:xlink="http://www.w3.org/1999/xlink" xlink:href="#i" xlink:type="simple" xlink:actuate="onLoad" xlink:show="embed"/></g><g fill="#FFF"><use x="153.203" y="41.651" xmlns:xlink="http://www.w3.org/1999/xlink" xlink:href="#b" xlink:type="simple" xlink:actuate="onLoad" xlink:show="embed"/></g><g fill="#F5C10D"><use x="59.475" y="62.551" xmlns:xlink="http://www.w3.org/1999/xlink" xlink:href="#j" xlink:type="simple" xlink:actuate="onLoad" xlink:show="embed"/></g><g fill="#F5C10D"><use x="75.022" y="62.551" xmlns:xlink="http://www.w3.org/1999/xlink" xlink:href="#k" xlink:type="simple" xlink:actuate="onLoad" xlink:show="embed"/></g><g fill="#F5C10D"><use x="88.924" y="62.551" xmlns:xlink="http://www.w3.org/1999/xlink" xlink:href="#l" xlink:type="simple" xlink:actuate="onLoad" xlink:show="embed"/></g><g fill="#F5C10D"><use x="105.614" y="62.551" xmlns:xlink="http://www.w3.org/1999/xlink" xlink:href="#m" xlink:type="simple" xlink:actuate="onLoad" xlink:show="embed"/></g><g fill="#F5C10D"><use x="121.481" y="62.551" xmlns:xlink="http://www.w3.org/1999/xlink" xlink:href="#n" xlink:type="simple" xlink:actuate="onLoad" xlink:show="embed"/></g><g fill="#F5C10D"><use x="136.697" y="62.551" xmlns:xlink="http://www.w3.org/1999/xlink" xlink:href="#o" xlink:type="simple" xlink:actuate="onLoad" xlink:show="embed"/></g><g fill="#F5C10D"><use x="152.755" y="62.551" xmlns:xlink="http://www.w3.org/1999/xlink" xlink:href="#p" xlink:type="simple" xlink:actuate="onLoad" xlink:show="embed"/></g><g fill="#F5C10D"><use x="74.888" y="83.681" xmlns:xlink="http://www.w3.org/1999/xlink" xlink:href="#q" xlink:type="simple" xlink:actuate="onLoad" xlink:show="embed"/></g><g fill="#F5C10D"><use x="94.737" y="83.681" xmlns:xlink="http://www.w3.org/1999/xlink" xlink:href="#r" xlink:type="simple" xlink:actuate="onLoad" xlink:show="embed"/></g><g fill="#F5C10D"><use x="108.902" y="83.681" xmlns:xlink="http://www.w3.org/1999/xlink" xlink:href="#p" xlink:type="simple" xlink:actuate="onLoad" xlink:show="embed"/></g><g fill="#F5C10D"><use x="120.792" y="83.681" xmlns:xlink="http://www.w3.org/1999/xlink" xlink:href="#s" xlink:type="simple" xlink:actuate="onLoad" xlink:show="embed"/></g><g fill="#F5C10D"><use x="133.874" y="83.681" xmlns:xlink="http://www.w3.org/1999/xlink" xlink:href="#o" xlink:type="simple" xlink:actuate="onLoad" xlink:show="embed"/></g><g clip-path="url(#t)"><path fill="#FFF" d="M 1.238281 0.0625 C 0.679688 0.117188 0.203125 0.550781 0.125 1.101562 C 0.117188 1.171875 0.117188 1.191406 0.113281 1.261719 L 0.113281 15.722656 C 0.117188 15.792969 0.117188 15.808594 0.125 15.886719 C 0.234375 16.683594 1.289062 17.210938 2.011719 16.703125 C 2.28125 16.511719 2.46875 16.207031 2.515625 15.886719 C 2.523438 15.808594 2.519531 15.792969 2.523438 15.722656 L 2.523438 2.46875 L 15.855469 2.46875 C 15.925781 2.457031 15.945312 2.457031 16.019531 2.445312 C 16.6875 2.304688 17.140625 1.519531 16.90625 0.863281 C 16.761719 0.449219 16.371094 0.132812 15.9375 0.0703125 C 15.867188 0.0625 15.847656 0.0625 15.773438 0.0625 L 1.316406 0.0625 C 1.289062 0.0625 1.265625 0.0625 1.238281 0.0625"/></g><g clip-path="url(#u)"><path fill="#FFF" d="M 223.5625 112.007812 C 224.121094 111.953125 224.601562 111.519531 224.675781 110.964844 C 224.683594 110.894531 224.683594 110.878906 224.6875 110.808594 L 224.6875 96.347656 C 224.683594 96.277344 224.683594 96.257812 224.675781 96.183594 C 224.566406 95.386719 223.511719 94.855469 222.789062 95.367188 C 222.523438 95.554688 222.335938 95.859375 222.289062 96.183594 C 222.277344 96.257812 222.28125 96.277344 222.277344 96.347656 L 222.277344 109.601562 L 208.945312 109.601562 C 208.875 109.609375 208.855469 109.609375 208.78125 109.625 C 208.113281 109.765625 207.660156 110.550781 207.894531 111.207031 C 208.039062 111.617188 208.429688 111.9375 208.867188 112 C 208.9375 112.007812 208.953125 112.007812 209.03125 112.007812 L 223.484375 112.007812 C 223.511719 112.007812 223.535156 112.007812 223.5625 112.007812"/></g><g clip-path="url(#v)"><path fill="#FFF" d="M 223.5625 -0.015625 C 224.121094 0.0429688 224.601562 0.472656 224.675781 1.027344 C 224.683594 1.097656 224.683594 1.117188 224.6875 1.1875 L 224.6875 15.644531 C 224.683594 15.714844 224.683594 15.734375 224.675781 15.808594 C 224.566406 16.605469 223.511719 17.136719 222.789062 16.625 C 222.523438 16.4375 222.335938 16.132812 222.289062 15.808594 C 222.277344 15.734375 222.28125 15.714844 222.277344 15.644531 L 222.277344 2.390625 L 208.945312 2.390625 C 208.875 2.382812 208.855469 2.382812 208.78125 2.367188 C 208.113281 2.226562 207.660156 1.445312 207.894531 0.789062 C 208.039062 0.375 208.429688 0.0546875 208.867188 -0.00390625 C 208.9375 -0.015625 208.953125 -0.015625 209.03125 -0.015625 L 223.484375 -0.015625 C 223.511719 -0.015625 223.535156 -0.015625 223.5625 -0.015625"/></g><g clip-path="url(#w)"><path fill="#FFF" d="M 1.238281 112.011719 C 0.679688 111.957031 0.203125 111.527344 0.125 110.972656 C 0.117188 110.902344 0.117188 110.882812 0.113281 110.8125 L 0.113281 96.355469 C 0.117188 96.285156 0.117188 96.265625 0.125 96.191406 C 0.234375 95.390625 1.289062 94.863281 2.011719 95.375 C 2.28125 95.5625 2.46875 95.867188 2.515625 96.191406 C 2.523438 96.265625 2.519531 96.285156 2.523438 96.355469 L 2.523438 109.605469 L 15.855469 109.605469 C 15.925781 109.617188 15.945312 109.617188 16.019531 109.628906 C 16.6875 109.769531 17.140625 110.554688 16.90625 111.210938 C 16.761719 111.625 16.371094 111.941406 15.9375 112.003906 C 15.867188 112.011719 15.847656 112.011719 15.773438 112.011719 L 1.316406 112.011719 C 1.289062 112.011719 1.265625 112.011719 1.238281 112.011719"/></g></svg>