<svg xmlns="http://www.w3.org/2000/svg" xmlns:xlink="http://www.w3.org/1999/xlink" width="224.88" viewBox="0 0 224.88 112.5" height="112.5" version="1.0"><defs><g id="a"><path d="M 9.578125 0 L 1.71875 0 L 1.71875 -13.65625 L 9.578125 -13.65625 L 9.578125 -11.28125 L 4.609375 -11.28125 L 4.609375 -8.28125 L 9.234375 -8.28125 L 9.234375 -5.90625 L 4.609375 -5.90625 L 4.609375 -2.390625 L 9.578125 -2.390625 Z M 9.578125 0"/></g><g id="b"><path d="M 10.078125 0 L 9.09375 -3.25 L 4.109375 -3.25 L 3.125 0 L 0 0 L 4.8125 -13.703125 L 8.359375 -13.703125 L 13.1875 0 Z M 8.390625 -5.671875 C 7.472656 -8.617188 6.957031 -10.285156 6.84375 -10.671875 C 6.726562 -11.054688 6.648438 -11.363281 6.609375 -11.59375 C 6.398438 -10.789062 5.8125 -8.816406 4.84375 -5.671875 Z M 8.390625 -5.671875"/></g><g id="c"><path d="M 9.78125 -3.796875 C 9.78125 -2.554688 9.332031 -1.582031 8.4375 -0.875 C 7.550781 -0.164062 6.320312 0.1875 4.75 0.1875 C 3.289062 0.1875 2 -0.0859375 0.875 -0.640625 L 0.875 -3.328125 C 1.800781 -2.910156 2.582031 -2.617188 3.21875 -2.453125 C 3.851562 -2.285156 4.4375 -2.203125 4.96875 -2.203125 C 5.601562 -2.203125 6.085938 -2.320312 6.421875 -2.5625 C 6.765625 -2.8125 6.9375 -3.175781 6.9375 -3.65625 C 6.9375 -3.914062 6.859375 -4.148438 6.703125 -4.359375 C 6.554688 -4.566406 6.335938 -4.765625 6.046875 -4.953125 C 5.765625 -5.148438 5.175781 -5.460938 4.28125 -5.890625 C 3.445312 -6.285156 2.820312 -6.660156 2.40625 -7.015625 C 1.988281 -7.378906 1.65625 -7.800781 1.40625 -8.28125 C 1.15625 -8.757812 1.03125 -9.320312 1.03125 -9.96875 C 1.03125 -11.175781 1.441406 -12.125 2.265625 -12.8125 C 3.085938 -13.5 4.21875 -13.84375 5.65625 -13.84375 C 6.363281 -13.84375 7.039062 -13.757812 7.6875 -13.59375 C 8.332031 -13.425781 9.007812 -13.191406 9.71875 -12.890625 L 8.78125 -10.640625 C 8.050781 -10.929688 7.445312 -11.132812 6.96875 -11.25 C 6.488281 -11.375 6.019531 -11.4375 5.5625 -11.4375 C 5.019531 -11.4375 4.597656 -11.304688 4.296875 -11.046875 C 4.003906 -10.796875 3.859375 -10.46875 3.859375 -10.0625 C 3.859375 -9.800781 3.914062 -9.578125 4.03125 -9.390625 C 4.15625 -9.203125 4.347656 -9.019531 4.609375 -8.84375 C 4.867188 -8.664062 5.476562 -8.34375 6.4375 -7.875 C 7.71875 -7.269531 8.59375 -6.660156 9.0625 -6.046875 C 9.539062 -5.429688 9.78125 -4.679688 9.78125 -3.796875 Z M 9.78125 -3.796875"/></g><g id="d"><path d="M 6.984375 0 L 4.09375 0 L 4.09375 -11.25 L 0.390625 -11.25 L 0.390625 -13.65625 L 10.6875 -13.65625 L 10.6875 -11.25 L 6.984375 -11.25 Z M 6.984375 0"/></g><g id="f"><path d="M 4.5625 0 L 1.71875 0 L 1.71875 -13.65625 L 9.546875 -13.65625 L 9.546875 -11.28125 L 4.5625 -11.28125 L 4.5625 -7.765625 L 9.203125 -7.765625 L 9.203125 -5.390625 L 4.5625 -5.390625 Z M 4.5625 0"/></g><g id="g"><path d="M 4.609375 -7.59375 L 5.546875 -7.59375 C 6.460938 -7.59375 7.140625 -7.742188 7.578125 -8.046875 C 8.015625 -8.347656 8.234375 -8.828125 8.234375 -9.484375 C 8.234375 -10.128906 8.007812 -10.585938 7.5625 -10.859375 C 7.113281 -11.140625 6.421875 -11.28125 5.484375 -11.28125 L 4.609375 -11.28125 Z M 4.609375 -5.234375 L 4.609375 0 L 1.71875 0 L 1.71875 -13.65625 L 5.703125 -13.65625 C 7.554688 -13.65625 8.925781 -13.316406 9.8125 -12.640625 C 10.707031 -11.960938 11.15625 -10.9375 11.15625 -9.5625 C 11.15625 -8.757812 10.929688 -8.046875 10.484375 -7.421875 C 10.046875 -6.796875 9.421875 -6.304688 8.609375 -5.953125 C 10.660156 -2.878906 12 -0.894531 12.625 0 L 9.40625 0 L 6.15625 -5.234375 Z M 4.609375 -5.234375"/></g><g id="h"><path d="M 1.71875 0 L 1.71875 -13.65625 L 4.609375 -13.65625 L 4.609375 0 Z M 1.71875 0"/></g><g id="i"><path d="M 7.515625 -11.4375 C 6.429688 -11.4375 5.585938 -11.023438 4.984375 -10.203125 C 4.390625 -9.390625 4.09375 -8.25 4.09375 -6.78125 C 4.09375 -3.738281 5.234375 -2.21875 7.515625 -2.21875 C 8.472656 -2.21875 9.632812 -2.457031 11 -2.9375 L 11 -0.515625 C 9.875 -0.046875 8.625 0.1875 7.25 0.1875 C 5.257812 0.1875 3.738281 -0.410156 2.6875 -1.609375 C 1.632812 -2.816406 1.109375 -4.550781 1.109375 -6.8125 C 1.109375 -8.226562 1.363281 -9.46875 1.875 -10.53125 C 2.394531 -11.601562 3.140625 -12.421875 4.109375 -12.984375 C 5.078125 -13.554688 6.210938 -13.84375 7.515625 -13.84375 C 8.835938 -13.84375 10.171875 -13.523438 11.515625 -12.890625 L 10.578125 -10.53125 C 10.066406 -10.769531 9.550781 -10.976562 9.03125 -11.15625 C 8.519531 -11.34375 8.015625 -11.4375 7.515625 -11.4375 Z M 7.515625 -11.4375"/></g><g id="j"><path d="M 15.078125 -8.03125 C 15.078125 -5.4375 14.335938 -3.445312 12.859375 -2.0625 C 11.378906 -0.6875 9.242188 0 6.453125 0 L 1.984375 0 L 1.984375 -15.765625 L 6.9375 -15.765625 C 9.507812 -15.765625 11.507812 -15.082031 12.9375 -13.71875 C 14.363281 -12.363281 15.078125 -10.46875 15.078125 -8.03125 Z M 11.59375 -7.953125 C 11.59375 -11.335938 10.097656 -13.03125 7.109375 -13.03125 L 5.328125 -13.03125 L 5.328125 -2.765625 L 6.765625 -2.765625 C 9.984375 -2.765625 11.59375 -4.492188 11.59375 -7.953125 Z M 11.59375 -7.953125"/></g><g id="k"><path d="M 5.328125 -8.765625 L 6.40625 -8.765625 C 7.46875 -8.765625 8.25 -8.941406 8.75 -9.296875 C 9.25 -9.648438 9.5 -10.203125 9.5 -10.953125 C 9.5 -11.703125 9.242188 -12.234375 8.734375 -12.546875 C 8.222656 -12.867188 7.425781 -13.03125 6.34375 -13.03125 L 5.328125 -13.03125 Z M 5.328125 -6.046875 L 5.328125 0 L 1.984375 0 L 1.984375 -15.765625 L 6.578125 -15.765625 C 8.722656 -15.765625 10.304688 -15.375 11.328125 -14.59375 C 12.359375 -13.820312 12.875 -12.640625 12.875 -11.046875 C 12.875 -10.117188 12.617188 -9.289062 12.109375 -8.5625 C 11.597656 -7.84375 10.878906 -7.28125 9.953125 -6.875 C 12.316406 -3.320312 13.859375 -1.03125 14.578125 0 L 10.875 0 L 7.109375 -6.046875 Z M 5.328125 -6.046875"/></g><g id="l"><path d="M 16.296875 -7.90625 C 16.296875 -5.289062 15.648438 -3.28125 14.359375 -1.875 C 13.066406 -0.476562 11.210938 0.21875 8.796875 0.21875 C 6.378906 0.21875 4.519531 -0.476562 3.21875 -1.875 C 1.925781 -3.28125 1.28125 -5.296875 1.28125 -7.921875 C 1.28125 -10.546875 1.925781 -12.550781 3.21875 -13.9375 C 4.519531 -15.320312 6.382812 -16.015625 8.8125 -16.015625 C 11.238281 -16.015625 13.09375 -15.316406 14.375 -13.921875 C 15.65625 -12.523438 16.296875 -10.519531 16.296875 -7.90625 Z M 4.796875 -7.90625 C 4.796875 -6.144531 5.128906 -4.816406 5.796875 -3.921875 C 6.460938 -3.035156 7.460938 -2.59375 8.796875 -2.59375 C 11.460938 -2.59375 12.796875 -4.363281 12.796875 -7.90625 C 12.796875 -11.457031 11.46875 -13.234375 8.8125 -13.234375 C 7.476562 -13.234375 6.472656 -12.785156 5.796875 -11.890625 C 5.128906 -10.992188 4.796875 -9.664062 4.796875 -7.90625 Z M 4.796875 -7.90625"/></g><g id="m"><path d="M 14.828125 -15.765625 L 14.828125 -5.5625 C 14.828125 -4.394531 14.566406 -3.375 14.046875 -2.5 C 13.523438 -1.625 12.769531 -0.953125 11.78125 -0.484375 C 10.789062 -0.015625 9.625 0.21875 8.28125 0.21875 C 6.257812 0.21875 4.6875 -0.300781 3.5625 -1.34375 C 2.4375 -2.382812 1.875 -3.804688 1.875 -5.609375 L 1.875 -15.765625 L 5.203125 -15.765625 L 5.203125 -6.109375 C 5.203125 -4.898438 5.445312 -4.007812 5.9375 -3.4375 C 6.425781 -2.875 7.238281 -2.59375 8.375 -2.59375 C 9.46875 -2.59375 10.257812 -2.875 10.75 -3.4375 C 11.238281 -4.007812 11.484375 -4.910156 11.484375 -6.140625 L 11.484375 -15.765625 Z M 14.828125 -15.765625"/></g><g id="n"><path d="M 7.96875 -8.859375 L 14.234375 -8.859375 L 14.234375 -0.671875 C 13.210938 -0.347656 12.253906 -0.117188 11.359375 0.015625 C 10.460938 0.148438 9.550781 0.21875 8.625 0.21875 C 6.238281 0.21875 4.414062 -0.476562 3.15625 -1.875 C 1.90625 -3.28125 1.28125 -5.289062 1.28125 -7.90625 C 1.28125 -10.445312 2.007812 -12.429688 3.46875 -13.859375 C 4.925781 -15.285156 6.945312 -16 9.53125 -16 C 11.144531 -16 12.703125 -15.675781 14.203125 -15.03125 L 13.09375 -12.359375 C 11.945312 -12.929688 10.75 -13.21875 9.5 -13.21875 C 8.050781 -13.21875 6.890625 -12.726562 6.015625 -11.75 C 5.148438 -10.78125 4.71875 -9.476562 4.71875 -7.84375 C 4.71875 -6.132812 5.066406 -4.828125 5.765625 -3.921875 C 6.472656 -3.015625 7.492188 -2.5625 8.828125 -2.5625 C 9.523438 -2.5625 10.234375 -2.632812 10.953125 -2.78125 L 10.953125 -6.078125 L 7.96875 -6.078125 Z M 7.96875 -8.859375"/></g><g id="o"><path d="M 14.90625 0 L 11.578125 0 L 11.578125 -6.8125 L 5.328125 -6.8125 L 5.328125 0 L 1.984375 0 L 1.984375 -15.765625 L 5.328125 -15.765625 L 5.328125 -9.59375 L 11.578125 -9.59375 L 11.578125 -15.765625 L 14.90625 -15.765625 Z M 14.90625 0"/></g><g id="p"><path d="M 8.0625 0 L 4.71875 0 L 4.71875 -12.984375 L 0.4375 -12.984375 L 0.4375 -15.765625 L 12.359375 -15.765625 L 12.359375 -12.984375 L 8.0625 -12.984375 Z M 8.0625 0"/></g><g id="q"><path d="M 17.34375 0 L 13.53125 0 L 11.40625 -8.28125 C 11.320312 -8.582031 11.1875 -9.191406 11 -10.109375 C 10.8125 -11.035156 10.703125 -11.65625 10.671875 -11.96875 C 10.628906 -11.582031 10.519531 -10.957031 10.34375 -10.09375 C 10.175781 -9.238281 10.046875 -8.628906 9.953125 -8.265625 L 7.828125 0 L 4.03125 0 L 0 -15.765625 L 3.296875 -15.765625 L 5.3125 -7.15625 C 5.664062 -5.570312 5.921875 -4.195312 6.078125 -3.03125 C 6.117188 -3.4375 6.21875 -4.066406 6.375 -4.921875 C 6.53125 -5.785156 6.675781 -6.457031 6.8125 -6.9375 L 9.109375 -15.765625 L 12.265625 -15.765625 L 14.5625 -6.9375 C 14.664062 -6.539062 14.789062 -5.9375 14.9375 -5.125 C 15.09375 -4.3125 15.207031 -3.613281 15.28125 -3.03125 C 15.351562 -3.59375 15.46875 -4.289062 15.625 -5.125 C 15.789062 -5.96875 15.9375 -6.644531 16.0625 -7.15625 L 18.0625 -15.765625 L 21.359375 -15.765625 Z M 17.34375 0"/></g><g id="r"><path d="M 11.640625 0 L 10.5 -3.75 L 4.75 -3.75 L 3.609375 0 L 0 0 L 5.5625 -15.84375 L 9.65625 -15.84375 L 15.25 0 Z M 9.703125 -6.5625 C 8.640625 -9.957031 8.039062 -11.878906 7.90625 -12.328125 C 7.78125 -12.773438 7.6875 -13.128906 7.625 -13.390625 C 7.382812 -12.460938 6.707031 -10.1875 5.59375 -6.5625 Z M 9.703125 -6.5625"/></g><g id="s"><path d="M 8.6875 -13.21875 C 7.425781 -13.21875 6.445312 -12.742188 5.75 -11.796875 C 5.0625 -10.847656 4.71875 -9.53125 4.71875 -7.84375 C 4.71875 -4.320312 6.039062 -2.5625 8.6875 -2.5625 C 9.789062 -2.5625 11.128906 -2.835938 12.703125 -3.390625 L 12.703125 -0.59375 C 11.410156 -0.0507812 9.96875 0.21875 8.375 0.21875 C 6.082031 0.21875 4.328125 -0.472656 3.109375 -1.859375 C 1.890625 -3.253906 1.28125 -5.253906 1.28125 -7.859375 C 1.28125 -9.503906 1.578125 -10.941406 2.171875 -12.171875 C 2.773438 -13.410156 3.632812 -14.359375 4.75 -15.015625 C 5.863281 -15.671875 7.175781 -16 8.6875 -16 C 10.21875 -16 11.753906 -15.628906 13.296875 -14.890625 L 12.21875 -12.171875 C 11.632812 -12.453125 11.039062 -12.695312 10.4375 -12.90625 C 9.84375 -13.113281 9.257812 -13.21875 8.6875 -13.21875 Z M 8.6875 -13.21875"/></g><clipPath id="t"><path d="M 0.4375 0.0742188 L 17 0.0742188 L 17 17 L 0.4375 17 Z M 0.4375 0.0742188"/></clipPath><clipPath id="u"><path d="M 207.550781 95.113281 L 224.324219 95.113281 L 224.324219 111.992188 L 207.550781 111.992188 Z M 207.550781 95.113281"/></clipPath><clipPath id="v"><path d="M 207.550781 0 L 224.324219 0 L 224.324219 17 L 207.550781 17 Z M 207.550781 0"/></clipPath><clipPath id="w"><path d="M 0.4375 95.1875 L 17 95.1875 L 17 112 L 0.4375 112 Z M 0.4375 95.1875"/></clipPath></defs><g fill="#FFF"><use x="56" y="40.217" xmlns:xlink="http://www.w3.org/1999/xlink" xlink:href="#a" xlink:type="simple" xlink:actuate="onLoad" xlink:show="embed"/></g><g fill="#FFF"><use x="66.269" y="40.217" xmlns:xlink="http://www.w3.org/1999/xlink" xlink:href="#b" xlink:type="simple" xlink:actuate="onLoad" xlink:show="embed"/></g><g fill="#FFF"><use x="79.021" y="40.217" xmlns:xlink="http://www.w3.org/1999/xlink" xlink:href="#c" xlink:type="simple" xlink:actuate="onLoad" xlink:show="embed"/></g><g fill="#FFF"><use x="89.112" y="40.217" xmlns:xlink="http://www.w3.org/1999/xlink" xlink:href="#d" xlink:type="simple" xlink:actuate="onLoad" xlink:show="embed"/></g><g fill="#FFF"><use x="99.744" y="40.217" xmlns:xlink="http://www.w3.org/1999/xlink" xlink:href="#e" xlink:type="simple" xlink:actuate="onLoad" xlink:show="embed"/></g><g fill="#FFF"><use x="104.271" y="40.217" xmlns:xlink="http://www.w3.org/1999/xlink" xlink:href="#b" xlink:type="simple" xlink:actuate="onLoad" xlink:show="embed"/></g><g fill="#FFF"><use x="117.023" y="40.217" xmlns:xlink="http://www.w3.org/1999/xlink" xlink:href="#f" xlink:type="simple" xlink:actuate="onLoad" xlink:show="embed"/></g><g fill="#FFF"><use x="127.077" y="40.217" xmlns:xlink="http://www.w3.org/1999/xlink" xlink:href="#g" xlink:type="simple" xlink:actuate="onLoad" xlink:show="embed"/></g><g fill="#FFF"><use x="139.259" y="40.217" xmlns:xlink="http://www.w3.org/1999/xlink" xlink:href="#h" xlink:type="simple" xlink:actuate="onLoad" xlink:show="embed"/></g><g fill="#FFF"><use x="145.149" y="40.217" xmlns:xlink="http://www.w3.org/1999/xlink" xlink:href="#i" xlink:type="simple" xlink:actuate="onLoad" xlink:show="embed"/></g><g fill="#FFF"><use x="156.893" y="40.217" xmlns:xlink="http://www.w3.org/1999/xlink" xlink:href="#b" xlink:type="simple" xlink:actuate="onLoad" xlink:show="embed"/></g><g fill="#F5C10D"><use x="56.07" y="62.699" xmlns:xlink="http://www.w3.org/1999/xlink" xlink:href="#j" xlink:type="simple" xlink:actuate="onLoad" xlink:show="embed"/></g><g fill="#F5C10D"><use x="72.793" y="62.699" xmlns:xlink="http://www.w3.org/1999/xlink" xlink:href="#k" xlink:type="simple" xlink:actuate="onLoad" xlink:show="embed"/></g><g fill="#F5C10D"><use x="87.748" y="62.699" xmlns:xlink="http://www.w3.org/1999/xlink" xlink:href="#l" xlink:type="simple" xlink:actuate="onLoad" xlink:show="embed"/></g><g fill="#F5C10D"><use x="105.701" y="62.699" xmlns:xlink="http://www.w3.org/1999/xlink" xlink:href="#m" xlink:type="simple" xlink:actuate="onLoad" xlink:show="embed"/></g><g fill="#F5C10D"><use x="122.769" y="62.699" xmlns:xlink="http://www.w3.org/1999/xlink" xlink:href="#n" xlink:type="simple" xlink:actuate="onLoad" xlink:show="embed"/></g><g fill="#F5C10D"><use x="139.137" y="62.699" xmlns:xlink="http://www.w3.org/1999/xlink" xlink:href="#o" xlink:type="simple" xlink:actuate="onLoad" xlink:show="embed"/></g><g fill="#F5C10D"><use x="156.41" y="62.699" xmlns:xlink="http://www.w3.org/1999/xlink" xlink:href="#p" xlink:type="simple" xlink:actuate="onLoad" xlink:show="embed"/></g><g fill="#F5C10D"><use x="72.65" y="85.429" xmlns:xlink="http://www.w3.org/1999/xlink" xlink:href="#q" xlink:type="simple" xlink:actuate="onLoad" xlink:show="embed"/></g><g fill="#F5C10D"><use x="94.001" y="85.429" xmlns:xlink="http://www.w3.org/1999/xlink" xlink:href="#r" xlink:type="simple" xlink:actuate="onLoad" xlink:show="embed"/></g><g fill="#F5C10D"><use x="109.238" y="85.429" xmlns:xlink="http://www.w3.org/1999/xlink" xlink:href="#p" xlink:type="simple" xlink:actuate="onLoad" xlink:show="embed"/></g><g fill="#F5C10D"><use x="122.028" y="85.429" xmlns:xlink="http://www.w3.org/1999/xlink" xlink:href="#s" xlink:type="simple" xlink:actuate="onLoad" xlink:show="embed"/></g><g fill="#F5C10D"><use x="136.1" y="85.429" xmlns:xlink="http://www.w3.org/1999/xlink" xlink:href="#o" xlink:type="simple" xlink:actuate="onLoad" xlink:show="embed"/></g><g clip-path="url(#t)"><path fill="#FFF" d="M 1.238281 0.0625 C 0.679688 0.117188 0.203125 0.550781 0.125 1.101562 C 0.117188 1.171875 0.117188 1.191406 0.113281 1.261719 L 0.113281 15.722656 C 0.117188 15.792969 0.117188 15.808594 0.125 15.886719 C 0.234375 16.683594 1.289062 17.210938 2.011719 16.703125 C 2.28125 16.511719 2.46875 16.207031 2.515625 15.886719 C 2.523438 15.808594 2.519531 15.792969 2.523438 15.722656 L 2.523438 2.46875 L 15.855469 2.46875 C 15.925781 2.457031 15.945312 2.457031 16.019531 2.445312 C 16.6875 2.304688 17.140625 1.519531 16.90625 0.863281 C 16.761719 0.449219 16.371094 0.132812 15.9375 0.0703125 C 15.867188 0.0625 15.847656 0.0625 15.773438 0.0625 L 1.316406 0.0625 C 1.289062 0.0625 1.265625 0.0625 1.238281 0.0625"/></g><g clip-path="url(#u)"><path fill="#FFF" d="M 223.5625 112.007812 C 224.121094 111.953125 224.601562 111.519531 224.675781 110.964844 C 224.683594 110.894531 224.683594 110.878906 224.6875 110.808594 L 224.6875 96.347656 C 224.683594 96.277344 224.683594 96.257812 224.675781 96.183594 C 224.566406 95.386719 223.511719 94.855469 222.789062 95.367188 C 222.523438 95.554688 222.335938 95.859375 222.289062 96.183594 C 222.277344 96.257812 222.28125 96.277344 222.277344 96.347656 L 222.277344 109.601562 L 208.945312 109.601562 C 208.875 109.609375 208.855469 109.609375 208.78125 109.625 C 208.113281 109.765625 207.660156 110.550781 207.894531 111.207031 C 208.039062 111.617188 208.429688 111.9375 208.867188 112 C 208.9375 112.007812 208.953125 112.007812 209.03125 112.007812 L 223.484375 112.007812 C 223.511719 112.007812 223.535156 112.007812 223.5625 112.007812"/></g><g clip-path="url(#v)"><path fill="#FFF" d="M 223.5625 -0.015625 C 224.121094 0.0429688 224.601562 0.472656 224.675781 1.027344 C 224.683594 1.097656 224.683594 1.117188 224.6875 1.1875 L 224.6875 15.644531 C 224.683594 15.714844 224.683594 15.734375 224.675781 15.808594 C 224.566406 16.605469 223.511719 17.136719 222.789062 16.625 C 222.523438 16.4375 222.335938 16.132812 222.289062 15.808594 C 222.277344 15.734375 222.28125 15.714844 222.277344 15.644531 L 222.277344 2.390625 L 208.945312 2.390625 C 208.875 2.382812 208.855469 2.382812 208.78125 2.367188 C 208.113281 2.226562 207.660156 1.445312 207.894531 0.789062 C 208.039062 0.375 208.429688 0.0546875 208.867188 -0.00390625 C 208.9375 -0.015625 208.953125 -0.015625 209.03125 -0.015625 L 223.484375 -0.015625 C 223.511719 -0.015625 223.535156 -0.015625 223.5625 -0.015625"/></g><g clip-path="url(#w)"><path fill="#FFF" d="M 1.238281 112.011719 C 0.679688 111.957031 0.203125 111.527344 0.125 110.972656 C 0.117188 110.902344 0.117188 110.882812 0.113281 110.8125 L 0.113281 96.355469 C 0.117188 96.285156 0.117188 96.265625 0.125 96.191406 C 0.234375 95.390625 1.289062 94.863281 2.011719 95.375 C 2.28125 95.5625 2.46875 95.867188 2.515625 96.191406 C 2.523438 96.265625 2.519531 96.285156 2.523438 96.355469 L 2.523438 109.605469 L 15.855469 109.605469 C 15.925781 109.617188 15.945312 109.617188 16.019531 109.628906 C 16.6875 109.769531 17.140625 110.554688 16.90625 111.210938 C 16.761719 111.625 16.371094 111.941406 15.9375 112.003906 C 15.867188 112.011719 15.847656 112.011719 15.773438 112.011719 L 1.316406 112.011719 C 1.289062 112.011719 1.265625 112.011719 1.238281 112.011719"/></g></svg>