<svg xmlns="http://www.w3.org/2000/svg" xmlns:xlink="http://www.w3.org/1999/xlink" width="224.88" viewBox="0 0 224.88 112.5" height="112.5" version="1.0"><defs><g id="a"><path d="M 12.90625 0 L 2.3125 0 L 2.3125 -18.390625 L 12.90625 -18.390625 L 12.90625 -15.203125 L 6.21875 -15.203125 L 6.21875 -11.15625 L 12.4375 -11.15625 L 12.4375 -7.96875 L 6.21875 -7.96875 L 6.21875 -3.21875 L 12.90625 -3.21875 Z M 12.90625 0"/></g><g id="b"><path d="M 13.578125 0 L 12.234375 -4.375 L 5.53125 -4.375 L 4.203125 0 L 0 0 L 6.484375 -18.46875 L 11.265625 -18.46875 L 17.78125 0 Z M 11.3125 -7.65625 C 10.070312 -11.613281 9.375 -13.851562 9.21875 -14.375 C 9.070312 -14.894531 8.960938 -15.304688 8.890625 -15.609375 C 8.617188 -14.535156 7.828125 -11.882812 6.515625 -7.65625 Z M 11.3125 -7.65625"/></g><g id="c"><path d="M 13.171875 -5.109375 C 13.171875 -3.441406 12.570312 -2.128906 11.375 -1.171875 C 10.1875 -0.222656 8.523438 0.25 6.390625 0.25 C 4.429688 0.25 2.695312 -0.117188 1.1875 -0.859375 L 1.1875 -4.484375 C 2.425781 -3.929688 3.472656 -3.539062 4.328125 -3.3125 C 5.191406 -3.082031 5.976562 -2.96875 6.6875 -2.96875 C 7.539062 -2.96875 8.195312 -3.128906 8.65625 -3.453125 C 9.113281 -3.785156 9.34375 -4.273438 9.34375 -4.921875 C 9.34375 -5.273438 9.242188 -5.59375 9.046875 -5.875 C 8.847656 -6.15625 8.550781 -6.425781 8.15625 -6.6875 C 7.769531 -6.945312 6.976562 -7.363281 5.78125 -7.9375 C 4.65625 -8.46875 3.8125 -8.972656 3.25 -9.453125 C 2.6875 -9.941406 2.234375 -10.507812 1.890625 -11.15625 C 1.554688 -11.800781 1.390625 -12.554688 1.390625 -13.421875 C 1.390625 -15.046875 1.941406 -16.320312 3.046875 -17.25 C 4.148438 -18.1875 5.675781 -18.65625 7.625 -18.65625 C 8.582031 -18.65625 9.492188 -18.539062 10.359375 -18.3125 C 11.222656 -18.09375 12.128906 -17.773438 13.078125 -17.359375 L 11.828125 -14.328125 C 10.847656 -14.734375 10.035156 -15.015625 9.390625 -15.171875 C 8.742188 -15.328125 8.113281 -15.40625 7.5 -15.40625 C 6.757812 -15.40625 6.191406 -15.234375 5.796875 -14.890625 C 5.398438 -14.546875 5.203125 -14.097656 5.203125 -13.546875 C 5.203125 -13.203125 5.28125 -12.898438 5.4375 -12.640625 C 5.601562 -12.390625 5.859375 -12.144531 6.203125 -11.90625 C 6.554688 -11.664062 7.382812 -11.238281 8.6875 -10.625 C 10.40625 -9.800781 11.582031 -8.972656 12.21875 -8.140625 C 12.851562 -7.316406 13.171875 -6.304688 13.171875 -5.109375 Z M 13.171875 -5.109375"/></g><g id="d"><path d="M 9.40625 0 L 5.515625 0 L 5.515625 -15.140625 L 0.515625 -15.140625 L 0.515625 -18.390625 L 14.40625 -18.390625 L 14.40625 -15.140625 L 9.40625 -15.140625 Z M 9.40625 0"/></g><g id="f"><path d="M 6.15625 0 L 2.3125 0 L 2.3125 -18.390625 L 12.859375 -18.390625 L 12.859375 -15.203125 L 6.15625 -15.203125 L 6.15625 -10.453125 L 12.390625 -10.453125 L 12.390625 -7.265625 L 6.15625 -7.265625 Z M 6.15625 0"/></g><g id="g"><path d="M 6.21875 -10.234375 L 7.46875 -10.234375 C 8.707031 -10.234375 9.617188 -10.4375 10.203125 -10.84375 C 10.785156 -11.257812 11.078125 -11.90625 11.078125 -12.78125 C 11.078125 -13.65625 10.773438 -14.273438 10.171875 -14.640625 C 9.578125 -15.015625 8.648438 -15.203125 7.390625 -15.203125 L 6.21875 -15.203125 Z M 6.21875 -7.0625 L 6.21875 0 L 2.3125 0 L 2.3125 -18.390625 L 7.671875 -18.390625 C 10.171875 -18.390625 12.019531 -17.929688 13.21875 -17.015625 C 14.414062 -16.109375 15.015625 -14.734375 15.015625 -12.890625 C 15.015625 -11.804688 14.71875 -10.84375 14.125 -10 C 13.53125 -9.15625 12.6875 -8.492188 11.59375 -8.015625 C 14.363281 -3.878906 16.171875 -1.207031 17.015625 0 L 12.6875 0 L 8.296875 -7.0625 Z M 6.21875 -7.0625"/></g><g id="h"><path d="M 2.3125 0 L 2.3125 -18.390625 L 6.21875 -18.390625 L 6.21875 0 Z M 2.3125 0"/></g><g id="i"><path d="M 10.125 -15.40625 C 8.65625 -15.40625 7.519531 -14.851562 6.71875 -13.75 C 5.914062 -12.65625 5.515625 -11.117188 5.515625 -9.140625 C 5.515625 -5.046875 7.050781 -3 10.125 -3 C 11.414062 -3 12.976562 -3.320312 14.8125 -3.96875 L 14.8125 -0.6875 C 13.3125 -0.0625 11.628906 0.25 9.765625 0.25 C 7.085938 0.25 5.039062 -0.554688 3.625 -2.171875 C 2.207031 -3.796875 1.5 -6.128906 1.5 -9.171875 C 1.5 -11.085938 1.84375 -12.765625 2.53125 -14.203125 C 3.226562 -15.640625 4.226562 -16.738281 5.53125 -17.5 C 6.84375 -18.269531 8.375 -18.65625 10.125 -18.65625 C 11.914062 -18.65625 13.710938 -18.222656 15.515625 -17.359375 L 14.25 -14.1875 C 13.5625 -14.519531 12.867188 -14.804688 12.171875 -15.046875 C 11.484375 -15.285156 10.800781 -15.40625 10.125 -15.40625 Z M 10.125 -15.40625"/></g><g id="j"><path d="M 20.296875 -10.828125 C 20.296875 -7.328125 19.300781 -4.644531 17.3125 -2.78125 C 15.320312 -0.925781 12.445312 0 8.6875 0 L 2.671875 0 L 2.671875 -21.25 L 9.34375 -21.25 C 12.8125 -21.25 15.503906 -20.332031 17.421875 -18.5 C 19.335938 -16.664062 20.296875 -14.109375 20.296875 -10.828125 Z M 15.625 -10.71875 C 15.625 -15.28125 13.609375 -17.5625 9.578125 -17.5625 L 7.1875 -17.5625 L 7.1875 -3.71875 L 9.109375 -3.71875 C 13.453125 -3.71875 15.625 -6.050781 15.625 -10.71875 Z M 15.625 -10.71875"/></g><g id="k"><path d="M 7.1875 -11.8125 L 8.640625 -11.8125 C 10.054688 -11.8125 11.101562 -12.046875 11.78125 -12.515625 C 12.457031 -12.992188 12.796875 -13.742188 12.796875 -14.765625 C 12.796875 -15.773438 12.445312 -16.492188 11.75 -16.921875 C 11.0625 -17.347656 9.992188 -17.5625 8.546875 -17.5625 L 7.1875 -17.5625 Z M 7.1875 -8.15625 L 7.1875 0 L 2.671875 0 L 2.671875 -21.25 L 8.859375 -21.25 C 11.753906 -21.25 13.894531 -20.722656 15.28125 -19.671875 C 16.664062 -18.617188 17.359375 -17.023438 17.359375 -14.890625 C 17.359375 -13.640625 17.015625 -12.523438 16.328125 -11.546875 C 15.640625 -10.578125 14.664062 -9.816406 13.40625 -9.265625 C 16.601562 -4.484375 18.6875 -1.394531 19.65625 0 L 14.65625 0 L 9.578125 -8.15625 Z M 7.1875 -8.15625"/></g><g id="l"><path d="M 21.953125 -10.65625 C 21.953125 -7.132812 21.082031 -4.425781 19.34375 -2.53125 C 17.601562 -0.644531 15.101562 0.296875 11.84375 0.296875 C 8.59375 0.296875 6.09375 -0.644531 4.34375 -2.53125 C 2.601562 -4.425781 1.734375 -7.144531 1.734375 -10.6875 C 1.734375 -14.21875 2.601562 -16.914062 4.34375 -18.78125 C 6.09375 -20.644531 8.601562 -21.578125 11.875 -21.578125 C 15.132812 -21.578125 17.628906 -20.632812 19.359375 -18.75 C 21.085938 -16.875 21.953125 -14.175781 21.953125 -10.65625 Z M 6.453125 -10.65625 C 6.453125 -8.28125 6.898438 -6.488281 7.796875 -5.28125 C 8.703125 -4.082031 10.050781 -3.484375 11.84375 -3.484375 C 15.4375 -3.484375 17.234375 -5.875 17.234375 -10.65625 C 17.234375 -15.4375 15.445312 -17.828125 11.875 -17.828125 C 10.082031 -17.828125 8.726562 -17.222656 7.8125 -16.015625 C 6.90625 -14.816406 6.453125 -13.03125 6.453125 -10.65625 Z M 6.453125 -10.65625"/></g><g id="m"><path d="M 19.96875 -21.25 L 19.96875 -7.5 C 19.96875 -5.925781 19.613281 -4.546875 18.90625 -3.359375 C 18.207031 -2.179688 17.191406 -1.273438 15.859375 -0.640625 C 14.535156 -0.015625 12.96875 0.296875 11.15625 0.296875 C 8.425781 0.296875 6.304688 -0.398438 4.796875 -1.796875 C 3.285156 -3.203125 2.53125 -5.125 2.53125 -7.5625 L 2.53125 -21.25 L 7.015625 -21.25 L 7.015625 -8.234375 C 7.015625 -6.597656 7.34375 -5.394531 8 -4.625 C 8.664062 -3.863281 9.757812 -3.484375 11.28125 -3.484375 C 12.75 -3.484375 13.816406 -3.867188 14.484375 -4.640625 C 15.148438 -5.410156 15.484375 -6.617188 15.484375 -8.265625 L 15.484375 -21.25 Z M 19.96875 -21.25"/></g><g id="n"><path d="M 10.734375 -11.9375 L 19.171875 -11.9375 L 19.171875 -0.921875 C 17.804688 -0.472656 16.519531 -0.160156 15.3125 0.015625 C 14.101562 0.203125 12.867188 0.296875 11.609375 0.296875 C 8.398438 0.296875 5.953125 -0.644531 4.265625 -2.53125 C 2.578125 -4.414062 1.734375 -7.125 1.734375 -10.65625 C 1.734375 -14.082031 2.710938 -16.753906 4.671875 -18.671875 C 6.628906 -20.585938 9.347656 -21.546875 12.828125 -21.546875 C 15.015625 -21.546875 17.117188 -21.113281 19.140625 -20.25 L 17.640625 -16.640625 C 16.085938 -17.410156 14.472656 -17.796875 12.796875 -17.796875 C 10.859375 -17.796875 9.300781 -17.140625 8.125 -15.828125 C 6.945312 -14.523438 6.359375 -12.769531 6.359375 -10.5625 C 6.359375 -8.257812 6.832031 -6.5 7.78125 -5.28125 C 8.726562 -4.0625 10.101562 -3.453125 11.90625 -3.453125 C 12.84375 -3.453125 13.796875 -3.550781 14.765625 -3.75 L 14.765625 -8.1875 L 10.734375 -8.1875 Z M 10.734375 -11.9375"/></g><g id="o"><path d="M 20.09375 0 L 15.59375 0 L 15.59375 -9.171875 L 7.1875 -9.171875 L 7.1875 0 L 2.671875 0 L 2.671875 -21.25 L 7.1875 -21.25 L 7.1875 -12.921875 L 15.59375 -12.921875 L 15.59375 -21.25 L 20.09375 -21.25 Z M 20.09375 0"/></g><g id="p"><path d="M 10.875 0 L 6.359375 0 L 6.359375 -17.5 L 0.59375 -17.5 L 0.59375 -21.25 L 16.640625 -21.25 L 16.640625 -17.5 L 10.875 -17.5 Z M 10.875 0"/></g><g id="q"><path d="M 23.375 0 L 18.234375 0 L 15.359375 -11.15625 C 15.253906 -11.5625 15.070312 -12.382812 14.8125 -13.625 C 14.5625 -14.875 14.414062 -15.707031 14.375 -16.125 C 14.3125 -15.601562 14.164062 -14.765625 13.9375 -13.609375 C 13.707031 -12.453125 13.53125 -11.628906 13.40625 -11.140625 L 10.53125 0 L 5.421875 0 L 0 -21.25 L 4.4375 -21.25 L 7.15625 -9.65625 C 7.625 -7.507812 7.96875 -5.648438 8.1875 -4.078125 C 8.238281 -4.628906 8.367188 -5.484375 8.578125 -6.640625 C 8.785156 -7.804688 8.984375 -8.707031 9.171875 -9.34375 L 12.265625 -21.25 L 16.53125 -21.25 L 19.625 -9.34375 C 19.757812 -8.8125 19.925781 -8 20.125 -6.90625 C 20.332031 -5.8125 20.488281 -4.867188 20.59375 -4.078125 C 20.6875 -4.835938 20.835938 -5.78125 21.046875 -6.90625 C 21.265625 -8.039062 21.460938 -8.957031 21.640625 -9.65625 L 24.34375 -21.25 L 28.78125 -21.25 Z M 23.375 0"/></g><g id="r"><path d="M 15.6875 0 L 14.140625 -5.0625 L 6.390625 -5.0625 L 4.859375 0 L 0 0 L 7.5 -21.328125 L 13.015625 -21.328125 L 20.53125 0 Z M 13.0625 -8.84375 C 11.632812 -13.425781 10.832031 -16.015625 10.65625 -16.609375 C 10.476562 -17.210938 10.351562 -17.6875 10.28125 -18.03125 C 9.957031 -16.789062 9.039062 -13.726562 7.53125 -8.84375 Z M 13.0625 -8.84375"/></g><g id="s"><path d="M 11.703125 -17.796875 C 10.003906 -17.796875 8.6875 -17.160156 7.75 -15.890625 C 6.820312 -14.617188 6.359375 -12.84375 6.359375 -10.5625 C 6.359375 -5.820312 8.140625 -3.453125 11.703125 -3.453125 C 13.191406 -3.453125 15 -3.828125 17.125 -4.578125 L 17.125 -0.796875 C 15.375 -0.0664062 13.425781 0.296875 11.28125 0.296875 C 8.1875 0.296875 5.820312 -0.640625 4.1875 -2.515625 C 2.550781 -4.390625 1.734375 -7.082031 1.734375 -10.59375 C 1.734375 -12.800781 2.132812 -14.734375 2.9375 -16.390625 C 3.738281 -18.054688 4.890625 -19.332031 6.390625 -20.21875 C 7.898438 -21.101562 9.671875 -21.546875 11.703125 -21.546875 C 13.765625 -21.546875 15.835938 -21.050781 17.921875 -20.0625 L 16.46875 -16.390625 C 15.675781 -16.773438 14.875 -17.101562 14.0625 -17.375 C 13.257812 -17.65625 12.472656 -17.796875 11.703125 -17.796875 Z M 11.703125 -17.796875"/></g><clipPath id="t"><path d="M 0.4375 0.0742188 L 17 0.0742188 L 17 17 L 0.4375 17 Z M 0.4375 0.0742188"/></clipPath><clipPath id="u"><path d="M 207.550781 95.113281 L 224.324219 95.113281 L 224.324219 111.992188 L 207.550781 111.992188 Z M 207.550781 95.113281"/></clipPath><clipPath id="v"><path d="M 207.550781 0 L 224.324219 0 L 224.324219 17 L 207.550781 17 Z M 207.550781 0"/></clipPath><clipPath id="w"><path d="M 0.4375 95.1875 L 17 95.1875 L 17 112 L 0.4375 112 Z M 0.4375 95.1875"/></clipPath></defs><g fill="#FFF"><use x="35.584" y="35.204" xmlns:xlink="http://www.w3.org/1999/xlink" xlink:href="#a" xlink:type="simple" xlink:actuate="onLoad" xlink:show="embed"/></g><g fill="#FFF"><use x="49.419" y="35.204" xmlns:xlink="http://www.w3.org/1999/xlink" xlink:href="#b" xlink:type="simple" xlink:actuate="onLoad" xlink:show="embed"/></g><g fill="#FFF"><use x="66.6" y="35.204" xmlns:xlink="http://www.w3.org/1999/xlink" xlink:href="#c" xlink:type="simple" xlink:actuate="onLoad" xlink:show="embed"/></g><g fill="#FFF"><use x="80.196" y="35.204" xmlns:xlink="http://www.w3.org/1999/xlink" xlink:href="#d" xlink:type="simple" xlink:actuate="onLoad" xlink:show="embed"/></g><g fill="#FFF"><use x="94.521" y="35.204" xmlns:xlink="http://www.w3.org/1999/xlink" xlink:href="#e" xlink:type="simple" xlink:actuate="onLoad" xlink:show="embed"/></g><g fill="#FFF"><use x="100.621" y="35.204" xmlns:xlink="http://www.w3.org/1999/xlink" xlink:href="#b" xlink:type="simple" xlink:actuate="onLoad" xlink:show="embed"/></g><g fill="#FFF"><use x="117.802" y="35.204" xmlns:xlink="http://www.w3.org/1999/xlink" xlink:href="#f" xlink:type="simple" xlink:actuate="onLoad" xlink:show="embed"/></g><g fill="#FFF"><use x="131.347" y="35.204" xmlns:xlink="http://www.w3.org/1999/xlink" xlink:href="#g" xlink:type="simple" xlink:actuate="onLoad" xlink:show="embed"/></g><g fill="#FFF"><use x="147.761" y="35.204" xmlns:xlink="http://www.w3.org/1999/xlink" xlink:href="#h" xlink:type="simple" xlink:actuate="onLoad" xlink:show="embed"/></g><g fill="#FFF"><use x="155.696" y="35.204" xmlns:xlink="http://www.w3.org/1999/xlink" xlink:href="#i" xlink:type="simple" xlink:actuate="onLoad" xlink:show="embed"/></g><g fill="#FFF"><use x="171.519" y="35.204" xmlns:xlink="http://www.w3.org/1999/xlink" xlink:href="#b" xlink:type="simple" xlink:actuate="onLoad" xlink:show="embed"/></g><g fill="#F5C10D"><use x="35.678" y="65.494" xmlns:xlink="http://www.w3.org/1999/xlink" xlink:href="#j" xlink:type="simple" xlink:actuate="onLoad" xlink:show="embed"/></g><g fill="#F5C10D"><use x="58.209" y="65.494" xmlns:xlink="http://www.w3.org/1999/xlink" xlink:href="#k" xlink:type="simple" xlink:actuate="onLoad" xlink:show="embed"/></g><g fill="#F5C10D"><use x="78.359" y="65.494" xmlns:xlink="http://www.w3.org/1999/xlink" xlink:href="#l" xlink:type="simple" xlink:actuate="onLoad" xlink:show="embed"/></g><g fill="#F5C10D"><use x="102.547" y="65.494" xmlns:xlink="http://www.w3.org/1999/xlink" xlink:href="#m" xlink:type="simple" xlink:actuate="onLoad" xlink:show="embed"/></g><g fill="#F5C10D"><use x="125.543" y="65.494" xmlns:xlink="http://www.w3.org/1999/xlink" xlink:href="#n" xlink:type="simple" xlink:actuate="onLoad" xlink:show="embed"/></g><g fill="#F5C10D"><use x="147.596" y="65.494" xmlns:xlink="http://www.w3.org/1999/xlink" xlink:href="#o" xlink:type="simple" xlink:actuate="onLoad" xlink:show="embed"/></g><g fill="#F5C10D"><use x="170.868" y="65.494" xmlns:xlink="http://www.w3.org/1999/xlink" xlink:href="#p" xlink:type="simple" xlink:actuate="onLoad" xlink:show="embed"/></g><g fill="#F5C10D"><use x="58.016" y="96.118" xmlns:xlink="http://www.w3.org/1999/xlink" xlink:href="#q" xlink:type="simple" xlink:actuate="onLoad" xlink:show="embed"/></g><g fill="#F5C10D"><use x="86.784" y="96.118" xmlns:xlink="http://www.w3.org/1999/xlink" xlink:href="#r" xlink:type="simple" xlink:actuate="onLoad" xlink:show="embed"/></g><g fill="#F5C10D"><use x="107.313" y="96.118" xmlns:xlink="http://www.w3.org/1999/xlink" xlink:href="#p" xlink:type="simple" xlink:actuate="onLoad" xlink:show="embed"/></g><g fill="#F5C10D"><use x="124.544" y="96.118" xmlns:xlink="http://www.w3.org/1999/xlink" xlink:href="#s" xlink:type="simple" xlink:actuate="onLoad" xlink:show="embed"/></g><g fill="#F5C10D"><use x="143.505" y="96.118" xmlns:xlink="http://www.w3.org/1999/xlink" xlink:href="#o" xlink:type="simple" xlink:actuate="onLoad" xlink:show="embed"/></g><g clip-path="url(#t)"><path fill="#FFF" d="M 1.238281 0.0625 C 0.679688 0.117188 0.203125 0.550781 0.125 1.101562 C 0.117188 1.171875 0.117188 1.191406 0.113281 1.261719 L 0.113281 15.722656 C 0.117188 15.792969 0.117188 15.808594 0.125 15.886719 C 0.234375 16.683594 1.289062 17.210938 2.011719 16.703125 C 2.28125 16.511719 2.46875 16.207031 2.515625 15.886719 C 2.523438 15.808594 2.519531 15.792969 2.523438 15.722656 L 2.523438 2.46875 L 15.855469 2.46875 C 15.925781 2.457031 15.945312 2.457031 16.019531 2.445312 C 16.6875 2.304688 17.140625 1.519531 16.90625 0.863281 C 16.761719 0.449219 16.371094 0.132812 15.9375 0.0703125 C 15.867188 0.0625 15.847656 0.0625 15.773438 0.0625 L 1.316406 0.0625 C 1.289062 0.0625 1.265625 0.0625 1.238281 0.0625"/></g><g clip-path="url(#u)"><path fill="#FFF" d="M 223.5625 112.007812 C 224.121094 111.953125 224.601562 111.519531 224.675781 110.964844 C 224.683594 110.894531 224.683594 110.878906 224.6875 110.808594 L 224.6875 96.347656 C 224.683594 96.277344 224.683594 96.257812 224.675781 96.183594 C 224.566406 95.386719 223.511719 94.855469 222.789062 95.367188 C 222.523438 95.554688 222.335938 95.859375 222.289062 96.183594 C 222.277344 96.257812 222.28125 96.277344 222.277344 96.347656 L 222.277344 109.601562 L 208.945312 109.601562 C 208.875 109.609375 208.855469 109.609375 208.78125 109.625 C 208.113281 109.765625 207.660156 110.550781 207.894531 111.207031 C 208.039062 111.617188 208.429688 111.9375 208.867188 112 C 208.9375 112.007812 208.953125 112.007812 209.03125 112.007812 L 223.484375 112.007812 C 223.511719 112.007812 223.535156 112.007812 223.5625 112.007812"/></g><g clip-path="url(#v)"><path fill="#FFF" d="M 223.5625 -0.015625 C 224.121094 0.0429688 224.601562 0.472656 224.675781 1.027344 C 224.683594 1.097656 224.683594 1.117188 224.6875 1.1875 L 224.6875 15.644531 C 224.683594 15.714844 224.683594 15.734375 224.675781 15.808594 C 224.566406 16.605469 223.511719 17.136719 222.789062 16.625 C 222.523438 16.4375 222.335938 16.132812 222.289062 15.808594 C 222.277344 15.734375 222.28125 15.714844 222.277344 15.644531 L 222.277344 2.390625 L 208.945312 2.390625 C 208.875 2.382812 208.855469 2.382812 208.78125 2.367188 C 208.113281 2.226562 207.660156 1.445312 207.894531 0.789062 C 208.039062 0.375 208.429688 0.0546875 208.867188 -0.00390625 C 208.9375 -0.015625 208.953125 -0.015625 209.03125 -0.015625 L 223.484375 -0.015625 C 223.511719 -0.015625 223.535156 -0.015625 223.5625 -0.015625"/></g><g clip-path="url(#w)"><path fill="#FFF" d="M 1.238281 112.011719 C 0.679688 111.957031 0.203125 111.527344 0.125 110.972656 C 0.117188 110.902344 0.117188 110.882812 0.113281 110.8125 L 0.113281 96.355469 C 0.117188 96.285156 0.117188 96.265625 0.125 96.191406 C 0.234375 95.390625 1.289062 94.863281 2.011719 95.375 C 2.28125 95.5625 2.46875 95.867188 2.515625 96.191406 C 2.523438 96.265625 2.519531 96.285156 2.523438 96.355469 L 2.523438 109.605469 L 15.855469 109.605469 C 15.925781 109.617188 15.945312 109.617188 16.019531 109.628906 C 16.6875 109.769531 17.140625 110.554688 16.90625 111.210938 C 16.761719 111.625 16.371094 111.941406 15.9375 112.003906 C 15.867188 112.011719 15.847656 112.011719 15.773438 112.011719 L 1.316406 112.011719 C 1.289062 112.011719 1.265625 112.011719 1.238281 112.011719"/></g></svg>