<svg xmlns="http://www.w3.org/2000/svg" xmlns:xlink="http://www.w3.org/1999/xlink" width="224.88" viewBox="0 0 224.88 112.5" height="112.5" version="1.0"><defs><g id="a"><path d="M 9.296875 0 L 1.671875 0 L 1.671875 -13.25 L 9.296875 -13.25 L 9.296875 -10.953125 L 4.484375 -10.953125 L 4.484375 -8.046875 L 8.96875 -8.046875 L 8.96875 -5.734375 L 4.484375 -5.734375 L 4.484375 -2.328125 L 9.296875 -2.328125 Z M 9.296875 0"/></g><g id="b"><path d="M 9.78125 0 L 8.8125 -3.15625 L 3.984375 -3.15625 L 3.03125 0 L 0 0 L 4.671875 -13.3125 L 8.109375 -13.3125 L 12.8125 0 Z M 8.140625 -5.515625 C 7.253906 -8.367188 6.753906 -9.984375 6.640625 -10.359375 C 6.535156 -10.734375 6.457031 -11.03125 6.40625 -11.25 C 6.207031 -10.476562 5.632812 -8.566406 4.6875 -5.515625 Z M 8.140625 -5.515625"/></g><g id="c"><path d="M 9.484375 -3.6875 C 9.484375 -2.488281 9.050781 -1.539062 8.1875 -0.84375 C 7.332031 -0.15625 6.140625 0.1875 4.609375 0.1875 C 3.191406 0.1875 1.941406 -0.078125 0.859375 -0.609375 L 0.859375 -3.234375 C 1.742188 -2.828125 2.492188 -2.539062 3.109375 -2.375 C 3.734375 -2.21875 4.304688 -2.140625 4.828125 -2.140625 C 5.441406 -2.140625 5.910156 -2.253906 6.234375 -2.484375 C 6.566406 -2.722656 6.734375 -3.078125 6.734375 -3.546875 C 6.734375 -3.804688 6.660156 -4.035156 6.515625 -4.234375 C 6.367188 -4.441406 6.15625 -4.640625 5.875 -4.828125 C 5.59375 -5.015625 5.019531 -5.3125 4.15625 -5.71875 C 3.351562 -6.101562 2.75 -6.46875 2.34375 -6.8125 C 1.9375 -7.164062 1.609375 -7.570312 1.359375 -8.03125 C 1.117188 -8.5 1 -9.046875 1 -9.671875 C 1 -10.835938 1.394531 -11.753906 2.1875 -12.421875 C 2.988281 -13.097656 4.09375 -13.4375 5.5 -13.4375 C 6.1875 -13.4375 6.84375 -13.351562 7.46875 -13.1875 C 8.09375 -13.03125 8.742188 -12.804688 9.421875 -12.515625 L 8.515625 -10.328125 C 7.804688 -10.617188 7.222656 -10.820312 6.765625 -10.9375 C 6.304688 -11.050781 5.851562 -11.109375 5.40625 -11.109375 C 4.875 -11.109375 4.460938 -10.984375 4.171875 -10.734375 C 3.890625 -10.484375 3.75 -10.160156 3.75 -9.765625 C 3.75 -9.515625 3.804688 -9.296875 3.921875 -9.109375 C 4.035156 -8.929688 4.21875 -8.753906 4.46875 -8.578125 C 4.71875 -8.410156 5.3125 -8.101562 6.25 -7.65625 C 7.488281 -7.0625 8.335938 -6.460938 8.796875 -5.859375 C 9.253906 -5.265625 9.484375 -4.539062 9.484375 -3.6875 Z M 9.484375 -3.6875"/></g><g id="d"><path d="M 6.78125 0 L 3.96875 0 L 3.96875 -10.90625 L 0.375 -10.90625 L 0.375 -13.25 L 10.375 -13.25 L 10.375 -10.90625 L 6.78125 -10.90625 Z M 6.78125 0"/></g><g id="f"><path d="M 4.4375 0 L 1.671875 0 L 1.671875 -13.25 L 9.265625 -13.25 L 9.265625 -10.953125 L 4.4375 -10.953125 L 4.4375 -7.53125 L 8.921875 -7.53125 L 8.921875 -5.234375 L 4.4375 -5.234375 Z M 4.4375 0"/></g><g id="g"><path d="M 4.484375 -7.375 L 5.390625 -7.375 C 6.273438 -7.375 6.925781 -7.519531 7.34375 -7.8125 C 7.769531 -8.101562 7.984375 -8.566406 7.984375 -9.203125 C 7.984375 -9.835938 7.765625 -10.285156 7.328125 -10.546875 C 6.898438 -10.816406 6.234375 -10.953125 5.328125 -10.953125 L 4.484375 -10.953125 Z M 4.484375 -5.078125 L 4.484375 0 L 1.671875 0 L 1.671875 -13.25 L 5.53125 -13.25 C 7.332031 -13.25 8.664062 -12.921875 9.53125 -12.265625 C 10.394531 -11.609375 10.828125 -10.613281 10.828125 -9.28125 C 10.828125 -8.5 10.609375 -7.804688 10.171875 -7.203125 C 9.742188 -6.597656 9.140625 -6.125 8.359375 -5.78125 C 10.347656 -2.800781 11.644531 -0.875 12.25 0 L 9.140625 0 L 5.96875 -5.078125 Z M 4.484375 -5.078125"/></g><g id="h"><path d="M 1.671875 0 L 1.671875 -13.25 L 4.484375 -13.25 L 4.484375 0 Z M 1.671875 0"/></g><g id="i"><path d="M 7.296875 -11.109375 C 6.234375 -11.109375 5.410156 -10.707031 4.828125 -9.90625 C 4.253906 -9.113281 3.96875 -8.007812 3.96875 -6.59375 C 3.96875 -3.632812 5.078125 -2.15625 7.296875 -2.15625 C 8.222656 -2.15625 9.347656 -2.390625 10.671875 -2.859375 L 10.671875 -0.5 C 9.585938 -0.0390625 8.375 0.1875 7.03125 0.1875 C 5.101562 0.1875 3.628906 -0.394531 2.609375 -1.5625 C 1.585938 -2.738281 1.078125 -4.421875 1.078125 -6.609375 C 1.078125 -7.984375 1.328125 -9.1875 1.828125 -10.21875 C 2.328125 -11.257812 3.046875 -12.054688 3.984375 -12.609375 C 4.929688 -13.160156 6.035156 -13.4375 7.296875 -13.4375 C 8.585938 -13.4375 9.878906 -13.128906 11.171875 -12.515625 L 10.265625 -10.21875 C 9.773438 -10.457031 9.273438 -10.664062 8.765625 -10.84375 C 8.265625 -11.019531 7.773438 -11.109375 7.296875 -11.109375 Z M 7.296875 -11.109375"/></g><g id="j"><path d="M 14.625 -7.796875 C 14.625 -5.273438 13.90625 -3.34375 12.46875 -2 C 11.039062 -0.664062 8.972656 0 6.265625 0 L 1.921875 0 L 1.921875 -15.296875 L 6.734375 -15.296875 C 9.234375 -15.296875 11.171875 -14.632812 12.546875 -13.3125 C 13.929688 -12 14.625 -10.160156 14.625 -7.796875 Z M 11.25 -7.71875 C 11.25 -11 9.796875 -12.640625 6.890625 -12.640625 L 5.171875 -12.640625 L 5.171875 -2.6875 L 6.5625 -2.6875 C 9.6875 -2.6875 11.25 -4.363281 11.25 -7.71875 Z M 11.25 -7.71875"/></g><g id="k"><path d="M 5.171875 -8.515625 L 6.21875 -8.515625 C 7.238281 -8.515625 7.992188 -8.679688 8.484375 -9.015625 C 8.972656 -9.359375 9.21875 -9.898438 9.21875 -10.640625 C 9.21875 -11.359375 8.96875 -11.867188 8.46875 -12.171875 C 7.96875 -12.484375 7.195312 -12.640625 6.15625 -12.640625 L 5.171875 -12.640625 Z M 5.171875 -5.875 L 5.171875 0 L 1.921875 0 L 1.921875 -15.296875 L 6.390625 -15.296875 C 8.460938 -15.296875 10 -14.914062 11 -14.15625 C 12 -13.40625 12.5 -12.257812 12.5 -10.71875 C 12.5 -9.820312 12.25 -9.019531 11.75 -8.3125 C 11.257812 -7.613281 10.5625 -7.066406 9.65625 -6.671875 C 11.957031 -3.222656 13.457031 -1 14.15625 0 L 10.546875 0 L 6.890625 -5.875 Z M 5.171875 -5.875"/></g><g id="l"><path d="M 15.8125 -7.671875 C 15.8125 -5.140625 15.179688 -3.191406 13.921875 -1.828125 C 12.671875 -0.472656 10.875 0.203125 8.53125 0.203125 C 6.1875 0.203125 4.382812 -0.472656 3.125 -1.828125 C 1.875 -3.191406 1.25 -5.144531 1.25 -7.6875 C 1.25 -10.238281 1.878906 -12.1875 3.140625 -13.53125 C 4.398438 -14.875 6.203125 -15.546875 8.546875 -15.546875 C 10.898438 -15.546875 12.695312 -14.867188 13.9375 -13.515625 C 15.1875 -12.160156 15.8125 -10.210938 15.8125 -7.671875 Z M 4.640625 -7.671875 C 4.640625 -5.960938 4.960938 -4.675781 5.609375 -3.8125 C 6.265625 -2.945312 7.238281 -2.515625 8.53125 -2.515625 C 11.125 -2.515625 12.421875 -4.234375 12.421875 -7.671875 C 12.421875 -11.117188 11.128906 -12.84375 8.546875 -12.84375 C 7.253906 -12.84375 6.28125 -12.40625 5.625 -11.53125 C 4.96875 -10.664062 4.640625 -9.378906 4.640625 -7.671875 Z M 4.640625 -7.671875"/></g><g id="m"><path d="M 14.375 -15.296875 L 14.375 -5.40625 C 14.375 -4.269531 14.117188 -3.273438 13.609375 -2.421875 C 13.109375 -1.578125 12.378906 -0.925781 11.421875 -0.46875 C 10.472656 -0.0195312 9.347656 0.203125 8.046875 0.203125 C 6.078125 0.203125 4.546875 -0.296875 3.453125 -1.296875 C 2.367188 -2.304688 1.828125 -3.6875 1.828125 -5.4375 L 1.828125 -15.296875 L 5.0625 -15.296875 L 5.0625 -5.9375 C 5.0625 -4.757812 5.296875 -3.894531 5.765625 -3.34375 C 6.242188 -2.789062 7.03125 -2.515625 8.125 -2.515625 C 9.1875 -2.515625 9.953125 -2.789062 10.421875 -3.34375 C 10.898438 -3.894531 11.140625 -4.765625 11.140625 -5.953125 L 11.140625 -15.296875 Z M 14.375 -15.296875"/></g><g id="n"><path d="M 7.734375 -8.59375 L 13.8125 -8.59375 L 13.8125 -0.65625 C 12.820312 -0.332031 11.890625 -0.109375 11.015625 0.015625 C 10.148438 0.140625 9.265625 0.203125 8.359375 0.203125 C 6.054688 0.203125 4.296875 -0.472656 3.078125 -1.828125 C 1.859375 -3.179688 1.25 -5.128906 1.25 -7.671875 C 1.25 -10.140625 1.953125 -12.0625 3.359375 -13.4375 C 4.773438 -14.820312 6.738281 -15.515625 9.25 -15.515625 C 10.8125 -15.515625 12.320312 -15.203125 13.78125 -14.578125 L 12.703125 -11.984375 C 11.585938 -12.546875 10.425781 -12.828125 9.21875 -12.828125 C 7.820312 -12.828125 6.695312 -12.351562 5.84375 -11.40625 C 5 -10.46875 4.578125 -9.203125 4.578125 -7.609375 C 4.578125 -5.953125 4.914062 -4.679688 5.59375 -3.796875 C 6.28125 -2.921875 7.273438 -2.484375 8.578125 -2.484375 C 9.253906 -2.484375 9.941406 -2.554688 10.640625 -2.703125 L 10.640625 -5.890625 L 7.734375 -5.890625 Z M 7.734375 -8.59375"/></g><g id="o"><path d="M 14.46875 0 L 11.234375 0 L 11.234375 -6.609375 L 5.171875 -6.609375 L 5.171875 0 L 1.921875 0 L 1.921875 -15.296875 L 5.171875 -15.296875 L 5.171875 -9.3125 L 11.234375 -9.3125 L 11.234375 -15.296875 L 14.46875 -15.296875 Z M 14.46875 0"/></g><g id="p"><path d="M 7.828125 0 L 4.578125 0 L 4.578125 -12.609375 L 0.421875 -12.609375 L 0.421875 -15.296875 L 11.984375 -15.296875 L 11.984375 -12.609375 L 7.828125 -12.609375 Z M 7.828125 0"/></g><g id="q"><path d="M 16.828125 0 L 13.140625 0 L 11.0625 -8.046875 C 10.988281 -8.328125 10.859375 -8.914062 10.671875 -9.8125 C 10.484375 -10.707031 10.378906 -11.3125 10.359375 -11.625 C 10.316406 -11.238281 10.207031 -10.628906 10.03125 -9.796875 C 9.863281 -8.960938 9.738281 -8.367188 9.65625 -8.015625 L 7.59375 0 L 3.90625 0 L 0 -15.296875 L 3.1875 -15.296875 L 5.15625 -6.953125 C 5.488281 -5.410156 5.734375 -4.070312 5.890625 -2.9375 C 5.929688 -3.332031 6.023438 -3.945312 6.171875 -4.78125 C 6.328125 -5.625 6.472656 -6.273438 6.609375 -6.734375 L 8.828125 -15.296875 L 11.90625 -15.296875 L 14.125 -6.734375 C 14.226562 -6.347656 14.351562 -5.757812 14.5 -4.96875 C 14.644531 -4.1875 14.753906 -3.507812 14.828125 -2.9375 C 14.898438 -3.488281 15.007812 -4.171875 15.15625 -4.984375 C 15.3125 -5.796875 15.457031 -6.453125 15.59375 -6.953125 L 17.53125 -15.296875 L 20.71875 -15.296875 Z M 16.828125 0"/></g><g id="r"><path d="M 11.296875 0 L 10.1875 -3.640625 L 4.609375 -3.640625 L 3.5 0 L 0 0 L 5.40625 -15.359375 L 9.375 -15.359375 L 14.796875 0 Z M 9.40625 -6.359375 C 8.382812 -9.660156 7.804688 -11.523438 7.671875 -11.953125 C 7.546875 -12.390625 7.457031 -12.734375 7.40625 -12.984375 C 7.175781 -12.097656 6.515625 -9.890625 5.421875 -6.359375 Z M 9.40625 -6.359375"/></g><g id="s"><path d="M 8.421875 -12.828125 C 7.203125 -12.828125 6.253906 -12.363281 5.578125 -11.4375 C 4.910156 -10.519531 4.578125 -9.242188 4.578125 -7.609375 C 4.578125 -4.191406 5.859375 -2.484375 8.421875 -2.484375 C 9.492188 -2.484375 10.796875 -2.753906 12.328125 -3.296875 L 12.328125 -0.578125 C 11.078125 -0.0546875 9.675781 0.203125 8.125 0.203125 C 5.894531 0.203125 4.191406 -0.46875 3.015625 -1.8125 C 1.835938 -3.164062 1.25 -5.101562 1.25 -7.625 C 1.25 -9.21875 1.535156 -10.613281 2.109375 -11.8125 C 2.691406 -13.007812 3.523438 -13.925781 4.609375 -14.5625 C 5.691406 -15.195312 6.960938 -15.515625 8.421875 -15.515625 C 9.910156 -15.515625 11.40625 -15.15625 12.90625 -14.4375 L 11.859375 -11.8125 C 11.285156 -12.082031 10.707031 -12.316406 10.125 -12.515625 C 9.550781 -12.722656 8.984375 -12.828125 8.421875 -12.828125 Z M 8.421875 -12.828125"/></g><clipPath id="t"><path d="M 0.4375 0.0742188 L 17 0.0742188 L 17 17 L 0.4375 17 Z M 0.4375 0.0742188"/></clipPath><clipPath id="u"><path d="M 207.550781 95.113281 L 224.324219 95.113281 L 224.324219 111.992188 L 207.550781 111.992188 Z M 207.550781 95.113281"/></clipPath><clipPath id="v"><path d="M 207.550781 0 L 224.324219 0 L 224.324219 17 L 207.550781 17 Z M 207.550781 0"/></clipPath><clipPath id="w"><path d="M 0.4375 95.1875 L 17 95.1875 L 17 112 L 0.4375 112 Z M 0.4375 95.1875"/></clipPath></defs><g fill="#FFF"><use x="57.073" y="41.019" xmlns:xlink="http://www.w3.org/1999/xlink" xlink:href="#a" xlink:type="simple" xlink:actuate="onLoad" xlink:show="embed"/></g><g fill="#FFF"><use x="67.04" y="41.019" xmlns:xlink="http://www.w3.org/1999/xlink" xlink:href="#b" xlink:type="simple" xlink:actuate="onLoad" xlink:show="embed"/></g><g fill="#FFF"><use x="79.417" y="41.019" xmlns:xlink="http://www.w3.org/1999/xlink" xlink:href="#c" xlink:type="simple" xlink:actuate="onLoad" xlink:show="embed"/></g><g fill="#FFF"><use x="89.211" y="41.019" xmlns:xlink="http://www.w3.org/1999/xlink" xlink:href="#d" xlink:type="simple" xlink:actuate="onLoad" xlink:show="embed"/></g><g fill="#FFF"><use x="99.532" y="41.019" xmlns:xlink="http://www.w3.org/1999/xlink" xlink:href="#e" xlink:type="simple" xlink:actuate="onLoad" xlink:show="embed"/></g><g fill="#FFF"><use x="103.925" y="41.019" xmlns:xlink="http://www.w3.org/1999/xlink" xlink:href="#b" xlink:type="simple" xlink:actuate="onLoad" xlink:show="embed"/></g><g fill="#FFF"><use x="116.302" y="41.019" xmlns:xlink="http://www.w3.org/1999/xlink" xlink:href="#f" xlink:type="simple" xlink:actuate="onLoad" xlink:show="embed"/></g><g fill="#FFF"><use x="126.061" y="41.019" xmlns:xlink="http://www.w3.org/1999/xlink" xlink:href="#g" xlink:type="simple" xlink:actuate="onLoad" xlink:show="embed"/></g><g fill="#FFF"><use x="137.885" y="41.019" xmlns:xlink="http://www.w3.org/1999/xlink" xlink:href="#h" xlink:type="simple" xlink:actuate="onLoad" xlink:show="embed"/></g><g fill="#FFF"><use x="143.602" y="41.019" xmlns:xlink="http://www.w3.org/1999/xlink" xlink:href="#i" xlink:type="simple" xlink:actuate="onLoad" xlink:show="embed"/></g><g fill="#FFF"><use x="155" y="41.019" xmlns:xlink="http://www.w3.org/1999/xlink" xlink:href="#b" xlink:type="simple" xlink:actuate="onLoad" xlink:show="embed"/></g><g fill="#F5C10D"><use x="57.141" y="62.84" xmlns:xlink="http://www.w3.org/1999/xlink" xlink:href="#j" xlink:type="simple" xlink:actuate="onLoad" xlink:show="embed"/></g><g fill="#F5C10D"><use x="73.372" y="62.84" xmlns:xlink="http://www.w3.org/1999/xlink" xlink:href="#k" xlink:type="simple" xlink:actuate="onLoad" xlink:show="embed"/></g><g fill="#F5C10D"><use x="87.888" y="62.84" xmlns:xlink="http://www.w3.org/1999/xlink" xlink:href="#l" xlink:type="simple" xlink:actuate="onLoad" xlink:show="embed"/></g><g fill="#F5C10D"><use x="105.313" y="62.84" xmlns:xlink="http://www.w3.org/1999/xlink" xlink:href="#m" xlink:type="simple" xlink:actuate="onLoad" xlink:show="embed"/></g><g fill="#F5C10D"><use x="121.88" y="62.84" xmlns:xlink="http://www.w3.org/1999/xlink" xlink:href="#n" xlink:type="simple" xlink:actuate="onLoad" xlink:show="embed"/></g><g fill="#F5C10D"><use x="137.766" y="62.84" xmlns:xlink="http://www.w3.org/1999/xlink" xlink:href="#o" xlink:type="simple" xlink:actuate="onLoad" xlink:show="embed"/></g><g fill="#F5C10D"><use x="154.532" y="62.84" xmlns:xlink="http://www.w3.org/1999/xlink" xlink:href="#p" xlink:type="simple" xlink:actuate="onLoad" xlink:show="embed"/></g><g fill="#F5C10D"><use x="73.233" y="84.901" xmlns:xlink="http://www.w3.org/1999/xlink" xlink:href="#q" xlink:type="simple" xlink:actuate="onLoad" xlink:show="embed"/></g><g fill="#F5C10D"><use x="93.957" y="84.901" xmlns:xlink="http://www.w3.org/1999/xlink" xlink:href="#r" xlink:type="simple" xlink:actuate="onLoad" xlink:show="embed"/></g><g fill="#F5C10D"><use x="108.746" y="84.901" xmlns:xlink="http://www.w3.org/1999/xlink" xlink:href="#p" xlink:type="simple" xlink:actuate="onLoad" xlink:show="embed"/></g><g fill="#F5C10D"><use x="121.16" y="84.901" xmlns:xlink="http://www.w3.org/1999/xlink" xlink:href="#s" xlink:type="simple" xlink:actuate="onLoad" xlink:show="embed"/></g><g fill="#F5C10D"><use x="134.819" y="84.901" xmlns:xlink="http://www.w3.org/1999/xlink" xlink:href="#o" xlink:type="simple" xlink:actuate="onLoad" xlink:show="embed"/></g><g clip-path="url(#t)"><path fill="#FFF" d="M 1.238281 0.0625 C 0.679688 0.117188 0.203125 0.550781 0.125 1.101562 C 0.117188 1.171875 0.117188 1.191406 0.113281 1.261719 L 0.113281 15.722656 C 0.117188 15.792969 0.117188 15.808594 0.125 15.886719 C 0.234375 16.683594 1.289062 17.210938 2.011719 16.703125 C 2.28125 16.511719 2.46875 16.207031 2.515625 15.886719 C 2.523438 15.808594 2.519531 15.792969 2.523438 15.722656 L 2.523438 2.46875 L 15.855469 2.46875 C 15.925781 2.457031 15.945312 2.457031 16.019531 2.445312 C 16.6875 2.304688 17.140625 1.519531 16.90625 0.863281 C 16.761719 0.449219 16.371094 0.132812 15.9375 0.0703125 C 15.867188 0.0625 15.847656 0.0625 15.773438 0.0625 L 1.316406 0.0625 C 1.289062 0.0625 1.265625 0.0625 1.238281 0.0625"/></g><g clip-path="url(#u)"><path fill="#FFF" d="M 223.5625 112.007812 C 224.121094 111.953125 224.601562 111.519531 224.675781 110.964844 C 224.683594 110.894531 224.683594 110.878906 224.6875 110.808594 L 224.6875 96.347656 C 224.683594 96.277344 224.683594 96.257812 224.675781 96.183594 C 224.566406 95.386719 223.511719 94.855469 222.789062 95.367188 C 222.523438 95.554688 222.335938 95.859375 222.289062 96.183594 C 222.277344 96.257812 222.28125 96.277344 222.277344 96.347656 L 222.277344 109.601562 L 208.945312 109.601562 C 208.875 109.609375 208.855469 109.609375 208.78125 109.625 C 208.113281 109.765625 207.660156 110.550781 207.894531 111.207031 C 208.039062 111.617188 208.429688 111.9375 208.867188 112 C 208.9375 112.007812 208.953125 112.007812 209.03125 112.007812 L 223.484375 112.007812 C 223.511719 112.007812 223.535156 112.007812 223.5625 112.007812"/></g><g clip-path="url(#v)"><path fill="#FFF" d="M 223.5625 -0.015625 C 224.121094 0.0429688 224.601562 0.472656 224.675781 1.027344 C 224.683594 1.097656 224.683594 1.117188 224.6875 1.1875 L 224.6875 15.644531 C 224.683594 15.714844 224.683594 15.734375 224.675781 15.808594 C 224.566406 16.605469 223.511719 17.136719 222.789062 16.625 C 222.523438 16.4375 222.335938 16.132812 222.289062 15.808594 C 222.277344 15.734375 222.28125 15.714844 222.277344 15.644531 L 222.277344 2.390625 L 208.945312 2.390625 C 208.875 2.382812 208.855469 2.382812 208.78125 2.367188 C 208.113281 2.226562 207.660156 1.445312 207.894531 0.789062 C 208.039062 0.375 208.429688 0.0546875 208.867188 -0.00390625 C 208.9375 -0.015625 208.953125 -0.015625 209.03125 -0.015625 L 223.484375 -0.015625 C 223.511719 -0.015625 223.535156 -0.015625 223.5625 -0.015625"/></g><g clip-path="url(#w)"><path fill="#FFF" d="M 1.238281 112.011719 C 0.679688 111.957031 0.203125 111.527344 0.125 110.972656 C 0.117188 110.902344 0.117188 110.882812 0.113281 110.8125 L 0.113281 96.355469 C 0.117188 96.285156 0.117188 96.265625 0.125 96.191406 C 0.234375 95.390625 1.289062 94.863281 2.011719 95.375 C 2.28125 95.5625 2.46875 95.867188 2.515625 96.191406 C 2.523438 96.265625 2.519531 96.285156 2.523438 96.355469 L 2.523438 109.605469 L 15.855469 109.605469 C 15.925781 109.617188 15.945312 109.617188 16.019531 109.628906 C 16.6875 109.769531 17.140625 110.554688 16.90625 111.210938 C 16.761719 111.625 16.371094 111.941406 15.9375 112.003906 C 15.867188 112.011719 15.847656 112.011719 15.773438 112.011719 L 1.316406 112.011719 C 1.289062 112.011719 1.265625 112.011719 1.238281 112.011719"/></g></svg>