<svg xmlns="http://www.w3.org/2000/svg" xmlns:xlink="http://www.w3.org/1999/xlink" width="224.88" viewBox="0 0 224.88 150" height="150" version="1.0"><defs><g id="a"><path d="M 10.765625 0 L 1.9375 0 L 1.9375 -15.34375 L 10.765625 -15.34375 L 10.765625 -12.6875 L 5.1875 -12.6875 L 5.1875 -9.3125 L 10.375 -9.3125 L 10.375 -6.640625 L 5.1875 -6.640625 L 5.1875 -2.6875 L 10.765625 -2.6875 Z M 10.765625 0"/></g><g id="b"><path d="M 11.328125 0 L 10.21875 -3.65625 L 4.625 -3.65625 L 3.5 0 L 0 0 L 5.421875 -15.40625 L 9.390625 -15.40625 L 14.828125 0 Z M 9.4375 -6.390625 C 8.40625 -9.691406 7.820312 -11.5625 7.6875 -12 C 7.5625 -12.4375 7.472656 -12.78125 7.421875 -13.03125 C 7.191406 -12.132812 6.53125 -9.921875 5.4375 -6.390625 Z M 9.4375 -6.390625"/></g><g id="c"><path d="M 10.984375 -4.265625 C 10.984375 -2.878906 10.484375 -1.785156 9.484375 -0.984375 C 8.492188 -0.191406 7.109375 0.203125 5.328125 0.203125 C 3.691406 0.203125 2.242188 -0.101562 0.984375 -0.71875 L 0.984375 -3.734375 C 2.023438 -3.273438 2.898438 -2.953125 3.609375 -2.765625 C 4.328125 -2.578125 4.984375 -2.484375 5.578125 -2.484375 C 6.296875 -2.484375 6.84375 -2.617188 7.21875 -2.890625 C 7.601562 -3.160156 7.796875 -3.566406 7.796875 -4.109375 C 7.796875 -4.410156 7.710938 -4.675781 7.546875 -4.90625 C 7.378906 -5.144531 7.128906 -5.367188 6.796875 -5.578125 C 6.472656 -5.796875 5.8125 -6.144531 4.8125 -6.625 C 3.875 -7.0625 3.171875 -7.484375 2.703125 -7.890625 C 2.234375 -8.296875 1.859375 -8.769531 1.578125 -9.3125 C 1.304688 -9.851562 1.171875 -10.484375 1.171875 -11.203125 C 1.171875 -12.554688 1.628906 -13.617188 2.546875 -14.390625 C 3.460938 -15.171875 4.734375 -15.5625 6.359375 -15.5625 C 7.160156 -15.5625 7.921875 -15.46875 8.640625 -15.28125 C 9.367188 -15.09375 10.128906 -14.828125 10.921875 -14.484375 L 9.875 -11.953125 C 9.050781 -12.296875 8.367188 -12.53125 7.828125 -12.65625 C 7.296875 -12.789062 6.769531 -12.859375 6.25 -12.859375 C 5.632812 -12.859375 5.160156 -12.710938 4.828125 -12.421875 C 4.503906 -12.140625 4.34375 -11.769531 4.34375 -11.3125 C 4.34375 -11.019531 4.410156 -10.765625 4.546875 -10.546875 C 4.679688 -10.335938 4.890625 -10.132812 5.171875 -9.9375 C 5.460938 -9.738281 6.15625 -9.378906 7.25 -8.859375 C 8.675781 -8.171875 9.65625 -7.484375 10.1875 -6.796875 C 10.71875 -6.109375 10.984375 -5.265625 10.984375 -4.265625 Z M 10.984375 -4.265625"/></g><g id="d"><path d="M 7.859375 0 L 4.59375 0 L 4.59375 -12.640625 L 0.4375 -12.640625 L 0.4375 -15.34375 L 12.015625 -15.34375 L 12.015625 -12.640625 L 7.859375 -12.640625 Z M 7.859375 0"/></g><g id="f"><path d="M 5.140625 0 L 1.9375 0 L 1.9375 -15.34375 L 10.734375 -15.34375 L 10.734375 -12.6875 L 5.140625 -12.6875 L 5.140625 -8.71875 L 10.34375 -8.71875 L 10.34375 -6.0625 L 5.140625 -6.0625 Z M 5.140625 0"/></g><g id="g"><path d="M 5.1875 -8.53125 L 6.234375 -8.53125 C 7.265625 -8.53125 8.023438 -8.703125 8.515625 -9.046875 C 9.003906 -9.390625 9.25 -9.929688 9.25 -10.671875 C 9.25 -11.398438 9 -11.914062 8.5 -12.21875 C 8 -12.53125 7.222656 -12.6875 6.171875 -12.6875 L 5.1875 -12.6875 Z M 5.1875 -5.890625 L 5.1875 0 L 1.9375 0 L 1.9375 -15.34375 L 6.40625 -15.34375 C 8.488281 -15.34375 10.03125 -14.960938 11.03125 -14.203125 C 12.03125 -13.441406 12.53125 -12.289062 12.53125 -10.75 C 12.53125 -9.84375 12.28125 -9.035156 11.78125 -8.328125 C 11.289062 -7.628906 10.585938 -7.082031 9.671875 -6.6875 C 11.984375 -3.238281 13.488281 -1.007812 14.1875 0 L 10.578125 0 L 6.921875 -5.890625 Z M 5.1875 -5.890625"/></g><g id="h"><path d="M 1.9375 0 L 1.9375 -15.34375 L 5.1875 -15.34375 L 5.1875 0 Z M 1.9375 0"/></g><g id="i"><path d="M 8.453125 -12.859375 C 7.222656 -12.859375 6.269531 -12.394531 5.59375 -11.46875 C 4.925781 -10.550781 4.59375 -9.269531 4.59375 -7.625 C 4.59375 -4.207031 5.878906 -2.5 8.453125 -2.5 C 9.523438 -2.5 10.828125 -2.769531 12.359375 -3.3125 L 12.359375 -0.578125 C 11.109375 -0.0546875 9.703125 0.203125 8.140625 0.203125 C 5.910156 0.203125 4.203125 -0.472656 3.015625 -1.828125 C 1.835938 -3.179688 1.25 -5.125 1.25 -7.65625 C 1.25 -9.25 1.535156 -10.644531 2.109375 -11.84375 C 2.691406 -13.039062 3.523438 -13.957031 4.609375 -14.59375 C 5.703125 -15.238281 6.984375 -15.5625 8.453125 -15.5625 C 9.941406 -15.5625 11.4375 -15.203125 12.9375 -14.484375 L 11.890625 -11.84375 C 11.316406 -12.113281 10.738281 -12.347656 10.15625 -12.546875 C 9.582031 -12.753906 9.015625 -12.859375 8.453125 -12.859375 Z M 8.453125 -12.859375"/></g><g id="j"><path d="M 16.9375 -9.03125 C 16.9375 -6.113281 16.101562 -3.878906 14.4375 -2.328125 C 12.78125 -0.773438 10.382812 0 7.25 0 L 2.234375 0 L 2.234375 -17.71875 L 7.796875 -17.71875 C 10.691406 -17.71875 12.9375 -16.953125 14.53125 -15.421875 C 16.132812 -13.898438 16.9375 -11.769531 16.9375 -9.03125 Z M 13.03125 -8.9375 C 13.03125 -12.738281 11.347656 -14.640625 7.984375 -14.640625 L 5.984375 -14.640625 L 5.984375 -3.109375 L 7.59375 -3.109375 C 11.21875 -3.109375 13.03125 -5.050781 13.03125 -8.9375 Z M 13.03125 -8.9375"/></g><g id="k"><path d="M 5.984375 -9.859375 L 7.203125 -9.859375 C 8.390625 -9.859375 9.265625 -10.054688 9.828125 -10.453125 C 10.398438 -10.847656 10.6875 -11.46875 10.6875 -12.3125 C 10.6875 -13.15625 10.394531 -13.753906 9.8125 -14.109375 C 9.238281 -14.460938 8.34375 -14.640625 7.125 -14.640625 L 5.984375 -14.640625 Z M 5.984375 -6.796875 L 5.984375 0 L 2.234375 0 L 2.234375 -17.71875 L 7.390625 -17.71875 C 9.796875 -17.71875 11.578125 -17.28125 12.734375 -16.40625 C 13.890625 -15.53125 14.46875 -14.203125 14.46875 -12.421875 C 14.46875 -11.367188 14.179688 -10.4375 13.609375 -9.625 C 13.035156 -8.8125 12.222656 -8.175781 11.171875 -7.71875 C 13.835938 -3.738281 15.578125 -1.164062 16.390625 0 L 12.21875 0 L 7.984375 -6.796875 Z M 5.984375 -6.796875"/></g><g id="l"><path d="M 18.3125 -8.890625 C 18.3125 -5.953125 17.582031 -3.691406 16.125 -2.109375 C 14.675781 -0.535156 12.59375 0.25 9.875 0.25 C 7.164062 0.25 5.082031 -0.535156 3.625 -2.109375 C 2.164062 -3.691406 1.4375 -5.957031 1.4375 -8.90625 C 1.4375 -11.851562 2.164062 -14.101562 3.625 -15.65625 C 5.082031 -17.21875 7.175781 -18 9.90625 -18 C 12.625 -18 14.703125 -17.210938 16.140625 -15.640625 C 17.585938 -14.078125 18.3125 -11.828125 18.3125 -8.890625 Z M 5.375 -8.890625 C 5.375 -6.910156 5.75 -5.414062 6.5 -4.40625 C 7.257812 -3.40625 8.382812 -2.90625 9.875 -2.90625 C 12.875 -2.90625 14.375 -4.898438 14.375 -8.890625 C 14.375 -12.878906 12.882812 -14.875 9.90625 -14.875 C 8.40625 -14.875 7.273438 -14.367188 6.515625 -13.359375 C 5.753906 -12.359375 5.375 -10.867188 5.375 -8.890625 Z M 5.375 -8.890625"/></g><g id="m"><path d="M 16.65625 -17.71875 L 16.65625 -6.25 C 16.65625 -4.945312 16.363281 -3.800781 15.78125 -2.8125 C 15.195312 -1.820312 14.347656 -1.0625 13.234375 -0.53125 C 12.128906 -0.0078125 10.820312 0.25 9.3125 0.25 C 7.03125 0.25 5.257812 -0.332031 4 -1.5 C 2.738281 -2.675781 2.109375 -4.273438 2.109375 -6.296875 L 2.109375 -17.71875 L 5.859375 -17.71875 L 5.859375 -6.875 C 5.859375 -5.507812 6.128906 -4.503906 6.671875 -3.859375 C 7.222656 -3.222656 8.132812 -2.90625 9.40625 -2.90625 C 10.632812 -2.90625 11.523438 -3.226562 12.078125 -3.875 C 12.628906 -4.519531 12.90625 -5.523438 12.90625 -6.890625 L 12.90625 -17.71875 Z M 16.65625 -17.71875"/></g><g id="n"><path d="M 8.953125 -9.953125 L 15.984375 -9.953125 L 15.984375 -0.765625 C 14.847656 -0.390625 13.773438 -0.128906 12.765625 0.015625 C 11.765625 0.171875 10.738281 0.25 9.6875 0.25 C 7.007812 0.25 4.960938 -0.535156 3.546875 -2.109375 C 2.140625 -3.679688 1.4375 -5.941406 1.4375 -8.890625 C 1.4375 -11.742188 2.253906 -13.972656 3.890625 -15.578125 C 5.535156 -17.179688 7.804688 -17.984375 10.703125 -17.984375 C 12.523438 -17.984375 14.28125 -17.617188 15.96875 -16.890625 L 14.71875 -13.875 C 13.425781 -14.519531 12.082031 -14.84375 10.6875 -14.84375 C 9.0625 -14.84375 7.757812 -14.296875 6.78125 -13.203125 C 5.800781 -12.117188 5.3125 -10.65625 5.3125 -8.8125 C 5.3125 -6.882812 5.703125 -5.414062 6.484375 -4.40625 C 7.273438 -3.394531 8.421875 -2.890625 9.921875 -2.890625 C 10.710938 -2.890625 11.507812 -2.96875 12.3125 -3.125 L 12.3125 -6.828125 L 8.953125 -6.828125 Z M 8.953125 -9.953125"/></g><g id="o"><path d="M 16.75 0 L 13.015625 0 L 13.015625 -7.65625 L 5.984375 -7.65625 L 5.984375 0 L 2.234375 0 L 2.234375 -17.71875 L 5.984375 -17.71875 L 5.984375 -10.78125 L 13.015625 -10.78125 L 13.015625 -17.71875 L 16.75 -17.71875 Z M 16.75 0"/></g><g id="p"><path d="M 9.0625 0 L 5.3125 0 L 5.3125 -14.59375 L 0.5 -14.59375 L 0.5 -17.71875 L 13.875 -17.71875 L 13.875 -14.59375 L 9.0625 -14.59375 Z M 9.0625 0"/></g><g id="q"><path d="M 19.5 0 L 15.21875 0 L 12.8125 -9.3125 C 12.726562 -9.644531 12.578125 -10.328125 12.359375 -11.359375 C 12.140625 -12.398438 12.015625 -13.097656 11.984375 -13.453125 C 11.941406 -13.015625 11.820312 -12.3125 11.625 -11.34375 C 11.425781 -10.382812 11.273438 -9.695312 11.171875 -9.28125 L 8.796875 0 L 4.515625 0 L 0 -17.71875 L 3.703125 -17.71875 L 5.96875 -8.046875 C 6.363281 -6.265625 6.648438 -4.71875 6.828125 -3.40625 C 6.867188 -3.863281 6.976562 -4.578125 7.15625 -5.546875 C 7.332031 -6.515625 7.5 -7.265625 7.65625 -7.796875 L 10.234375 -17.71875 L 13.78125 -17.71875 L 16.359375 -7.796875 C 16.472656 -7.347656 16.613281 -6.664062 16.78125 -5.75 C 16.957031 -4.84375 17.085938 -4.0625 17.171875 -3.40625 C 17.253906 -4.039062 17.382812 -4.828125 17.5625 -5.765625 C 17.738281 -6.703125 17.898438 -7.460938 18.046875 -8.046875 L 20.3125 -17.71875 L 24 -17.71875 Z M 19.5 0"/></g><g id="r"><path d="M 13.078125 0 L 11.796875 -4.21875 L 5.328125 -4.21875 L 4.046875 0 L 0 0 L 6.25 -17.796875 L 10.84375 -17.796875 L 17.125 0 Z M 10.90625 -7.375 C 9.707031 -11.195312 9.035156 -13.359375 8.890625 -13.859375 C 8.742188 -14.359375 8.640625 -14.753906 8.578125 -15.046875 C 8.304688 -14.015625 7.539062 -11.457031 6.28125 -7.375 Z M 10.90625 -7.375"/></g><g id="s"><path d="M 9.765625 -14.84375 C 8.347656 -14.84375 7.25 -14.3125 6.46875 -13.25 C 5.695312 -12.1875 5.3125 -10.707031 5.3125 -8.8125 C 5.3125 -4.863281 6.796875 -2.890625 9.765625 -2.890625 C 11.003906 -2.890625 12.507812 -3.195312 14.28125 -3.8125 L 14.28125 -0.671875 C 12.820312 -0.0546875 11.195312 0.25 9.40625 0.25 C 6.832031 0.25 4.859375 -0.53125 3.484375 -2.09375 C 2.117188 -3.664062 1.4375 -5.914062 1.4375 -8.84375 C 1.4375 -10.6875 1.769531 -12.300781 2.4375 -13.6875 C 3.113281 -15.070312 4.078125 -16.132812 5.328125 -16.875 C 6.585938 -17.613281 8.066406 -17.984375 9.765625 -17.984375 C 11.484375 -17.984375 13.210938 -17.566406 14.953125 -16.734375 L 13.734375 -13.671875 C 13.066406 -13.984375 12.398438 -14.253906 11.734375 -14.484375 C 11.066406 -14.722656 10.410156 -14.84375 9.765625 -14.84375 Z M 9.765625 -14.84375"/></g><clipPath id="t"><path d="M 1.25 3.777344 L 23.726562 3.777344 L 23.726562 26 L 1.25 26 Z M 1.25 3.777344"/></clipPath><clipPath id="u"><path d="M 198.582031 121 L 221.070312 121 L 221.070312 143.210938 L 198.582031 143.210938 Z M 198.582031 121"/></clipPath><clipPath id="v"><path d="M 201.082031 3.675781 L 223.570312 3.675781 L 223.570312 26 L 201.082031 26 Z M 201.082031 3.675781"/></clipPath><clipPath id="w"><path d="M 3.75 121 L 26 121 L 26 143.210938 L 3.75 143.210938 Z M 3.75 121"/></clipPath></defs><g fill="#FFF"><use x="48.303" y="57.644" xmlns:xlink="http://www.w3.org/1999/xlink" xlink:href="#a" xlink:type="simple" xlink:actuate="onLoad" xlink:show="embed"/></g><g fill="#FFF"><use x="59.849" y="57.644" xmlns:xlink="http://www.w3.org/1999/xlink" xlink:href="#b" xlink:type="simple" xlink:actuate="onLoad" xlink:show="embed"/></g><g fill="#FFF"><use x="74.186" y="57.644" xmlns:xlink="http://www.w3.org/1999/xlink" xlink:href="#c" xlink:type="simple" xlink:actuate="onLoad" xlink:show="embed"/></g><g fill="#FFF"><use x="85.532" y="57.644" xmlns:xlink="http://www.w3.org/1999/xlink" xlink:href="#d" xlink:type="simple" xlink:actuate="onLoad" xlink:show="embed"/></g><g fill="#FFF"><use x="97.487" y="57.644" xmlns:xlink="http://www.w3.org/1999/xlink" xlink:href="#e" xlink:type="simple" xlink:actuate="onLoad" xlink:show="embed"/></g><g fill="#FFF"><use x="102.577" y="57.644" xmlns:xlink="http://www.w3.org/1999/xlink" xlink:href="#b" xlink:type="simple" xlink:actuate="onLoad" xlink:show="embed"/></g><g fill="#FFF"><use x="116.914" y="57.644" xmlns:xlink="http://www.w3.org/1999/xlink" xlink:href="#f" xlink:type="simple" xlink:actuate="onLoad" xlink:show="embed"/></g><g fill="#FFF"><use x="128.218" y="57.644" xmlns:xlink="http://www.w3.org/1999/xlink" xlink:href="#g" xlink:type="simple" xlink:actuate="onLoad" xlink:show="embed"/></g><g fill="#FFF"><use x="141.915" y="57.644" xmlns:xlink="http://www.w3.org/1999/xlink" xlink:href="#h" xlink:type="simple" xlink:actuate="onLoad" xlink:show="embed"/></g><g fill="#FFF"><use x="148.538" y="57.644" xmlns:xlink="http://www.w3.org/1999/xlink" xlink:href="#i" xlink:type="simple" xlink:actuate="onLoad" xlink:show="embed"/></g><g fill="#FFF"><use x="161.742" y="57.644" xmlns:xlink="http://www.w3.org/1999/xlink" xlink:href="#b" xlink:type="simple" xlink:actuate="onLoad" xlink:show="embed"/></g><g fill="#F5C10D"><use x="48.381" y="82.922" xmlns:xlink="http://www.w3.org/1999/xlink" xlink:href="#j" xlink:type="simple" xlink:actuate="onLoad" xlink:show="embed"/></g><g fill="#F5C10D"><use x="67.184" y="82.922" xmlns:xlink="http://www.w3.org/1999/xlink" xlink:href="#k" xlink:type="simple" xlink:actuate="onLoad" xlink:show="embed"/></g><g fill="#F5C10D"><use x="83.999" y="82.922" xmlns:xlink="http://www.w3.org/1999/xlink" xlink:href="#l" xlink:type="simple" xlink:actuate="onLoad" xlink:show="embed"/></g><g fill="#F5C10D"><use x="104.184" y="82.922" xmlns:xlink="http://www.w3.org/1999/xlink" xlink:href="#m" xlink:type="simple" xlink:actuate="onLoad" xlink:show="embed"/></g><g fill="#F5C10D"><use x="123.375" y="82.922" xmlns:xlink="http://www.w3.org/1999/xlink" xlink:href="#n" xlink:type="simple" xlink:actuate="onLoad" xlink:show="embed"/></g><g fill="#F5C10D"><use x="141.778" y="82.922" xmlns:xlink="http://www.w3.org/1999/xlink" xlink:href="#o" xlink:type="simple" xlink:actuate="onLoad" xlink:show="embed"/></g><g fill="#F5C10D"><use x="161.199" y="82.922" xmlns:xlink="http://www.w3.org/1999/xlink" xlink:href="#p" xlink:type="simple" xlink:actuate="onLoad" xlink:show="embed"/></g><g fill="#F5C10D"><use x="67.023" y="108.478" xmlns:xlink="http://www.w3.org/1999/xlink" xlink:href="#q" xlink:type="simple" xlink:actuate="onLoad" xlink:show="embed"/></g><g fill="#F5C10D"><use x="91.029" y="108.478" xmlns:xlink="http://www.w3.org/1999/xlink" xlink:href="#r" xlink:type="simple" xlink:actuate="onLoad" xlink:show="embed"/></g><g fill="#F5C10D"><use x="108.161" y="108.478" xmlns:xlink="http://www.w3.org/1999/xlink" xlink:href="#p" xlink:type="simple" xlink:actuate="onLoad" xlink:show="embed"/></g><g fill="#F5C10D"><use x="122.541" y="108.478" xmlns:xlink="http://www.w3.org/1999/xlink" xlink:href="#s" xlink:type="simple" xlink:actuate="onLoad" xlink:show="embed"/></g><g fill="#F5C10D"><use x="138.364" y="108.478" xmlns:xlink="http://www.w3.org/1999/xlink" xlink:href="#o" xlink:type="simple" xlink:actuate="onLoad" xlink:show="embed"/></g><g clip-path="url(#t)"><path fill="#FFF" d="M 2.773438 3.761719 C 2.042969 3.832031 1.417969 4.398438 1.316406 5.125 C 1.304688 5.214844 1.304688 5.242188 1.300781 5.332031 L 1.300781 24.265625 C 1.304688 24.355469 1.304688 24.382812 1.316406 24.480469 C 1.460938 25.523438 2.839844 26.21875 3.789062 25.550781 C 4.136719 25.304688 4.382812 24.902344 4.445312 24.480469 C 4.457031 24.382812 4.449219 24.355469 4.457031 24.265625 L 4.457031 6.910156 L 21.914062 6.910156 C 22.007812 6.898438 22.03125 6.898438 22.128906 6.878906 C 23.003906 6.695312 23.597656 5.671875 23.289062 4.808594 C 23.101562 4.269531 22.589844 3.851562 22.019531 3.773438 C 21.925781 3.761719 21.902344 3.761719 21.804688 3.761719 L 2.878906 3.761719 C 2.839844 3.761719 2.808594 3.761719 2.773438 3.761719"/></g><g clip-path="url(#u)"><path fill="#FFF" d="M 219.550781 143.347656 C 220.28125 143.273438 220.90625 142.707031 221.003906 141.984375 C 221.019531 141.890625 221.019531 141.867188 221.023438 141.773438 L 221.023438 122.84375 C 221.019531 122.75 221.019531 122.726562 221.003906 122.628906 C 220.863281 121.582031 219.480469 120.890625 218.535156 121.558594 C 218.1875 121.804688 217.941406 122.203125 217.878906 122.628906 C 217.867188 122.726562 217.871094 122.75 217.867188 122.84375 L 217.867188 140.195312 L 200.410156 140.195312 C 200.316406 140.207031 200.292969 140.207031 200.191406 140.226562 C 199.320312 140.410156 198.726562 141.4375 199.03125 142.296875 C 199.222656 142.835938 199.734375 143.253906 200.304688 143.335938 C 200.394531 143.347656 200.421875 143.347656 200.519531 143.347656 L 219.445312 143.347656 C 219.480469 143.347656 219.511719 143.347656 219.550781 143.347656"/></g><g clip-path="url(#v)"><path fill="#FFF" d="M 222.046875 3.660156 C 222.78125 3.734375 223.40625 4.296875 223.503906 5.023438 C 223.515625 5.113281 223.515625 5.140625 223.523438 5.230469 L 223.523438 24.164062 C 223.515625 24.257812 223.515625 24.28125 223.503906 24.378906 C 223.363281 25.421875 221.980469 26.117188 221.035156 25.449219 C 220.683594 25.203125 220.4375 24.804688 220.378906 24.378906 C 220.363281 24.28125 220.371094 24.257812 220.363281 24.164062 L 220.363281 6.808594 L 202.90625 6.808594 C 202.816406 6.796875 202.789062 6.796875 202.691406 6.78125 C 201.820312 6.59375 201.222656 5.570312 201.53125 4.710938 C 201.722656 4.167969 202.230469 3.75 202.800781 3.671875 C 202.894531 3.660156 202.917969 3.660156 203.015625 3.660156 L 221.945312 3.660156 C 221.980469 3.660156 222.011719 3.660156 222.046875 3.660156"/></g><g clip-path="url(#w)"><path fill="#FFF" d="M 5.273438 143.242188 C 4.542969 143.167969 3.914062 142.601562 3.816406 141.878906 C 3.804688 141.785156 3.804688 141.761719 3.796875 141.667969 L 3.796875 122.738281 C 3.804688 122.644531 3.804688 122.621094 3.816406 122.523438 C 3.957031 121.476562 5.339844 120.785156 6.285156 121.453125 C 6.636719 121.699219 6.882812 122.097656 6.941406 122.523438 C 6.957031 122.621094 6.949219 122.644531 6.957031 122.738281 L 6.957031 140.089844 L 24.414062 140.089844 C 24.503906 140.101562 24.53125 140.101562 24.628906 140.121094 C 25.5 140.304688 26.097656 141.332031 25.789062 142.191406 C 25.597656 142.730469 25.089844 143.148438 24.519531 143.230469 C 24.425781 143.242188 24.402344 143.242188 24.304688 143.242188 L 5.375 143.242188 C 5.339844 143.242188 5.308594 143.242188 5.273438 143.242188"/></g></svg>