<svg xmlns="http://www.w3.org/2000/svg" xmlns:xlink="http://www.w3.org/1999/xlink" width="224.88" viewBox="0 0 224.88 75" height="75" version="1.0"><defs><g id="a"><path d="M 6.59375 0 L 1.1875 0 L 1.1875 -9.390625 L 6.59375 -9.390625 L 6.59375 -7.765625 L 3.171875 -7.765625 L 3.171875 -5.703125 L 6.359375 -5.703125 L 6.359375 -4.0625 L 3.171875 -4.0625 L 3.171875 -1.640625 L 6.59375 -1.640625 Z M 6.59375 0"/></g><g id="b"><path d="M 6.9375 0 L 6.25 -2.234375 L 2.828125 -2.234375 L 2.140625 0 L 0 0 L 3.3125 -9.4375 L 5.75 -9.4375 L 9.078125 0 Z M 5.78125 -3.90625 C 5.144531 -5.925781 4.785156 -7.066406 4.703125 -7.328125 C 4.628906 -7.597656 4.578125 -7.8125 4.546875 -7.96875 C 4.398438 -7.425781 3.992188 -6.070312 3.328125 -3.90625 Z M 5.78125 -3.90625"/></g><g id="c"><path d="M 6.71875 -2.609375 C 6.71875 -1.765625 6.410156 -1.097656 5.796875 -0.609375 C 5.191406 -0.117188 4.347656 0.125 3.265625 0.125 C 2.265625 0.125 1.378906 -0.0625 0.609375 -0.4375 L 0.609375 -2.28125 C 1.234375 -2 1.765625 -1.800781 2.203125 -1.6875 C 2.648438 -1.570312 3.054688 -1.515625 3.421875 -1.515625 C 3.859375 -1.515625 4.191406 -1.597656 4.421875 -1.765625 C 4.648438 -1.929688 4.765625 -2.179688 4.765625 -2.515625 C 4.765625 -2.691406 4.710938 -2.851562 4.609375 -3 C 4.515625 -3.144531 4.367188 -3.28125 4.171875 -3.40625 C 3.972656 -3.539062 3.566406 -3.753906 2.953125 -4.046875 C 2.378906 -4.316406 1.945312 -4.578125 1.65625 -4.828125 C 1.375 -5.078125 1.144531 -5.363281 0.96875 -5.6875 C 0.800781 -6.019531 0.71875 -6.410156 0.71875 -6.859375 C 0.71875 -7.679688 1 -8.332031 1.5625 -8.8125 C 2.125 -9.289062 2.898438 -9.53125 3.890625 -9.53125 C 4.378906 -9.53125 4.84375 -9.472656 5.28125 -9.359375 C 5.726562 -9.242188 6.195312 -9.078125 6.6875 -8.859375 L 6.03125 -7.3125 C 5.53125 -7.519531 5.113281 -7.664062 4.78125 -7.75 C 4.457031 -7.832031 4.140625 -7.875 3.828125 -7.875 C 3.453125 -7.875 3.160156 -7.785156 2.953125 -7.609375 C 2.753906 -7.429688 2.65625 -7.203125 2.65625 -6.921875 C 2.65625 -6.742188 2.695312 -6.585938 2.78125 -6.453125 C 2.863281 -6.328125 2.992188 -6.203125 3.171875 -6.078125 C 3.347656 -5.953125 3.769531 -5.734375 4.4375 -5.421875 C 5.3125 -5.003906 5.910156 -4.582031 6.234375 -4.15625 C 6.554688 -3.738281 6.71875 -3.222656 6.71875 -2.609375 Z M 6.71875 -2.609375"/></g><g id="d"><path d="M 4.8125 0 L 2.8125 0 L 2.8125 -7.734375 L 0.265625 -7.734375 L 0.265625 -9.390625 L 7.359375 -9.390625 L 7.359375 -7.734375 L 4.8125 -7.734375 Z M 4.8125 0"/></g><g id="f"><path d="M 3.140625 0 L 1.1875 0 L 1.1875 -9.390625 L 6.5625 -9.390625 L 6.5625 -7.765625 L 3.140625 -7.765625 L 3.140625 -5.34375 L 6.328125 -5.34375 L 6.328125 -3.71875 L 3.140625 -3.71875 Z M 3.140625 0"/></g><g id="g"><path d="M 3.171875 -5.21875 L 3.8125 -5.21875 C 4.445312 -5.21875 4.910156 -5.320312 5.203125 -5.53125 C 5.503906 -5.75 5.65625 -6.082031 5.65625 -6.53125 C 5.65625 -6.96875 5.5 -7.28125 5.1875 -7.46875 C 4.882812 -7.664062 4.414062 -7.765625 3.78125 -7.765625 L 3.171875 -7.765625 Z M 3.171875 -3.609375 L 3.171875 0 L 1.1875 0 L 1.1875 -9.390625 L 3.921875 -9.390625 C 5.191406 -9.390625 6.132812 -9.15625 6.75 -8.6875 C 7.363281 -8.226562 7.671875 -7.523438 7.671875 -6.578125 C 7.671875 -6.023438 7.519531 -5.53125 7.21875 -5.09375 C 6.914062 -4.664062 6.484375 -4.332031 5.921875 -4.09375 C 7.335938 -1.976562 8.257812 -0.613281 8.6875 0 L 6.46875 0 L 4.234375 -3.609375 Z M 3.171875 -3.609375"/></g><g id="h"><path d="M 1.1875 0 L 1.1875 -9.390625 L 3.171875 -9.390625 L 3.171875 0 Z M 1.1875 0"/></g><g id="i"><path d="M 5.171875 -7.875 C 4.421875 -7.875 3.835938 -7.59375 3.421875 -7.03125 C 3.015625 -6.46875 2.8125 -5.679688 2.8125 -4.671875 C 2.8125 -2.578125 3.597656 -1.53125 5.171875 -1.53125 C 5.828125 -1.53125 6.625 -1.695312 7.5625 -2.03125 L 7.5625 -0.359375 C 6.789062 -0.0351562 5.929688 0.125 4.984375 0.125 C 3.617188 0.125 2.570312 -0.285156 1.84375 -1.109375 C 1.125 -1.941406 0.765625 -3.132812 0.765625 -4.6875 C 0.765625 -5.65625 0.941406 -6.503906 1.296875 -7.234375 C 1.648438 -7.972656 2.160156 -8.539062 2.828125 -8.9375 C 3.492188 -9.332031 4.273438 -9.53125 5.171875 -9.53125 C 6.085938 -9.53125 7.003906 -9.304688 7.921875 -8.859375 L 7.28125 -7.25 C 6.925781 -7.414062 6.570312 -7.5625 6.21875 -7.6875 C 5.863281 -7.8125 5.515625 -7.875 5.171875 -7.875 Z M 5.171875 -7.875"/></g><g id="j"><path d="M 10.359375 -5.53125 C 10.359375 -3.738281 9.847656 -2.367188 8.828125 -1.421875 C 7.816406 -0.472656 6.351562 0 4.4375 0 L 1.359375 0 L 1.359375 -10.84375 L 4.765625 -10.84375 C 6.535156 -10.84375 7.910156 -10.375 8.890625 -9.4375 C 9.867188 -8.5 10.359375 -7.195312 10.359375 -5.53125 Z M 7.96875 -5.46875 C 7.96875 -7.789062 6.941406 -8.953125 4.890625 -8.953125 L 3.65625 -8.953125 L 3.65625 -1.90625 L 4.65625 -1.90625 C 6.863281 -1.90625 7.96875 -3.09375 7.96875 -5.46875 Z M 7.96875 -5.46875"/></g><g id="k"><path d="M 3.65625 -6.03125 L 4.40625 -6.03125 C 5.132812 -6.03125 5.671875 -6.148438 6.015625 -6.390625 C 6.359375 -6.628906 6.53125 -7.007812 6.53125 -7.53125 C 6.53125 -8.050781 6.351562 -8.414062 6 -8.625 C 5.644531 -8.84375 5.097656 -8.953125 4.359375 -8.953125 L 3.65625 -8.953125 Z M 3.65625 -4.15625 L 3.65625 0 L 1.359375 0 L 1.359375 -10.84375 L 4.53125 -10.84375 C 6 -10.84375 7.085938 -10.570312 7.796875 -10.03125 C 8.503906 -9.5 8.859375 -8.6875 8.859375 -7.59375 C 8.859375 -6.957031 8.679688 -6.390625 8.328125 -5.890625 C 7.972656 -5.390625 7.476562 -5 6.84375 -4.71875 C 8.46875 -2.28125 9.53125 -0.707031 10.03125 0 L 7.46875 0 L 4.890625 -4.15625 Z M 3.65625 -4.15625"/></g><g id="l"><path d="M 11.203125 -5.4375 C 11.203125 -3.644531 10.753906 -2.265625 9.859375 -1.296875 C 8.972656 -0.335938 7.703125 0.140625 6.046875 0.140625 C 4.378906 0.140625 3.097656 -0.335938 2.203125 -1.296875 C 1.316406 -2.265625 0.875 -3.648438 0.875 -5.453125 C 0.875 -7.253906 1.320312 -8.628906 2.21875 -9.578125 C 3.113281 -10.535156 4.394531 -11.015625 6.0625 -11.015625 C 7.726562 -11.015625 9 -10.535156 9.875 -9.578125 C 10.757812 -8.617188 11.203125 -7.238281 11.203125 -5.4375 Z M 3.296875 -5.4375 C 3.296875 -4.226562 3.523438 -3.316406 3.984375 -2.703125 C 4.441406 -2.085938 5.128906 -1.78125 6.046875 -1.78125 C 7.878906 -1.78125 8.796875 -3 8.796875 -5.4375 C 8.796875 -7.875 7.882812 -9.09375 6.0625 -9.09375 C 5.144531 -9.09375 4.453125 -8.785156 3.984375 -8.171875 C 3.523438 -7.554688 3.296875 -6.644531 3.296875 -5.4375 Z M 3.296875 -5.4375"/></g><g id="m"><path d="M 10.1875 -10.84375 L 10.1875 -3.828125 C 10.1875 -3.023438 10.003906 -2.320312 9.640625 -1.71875 C 9.285156 -1.113281 8.769531 -0.648438 8.09375 -0.328125 C 7.414062 -0.015625 6.617188 0.140625 5.703125 0.140625 C 4.304688 0.140625 3.222656 -0.210938 2.453125 -0.921875 C 1.679688 -1.640625 1.296875 -2.617188 1.296875 -3.859375 L 1.296875 -10.84375 L 3.578125 -10.84375 L 3.578125 -4.203125 C 3.578125 -3.367188 3.742188 -2.753906 4.078125 -2.359375 C 4.421875 -1.972656 4.976562 -1.78125 5.75 -1.78125 C 6.5 -1.78125 7.039062 -1.972656 7.375 -2.359375 C 7.71875 -2.753906 7.890625 -3.375 7.890625 -4.21875 L 7.890625 -10.84375 Z M 10.1875 -10.84375"/></g><g id="n"><path d="M 5.484375 -6.09375 L 9.78125 -6.09375 L 9.78125 -0.46875 C 9.082031 -0.238281 8.425781 -0.0820312 7.8125 0 C 7.195312 0.09375 6.566406 0.140625 5.921875 0.140625 C 4.285156 0.140625 3.035156 -0.335938 2.171875 -1.296875 C 1.304688 -2.253906 0.875 -3.632812 0.875 -5.4375 C 0.875 -7.1875 1.375 -8.550781 2.375 -9.53125 C 3.382812 -10.507812 4.773438 -11 6.546875 -11 C 7.660156 -11 8.734375 -10.773438 9.765625 -10.328125 L 9 -8.484375 C 8.207031 -8.878906 7.382812 -9.078125 6.53125 -9.078125 C 5.539062 -9.078125 4.742188 -8.742188 4.140625 -8.078125 C 3.546875 -7.410156 3.25 -6.515625 3.25 -5.390625 C 3.25 -4.210938 3.488281 -3.3125 3.96875 -2.6875 C 4.445312 -2.070312 5.148438 -1.765625 6.078125 -1.765625 C 6.554688 -1.765625 7.039062 -1.8125 7.53125 -1.90625 L 7.53125 -4.171875 L 5.484375 -4.171875 Z M 5.484375 -6.09375"/></g><g id="o"><path d="M 10.25 0 L 7.953125 0 L 7.953125 -4.671875 L 3.65625 -4.671875 L 3.65625 0 L 1.359375 0 L 1.359375 -10.84375 L 3.65625 -10.84375 L 3.65625 -6.59375 L 7.953125 -6.59375 L 7.953125 -10.84375 L 10.25 -10.84375 Z M 10.25 0"/></g><g id="p"><path d="M 5.546875 0 L 3.25 0 L 3.25 -8.921875 L 0.296875 -8.921875 L 0.296875 -10.84375 L 8.484375 -10.84375 L 8.484375 -8.921875 L 5.546875 -8.921875 Z M 5.546875 0"/></g><g id="q"><path d="M 11.921875 0 L 9.3125 0 L 7.84375 -5.703125 C 7.78125 -5.898438 7.679688 -6.316406 7.546875 -6.953125 C 7.421875 -7.585938 7.347656 -8.015625 7.328125 -8.234375 C 7.304688 -7.960938 7.234375 -7.53125 7.109375 -6.9375 C 6.992188 -6.351562 6.90625 -5.9375 6.84375 -5.6875 L 5.375 0 L 2.765625 0 L 0 -10.84375 L 2.265625 -10.84375 L 3.65625 -4.921875 C 3.894531 -3.828125 4.066406 -2.878906 4.171875 -2.078125 C 4.203125 -2.359375 4.269531 -2.796875 4.375 -3.390625 C 4.476562 -3.984375 4.578125 -4.441406 4.671875 -4.765625 L 6.265625 -10.84375 L 8.4375 -10.84375 L 10.015625 -4.765625 C 10.078125 -4.492188 10.160156 -4.078125 10.265625 -3.515625 C 10.367188 -2.960938 10.453125 -2.484375 10.515625 -2.078125 C 10.554688 -2.460938 10.628906 -2.941406 10.734375 -3.515625 C 10.847656 -4.097656 10.953125 -4.566406 11.046875 -4.921875 L 12.421875 -10.84375 L 14.6875 -10.84375 Z M 11.921875 0"/></g><g id="r"><path d="M 8 0 L 7.21875 -2.578125 L 3.265625 -2.578125 L 2.484375 0 L 0 0 L 3.828125 -10.890625 L 6.640625 -10.890625 L 10.484375 0 Z M 6.671875 -4.515625 C 5.941406 -6.847656 5.53125 -8.164062 5.4375 -8.46875 C 5.34375 -8.78125 5.28125 -9.023438 5.25 -9.203125 C 5.082031 -8.566406 4.613281 -7.003906 3.84375 -4.515625 Z M 6.671875 -4.515625"/></g><g id="s"><path d="M 5.96875 -9.078125 C 5.101562 -9.078125 4.429688 -8.753906 3.953125 -8.109375 C 3.484375 -7.460938 3.25 -6.554688 3.25 -5.390625 C 3.25 -2.972656 4.15625 -1.765625 5.96875 -1.765625 C 6.726562 -1.765625 7.648438 -1.957031 8.734375 -2.34375 L 8.734375 -0.40625 C 7.847656 -0.0390625 6.851562 0.140625 5.75 0.140625 C 4.175781 0.140625 2.96875 -0.332031 2.125 -1.28125 C 1.289062 -2.238281 0.875 -3.613281 0.875 -5.40625 C 0.875 -6.53125 1.078125 -7.515625 1.484375 -8.359375 C 1.898438 -9.210938 2.492188 -9.863281 3.265625 -10.3125 C 4.035156 -10.769531 4.9375 -11 5.96875 -11 C 7.019531 -11 8.078125 -10.742188 9.140625 -10.234375 L 8.40625 -8.359375 C 8 -8.554688 7.585938 -8.722656 7.171875 -8.859375 C 6.765625 -9.003906 6.363281 -9.078125 5.96875 -9.078125 Z M 5.96875 -9.078125"/></g><clipPath id="t"><path d="M 0.75 0.820312 L 11.992188 0.820312 L 11.992188 12 L 0.75 12 Z M 0.75 0.820312"/></clipPath><clipPath id="u"><path d="M 213 63 L 224.070312 63 L 224.070312 74.171875 L 213 74.171875 Z M 213 63"/></clipPath><clipPath id="v"><path d="M 213 0.820312 L 224.070312 0.820312 L 224.070312 12 L 213 12 Z M 213 0.820312"/></clipPath><clipPath id="w"><path d="M 0.75 63 L 11.992188 63 L 11.992188 74.222656 L 0.75 74.222656 Z M 0.75 63"/></clipPath></defs><g fill="#FFF"><use x="73.204" y="26.883" xmlns:xlink="http://www.w3.org/1999/xlink" xlink:href="#a" xlink:type="simple" xlink:actuate="onLoad" xlink:show="embed"/></g><g fill="#FFF"><use x="80.267" y="26.883" xmlns:xlink="http://www.w3.org/1999/xlink" xlink:href="#b" xlink:type="simple" xlink:actuate="onLoad" xlink:show="embed"/></g><g fill="#FFF"><use x="89.038" y="26.883" xmlns:xlink="http://www.w3.org/1999/xlink" xlink:href="#c" xlink:type="simple" xlink:actuate="onLoad" xlink:show="embed"/></g><g fill="#FFF"><use x="95.979" y="26.883" xmlns:xlink="http://www.w3.org/1999/xlink" xlink:href="#d" xlink:type="simple" xlink:actuate="onLoad" xlink:show="embed"/></g><g fill="#FFF"><use x="103.292" y="26.883" xmlns:xlink="http://www.w3.org/1999/xlink" xlink:href="#e" xlink:type="simple" xlink:actuate="onLoad" xlink:show="embed"/></g><g fill="#FFF"><use x="106.406" y="26.883" xmlns:xlink="http://www.w3.org/1999/xlink" xlink:href="#b" xlink:type="simple" xlink:actuate="onLoad" xlink:show="embed"/></g><g fill="#FFF"><use x="115.177" y="26.883" xmlns:xlink="http://www.w3.org/1999/xlink" xlink:href="#f" xlink:type="simple" xlink:actuate="onLoad" xlink:show="embed"/></g><g fill="#FFF"><use x="122.092" y="26.883" xmlns:xlink="http://www.w3.org/1999/xlink" xlink:href="#g" xlink:type="simple" xlink:actuate="onLoad" xlink:show="embed"/></g><g fill="#FFF"><use x="130.472" y="26.883" xmlns:xlink="http://www.w3.org/1999/xlink" xlink:href="#h" xlink:type="simple" xlink:actuate="onLoad" xlink:show="embed"/></g><g fill="#FFF"><use x="134.523" y="26.883" xmlns:xlink="http://www.w3.org/1999/xlink" xlink:href="#i" xlink:type="simple" xlink:actuate="onLoad" xlink:show="embed"/></g><g fill="#FFF"><use x="142.6" y="26.883" xmlns:xlink="http://www.w3.org/1999/xlink" xlink:href="#b" xlink:type="simple" xlink:actuate="onLoad" xlink:show="embed"/></g><g fill="#F5C10D"><use x="73.252" y="42.346" xmlns:xlink="http://www.w3.org/1999/xlink" xlink:href="#j" xlink:type="simple" xlink:actuate="onLoad" xlink:show="embed"/></g><g fill="#F5C10D"><use x="84.755" y="42.346" xmlns:xlink="http://www.w3.org/1999/xlink" xlink:href="#k" xlink:type="simple" xlink:actuate="onLoad" xlink:show="embed"/></g><g fill="#F5C10D"><use x="95.041" y="42.346" xmlns:xlink="http://www.w3.org/1999/xlink" xlink:href="#l" xlink:type="simple" xlink:actuate="onLoad" xlink:show="embed"/></g><g fill="#F5C10D"><use x="107.389" y="42.346" xmlns:xlink="http://www.w3.org/1999/xlink" xlink:href="#m" xlink:type="simple" xlink:actuate="onLoad" xlink:show="embed"/></g><g fill="#F5C10D"><use x="119.129" y="42.346" xmlns:xlink="http://www.w3.org/1999/xlink" xlink:href="#n" xlink:type="simple" xlink:actuate="onLoad" xlink:show="embed"/></g><g fill="#F5C10D"><use x="130.387" y="42.346" xmlns:xlink="http://www.w3.org/1999/xlink" xlink:href="#o" xlink:type="simple" xlink:actuate="onLoad" xlink:show="embed"/></g><g fill="#F5C10D"><use x="142.268" y="42.346" xmlns:xlink="http://www.w3.org/1999/xlink" xlink:href="#p" xlink:type="simple" xlink:actuate="onLoad" xlink:show="embed"/></g><g fill="#F5C10D"><use x="84.656" y="57.98" xmlns:xlink="http://www.w3.org/1999/xlink" xlink:href="#q" xlink:type="simple" xlink:actuate="onLoad" xlink:show="embed"/></g><g fill="#F5C10D"><use x="99.342" y="57.98" xmlns:xlink="http://www.w3.org/1999/xlink" xlink:href="#r" xlink:type="simple" xlink:actuate="onLoad" xlink:show="embed"/></g><g fill="#F5C10D"><use x="109.823" y="57.98" xmlns:xlink="http://www.w3.org/1999/xlink" xlink:href="#p" xlink:type="simple" xlink:actuate="onLoad" xlink:show="embed"/></g><g fill="#F5C10D"><use x="118.619" y="57.98" xmlns:xlink="http://www.w3.org/1999/xlink" xlink:href="#s" xlink:type="simple" xlink:actuate="onLoad" xlink:show="embed"/></g><g fill="#F5C10D"><use x="128.299" y="57.98" xmlns:xlink="http://www.w3.org/1999/xlink" xlink:href="#o" xlink:type="simple" xlink:actuate="onLoad" xlink:show="embed"/></g><g clip-path="url(#t)"><path fill="#FFF" d="M 1.511719 0.8125 C 1.144531 0.847656 0.832031 1.128906 0.78125 1.492188 C 0.777344 1.539062 0.777344 1.550781 0.773438 1.597656 L 0.773438 11.0625 C 0.777344 11.109375 0.777344 11.121094 0.78125 11.171875 C 0.851562 11.691406 1.542969 12.039062 2.015625 11.707031 C 2.191406 11.582031 2.316406 11.382812 2.347656 11.171875 C 2.351562 11.121094 2.347656 11.109375 2.351562 11.0625 L 2.351562 2.386719 L 11.082031 2.386719 C 11.128906 2.378906 11.140625 2.378906 11.1875 2.371094 C 11.625 2.277344 11.921875 1.765625 11.769531 1.335938 C 11.675781 1.066406 11.417969 0.855469 11.132812 0.816406 C 11.085938 0.8125 11.074219 0.8125 11.027344 0.8125 L 1.5625 0.8125 C 1.542969 0.8125 1.527344 0.8125 1.511719 0.8125"/></g><g clip-path="url(#u)"><path fill="#FFF" d="M 223.308594 74.238281 C 223.675781 74.199219 223.988281 73.917969 224.035156 73.554688 C 224.042969 73.511719 224.042969 73.496094 224.046875 73.453125 L 224.046875 63.984375 C 224.042969 63.9375 224.042969 63.925781 224.035156 63.878906 C 223.964844 63.355469 223.273438 63.007812 222.800781 63.34375 C 222.628906 63.464844 222.503906 63.667969 222.472656 63.878906 C 222.46875 63.925781 222.46875 63.9375 222.46875 63.984375 L 222.46875 72.664062 L 213.738281 72.664062 C 213.691406 72.667969 213.679688 72.667969 213.632812 72.675781 C 213.195312 72.769531 212.898438 73.28125 213.050781 73.710938 C 213.144531 73.984375 213.402344 74.191406 213.6875 74.230469 C 213.730469 74.238281 213.746094 74.238281 213.792969 74.238281 L 223.257812 74.238281 C 223.273438 74.238281 223.289062 74.238281 223.308594 74.238281"/></g><g clip-path="url(#v)"><path fill="#FFF" d="M 223.308594 0.8125 C 223.675781 0.847656 223.988281 1.128906 224.035156 1.492188 C 224.042969 1.539062 224.042969 1.550781 224.046875 1.597656 L 224.046875 11.0625 C 224.042969 11.109375 224.042969 11.121094 224.035156 11.171875 C 223.964844 11.691406 223.273438 12.039062 222.800781 11.707031 C 222.628906 11.582031 222.503906 11.382812 222.472656 11.171875 C 222.46875 11.121094 222.46875 11.109375 222.46875 11.0625 L 222.46875 2.386719 L 213.738281 2.386719 C 213.691406 2.378906 213.679688 2.378906 213.632812 2.371094 C 213.195312 2.277344 212.898438 1.765625 213.050781 1.335938 C 213.144531 1.066406 213.402344 0.855469 213.6875 0.816406 C 213.730469 0.8125 213.746094 0.8125 213.792969 0.8125 L 223.257812 0.8125 C 223.273438 0.8125 223.289062 0.8125 223.308594 0.8125"/></g><g clip-path="url(#w)"><path fill="#FFF" d="M 1.511719 74.230469 C 1.144531 74.191406 0.832031 73.910156 0.78125 73.546875 C 0.777344 73.503906 0.777344 73.488281 0.773438 73.445312 L 0.773438 63.976562 C 0.777344 63.929688 0.777344 63.917969 0.78125 63.871094 C 0.851562 63.347656 1.542969 63 2.015625 63.335938 C 2.191406 63.457031 2.316406 63.65625 2.347656 63.871094 C 2.351562 63.917969 2.347656 63.929688 2.351562 63.976562 L 2.351562 72.65625 L 11.082031 72.65625 C 11.128906 72.660156 11.140625 72.660156 11.1875 72.667969 C 11.625 72.761719 11.921875 73.273438 11.769531 73.703125 C 11.675781 73.976562 11.417969 74.183594 11.132812 74.222656 C 11.085938 74.230469 11.074219 74.230469 11.027344 74.230469 L 1.5625 74.230469 C 1.542969 74.230469 1.527344 74.230469 1.511719 74.230469"/></g></svg>